<svg id="Layer_1" data-name="Layer 1" xmlns="http://www.w3.org/2000/svg" viewBox="0 0 640 480">
  <defs>
    <style>
      .cls-1 {
        fill: #f90;
      }

      .cls-1, .cls-2 {
        fill-rule: evenodd;
      }
    </style>
  </defs>
  <title>Artboard 1 copy 2</title>
  <g>
    <path class="cls-1" d="M358.55,283.22c-18.61,13.73-45.58,21-68.8,21a124.56,124.56,0,0,1-84.05-32.06c-1.74-1.58-.19-3.73,1.91-2.51A169.1,169.1,0,0,0,291.7,292a167.21,167.21,0,0,0,64.14-13.13C359,277.54,361.62,280.94,358.55,283.22Z"/>
    <path class="cls-1" d="M366.29,274.38c-2.38-3.05-15.73-1.45-21.73-.73-1.81.22-2.1-1.37-.46-2.52,10.65-7.48,28.1-5.32,30.13-2.81s-.54,20-10.52,28.37c-1.53,1.28-3,.6-2.31-1.1C363.64,290,368.67,277.43,366.29,274.38Z"/>
  </g>
  <g>
    <path class="cls-2" d="M345,218.29V211a1.78,1.78,0,0,1,1.84-1.84H379.4a1.81,1.81,0,0,1,1.88,1.84v6.23c0,1-.89,2.41-2.45,4.57L362,245.92c6.26-.15,12.88.79,18.58,4a3.32,3.32,0,0,1,1.72,2.83v7.76a1.74,1.74,0,0,1-2.4,1.66,37.51,37.51,0,0,0-34.41.06c-1.14.61-2.32-.61-2.32-1.68v-7.37a8.78,8.78,0,0,1,1.21-5l19.55-28h-17A1.81,1.81,0,0,1,345,218.29Z"/>
    <path class="cls-2" d="M226.16,263.69h-9.91a1.87,1.87,0,0,1-1.77-1.68V211.15a1.86,1.86,0,0,1,1.91-1.83h9.23a1.87,1.87,0,0,1,1.8,1.71v6.64h.19c2.4-6.43,6.93-9.42,13-9.42s10.08,3,12.86,9.42a14.64,14.64,0,0,1,25.16-3.86c3.14,4.28,2.5,10.49,2.5,15.95v32.1a1.87,1.87,0,0,1-1.91,1.83h-9.9a1.86,1.86,0,0,1-1.78-1.83v-27c0-2.14.18-7.49-.28-9.53-.74-3.42-3-4.39-5.83-4.39a6.58,6.58,0,0,0-5.92,4.18c-1,2.57-.92,6.84-.92,9.74v27a1.87,1.87,0,0,1-1.91,1.83h-9.9a1.86,1.86,0,0,1-1.78-1.83v-27c0-5.68.92-14-6.11-14s-6.84,8.13-6.84,14v27A1.87,1.87,0,0,1,226.16,263.69Z"/>
    <path class="cls-2" d="M409.32,208.25c14.71,0,22.67,12.63,22.67,28.68,0,15.52-8.79,27.83-22.67,27.83-14.43,0-22.29-12.63-22.29-28.36S395,208.25,409.32,208.25Zm.09,10.38c-7.3,0-7.76,10-7.76,16.16s-.1,19.48,7.67,19.48,8.05-10.7,8.05-17.23c0-4.28-.18-9.42-1.48-13.49C414.78,220,412.56,218.63,409.41,218.63Z"/>
    <path class="cls-2" d="M451.06,263.69h-9.87a1.87,1.87,0,0,1-1.78-1.83l0-50.88a1.89,1.89,0,0,1,1.91-1.66h9.19a1.87,1.87,0,0,1,1.76,1.42v7.78h.19c2.77-7,6.66-10.27,13.5-10.27,4.44,0,8.79,1.6,11.57,6,2.59,4.07,2.59,10.92,2.59,15.84v32a1.88,1.88,0,0,1-1.9,1.6h-9.94a1.88,1.88,0,0,1-1.76-1.6V234.47c0-5.57.65-13.7-6.2-13.7a6.48,6.48,0,0,0-5.73,4.06c-1.39,3.11-1.58,6.21-1.58,9.64v27.39A1.89,1.89,0,0,1,451.06,263.69Z"/>
    <path class="cls-2" d="M319,239.4c0,3.86.09,7.08-1.86,10.51-1.57,2.79-4.08,4.51-6.86,4.51-3.8,0-6-2.9-6-7.19,0-8.44,7.57-10,14.74-10Zm10,24.16a2,2,0,0,1-2.34.23c-3.29-2.73-3.88-4-5.68-6.6-5.44,5.54-9.29,7.2-16.34,7.2-8.34,0-14.84-5.15-14.84-15.44a16.83,16.83,0,0,1,10.57-16.2c5.38-2.36,12.89-2.79,18.64-3.44V228c0-2.36.18-5.15-1.21-7.19a6.61,6.61,0,0,0-5.56-2.57c-3.78,0-7.14,1.93-8,5.95a2.09,2.09,0,0,1-1.72,1.82l-9.6-1a1.74,1.74,0,0,1-1.48-2.07c2.21-11.66,12.73-15.18,22.16-15.18,4.82,0,11.13,1.29,14.93,4.94,4.82,4.5,4.35,10.51,4.35,17.06v15.43c0,4.65,1.93,6.69,3.74,9.19.64.9.78,2,0,2.63-2,1.7-5.62,4.82-7.6,6.58Z"/>
    <path class="cls-2" d="M189.1,239.4c0,3.86.1,7.08-1.85,10.51-1.57,2.79-4.08,4.51-6.86,4.51-3.8,0-6-2.9-6-7.19,0-8.44,7.58-10,14.74-10Zm10,24.16a2.06,2.06,0,0,1-2.35.23c-3.29-2.73-3.88-4-5.68-6.6-5.44,5.54-9.29,7.2-16.33,7.2-8.35,0-14.84-5.15-14.84-15.44a16.83,16.83,0,0,1,10.57-16.2c5.38-2.36,12.89-2.79,18.63-3.44V228c0-2.36.19-5.15-1.2-7.19a6.63,6.63,0,0,0-5.56-2.57c-3.78,0-7.14,1.93-8,5.95a2.09,2.09,0,0,1-1.72,1.82l-9.6-1a1.73,1.73,0,0,1-1.48-2.07c2.2-11.66,12.72-15.18,22.16-15.18,4.82,0,11.12,1.29,14.92,4.94,4.82,4.5,4.36,10.51,4.36,17.06v15.43c0,4.65,1.93,6.69,3.74,9.19.63.9.78,2,0,2.63-2,1.7-5.62,4.82-7.6,6.58Z"/>
  </g>
</svg>
