<svg id="Layer_1" data-name="Layer 1" xmlns="http://www.w3.org/2000/svg" viewBox="0 0 640 480">
  <defs>
    <style>
      .cls-1 {
        fill: #a97e20;
        fill-rule: evenodd;
      }
    </style>
  </defs>
  <title>Artboard 1 copy 3</title>
  <path class="cls-1" d="M217.84,258v0m22.41-2.25v0m100.83-13.91h12.55v4.94H342c-.63,0-.9.28-.9-.45h-.45c.16-1.5.31-3,.45-4.49m251.86-10.32c-1.23,3.42-4.93,9.44-4.93,13,1.42,0,9.41.28,9.41-.44h.45c-.8-4.26-2.34-9.28-4.93-12.57m-370.62-.45c-1.19,3.31-4.93,10.08-4.93,13.46,1.43,0,9.41.28,9.41-.44h.45a38.63,38.63,0,0,0-4.93-13m277.41-9.42v.44c-9.89,4.56-8.49,36.92,4.44,35.63,11.65-1.18,9.56-29.72,2.11-34.95-1.76-1.24-4.23-1.12-6.55-1.12m-86.94,0v.44c-9.91,4.58-8.49,36.92,4.44,35.63,11.65-1.18,9.56-29.71,2.11-34.95-1.76-1.24-4.22-1.12-6.55-1.12M199,220.33h0m326.25-.9c3.56,0,13.31-.7,15.83.56,1.07.54,7.92,20.18,7.92,22.33h.45v-.45h.45c.5-3.18,5.33-20.07,7.08-21.58s10.83-.86,14-.86c.62,0,.9-.24.9.45h.45c-.16.74-.3,1.5-.45,2.24-.91.24-4,.29-4,1.35-1.21,2.74-.71,30.12.58,32.41.61,1.09,3.09,1.25,4.35,1.25,0,.7.31,2.24-.44,2.24v.45H555.74c-.63,0-1.34.3-1.34-.45H554v-2.24l4.48-.45c.9-9.66.45-20.41.45-30.52h-.45v.45L556,233.26c-2,5.92-3.73,12-5.59,18-.76,2.7-1.51,5.39-2.28,8.08a2.49,2.49,0,0,1-2.68-1.34c-1-2.67-1.93-5.33-2.9-8q-2.68-8.07-5.38-16.15c-.82-2.43-1.65-4.84-2.49-7.27h-.45V245c0,2.82-.32,5.88.37,8.4a5.83,5.83,0,0,0,2.52,3.41c.56.39,2.58,1.28,2,2.34-.88,1.67-10.86,1.07-13.43,1.11-.6,0-.45.14-.45-.45h-.45v-1.35c1.64-1.06,3.71-1.87,4.57-3.77,1.19-2.68.79-6.41.79-9.69,0-6.73,0-13.46,0-20.19h-.45c0,.61.3,1.34-.45,1.34.16-1,.31-2.09.45-3.14-.85-.11-4.48-.22-4.48-.9h-.45c.16-.89.31-1.79.45-2.69m-85.6,0c3.27,0,10.48-.76,12.93.55,1,.53,18.89,24.14,18.89,24.14h.45c0-.61-.15-.45.45-.45,0-5.12.8-13.4-.37-17.84-.82-3.12-5.46-3.85-5.46-6H467v-.45h13.45c.58,0,.44-.15.44.45h.45c-1,3.2-4.18,3-5.07,6.8-1,4-.31,9.45-.31,13.85,0,6.62-.44,12.85-.44,19.29-1.68-.11-3.08-.17-4.29-1.15-2.11-1.74-21.71-27.65-21.71-28.47h-.89v16.61c0,2.37-.26,5.13.63,7.08s2.37,2.58,4.11,3.55c.58.31,2.2,2.38,1.08,2.38v.45c-4.46-.73-9.48-.45-14.34-.45-.6,0-.45.14-.45-.45h-.45v-1.79c1.77-.65,3.69-1.53,4.6-3.33,1.82-3.66,1.11-12.5,1.26-17.32.1-3.31,1-7.41,0-10.67-.82-2.72-5.9-4.46-5.9-5-.27-.42-.82-.9,0-.9.16-.3.31-.59.45-.9m-258.13,0h18.38c-.09.79.05,2.69-.9,2.69-1.34.16-2.69.31-4,.45v34.11c.88,0,4.48-.38,4.48.45h.45v2.69H181.54c0-.76-.33-2.69.45-2.69v-.45c.9-.1,2.93,0,3.4-.86,1.36-2.39.62-7.32.62-10.36q0-11.44,0-22.89h-4.48v-3.14m-39.88,0h20.16c0,.74.33,2.69-.44,2.69v.45H156c0,4.66-.79,31.57.73,33.39,1.05,1.27,4.3,1.17,6,1.17,2-1,3.88-.91,5.64-2.46,3-2.69,4.14-9.66,7.8-9.66-.15,4.77-.44,9.33-.44,13.91,0,.59.14.45-.45.45v.45c-10.49,0-20.81-.45-30.93-.45-.76,0-3.13.34-3.13-.45h-.45c0-.63-.31-1.34.45-1.34,1.4-1.33,3.95-.56,5-2.47,1.27-2.44,1.54-27.5.47-30.56-.94-2.68-5.43-1.72-5.43-4.67.15-.15.31-.29.45-.45m-39.44,0h20.17c0,.74.32,2.69-.45,2.69v.45h-5.38c0,10.47,0,21.05.06,31.4,0,.85-.17,2.71.84,2.71a15.49,15.49,0,0,0,4.91.39c10.31-.16,9.41-12.06,14.36-12.06-.16,4.77-.45,9.33-.45,13.91,0,.59.14.45-.45.45v.45H112.08c-3,0-6.69.46-9.29-.41-.39-.14-2.17-1.37-1-1.37v-.9c.93-.3,4.93-.28,4.93-1.35,1.93-4.46.9-16.24.9-22,0-2.9.52-6.71-.37-9.24-1-2.71-5.46-1.61-5.46-4.67.16-.15.31-.29.45-.45m-23.75,0H96.84c-.08.79.06,2.69-.89,2.69-1.35.16-2.69.31-4,.45v34.11c.88,0,4.48-.38,4.48.45h.45v2.69H78.47c0-.76-.34-2.69.45-2.69v-.45c.92-.1,2.91,0,3.4-.86,1.12-2,.61-5.59.61-8.11q0-12.57,0-25.14H78.47v-3.14m-59.16,0H35.45c0,.7.33,2.25-.45,2.25v.44c-.76,0-2.69-.33-2.69.45h-.45c.38,6,3.17,12,5.11,17.42.69,2.12,1.37,4.25,2.06,6.37h.45v-.45c1.57-3,4.48-11.4,4.66-14.82A15.26,15.26,0,0,0,42.7,225c-.6-1.34-3.77-3.29-3.78-4.27a3.81,3.81,0,0,0,.07-.47c.45-1.23,12.14-.84,14.38-.84.59,0,.45-.15.45.45h.45v1.8c-1.14.16-2.54.37-3,1.58-1,2.79,4.15,15.41,5.28,18.57l1.26,3.63c.59,0,.45-.15.45.45h.45v-.45c1.25-3,6.29-17.81,4.85-21.06a5.58,5.58,0,0,0-3-2.78c-.41-.21-2.54-1.74-1.36-1.74v-.45H73.09c-.77,2.86-3.86,3.75-5.14,6.4s-1.89,5.62-2.76,8.47c-1.62,5.48-3.25,11-4.89,16.46-1,3-1.93,6.05-2.89,9.06-1.15-.15-2.54-.25-3.3-1.15-1.26-1.48-7.46-20-7.46-22.19h-.9Q43.64,243,41.5,249.57c-.91,2.93-1.42,7-3.34,9.45a2.27,2.27,0,0,1-2.43.53c-1.73-.6-2.24-4-2.72-5.49q-3.46-10.6-6.92-21.19c-.94-2.82-1.51-6.19-3.15-8.68a4.93,4.93,0,0,0-3.63-2.07v-2.69m575-.45c1.4.09,2.61.1,3.58.94,1.65,1.43,2.12,4.17,2.93,6.13q3.86,9.49,7.74,19c1.22,3.18,2.31,7.28,4.47,10a6.43,6.43,0,0,0,4.13,2.09c-.11.8,0,2.24-.89,2.24-4.29,1.28-11.7.45-16.59.45-.6,0-.45.14-.45-.45h-.44c.07-.77,0-2.24.89-2.24l1.91-.94c1-2-.09-7.07-2.15-8-1.66-.77-11.23-.91-12.56.18a5.6,5.6,0,0,0-1.54,2.92c-1.48,5.21,4.48,5.87,4.48,6.31h.45c0,.64.29,1.79-.45,1.79v.45H575.91c-.63,0-.9.28-.9-.45h-.44v-1.79a13.17,13.17,0,0,0,4-2.71c1.92-2.2,2.65-5,3.78-7.53q3.67-9.5,7.36-19c1.17-3.32,2.19-6.67,4.58-9.38m-329.84,0a4.45,4.45,0,0,1,2.48,1.48c1.09,1.75,1.54,4.08,2.1,6.11,1.08,3.42,2.16,6.86,3.23,10.28.69,1.82,1.38,3.65,2.05,5.47h.45c.7-3.06,5.91-21.5,7.85-22.37,3-1.37,10.69-.52,14.55-.52,0,.74.34,2.69-.44,2.69v.45c-1.52.09-3.37.09-4,1.59-1,2.33-.12,5.73-.08,8.29q0,7.63,0,15.26c0,2.41-.35,5.38.44,7.46.67,1.8,4.49,1.08,4.49,2h.45c-.11.81,0,2.24-.9,2.24-4.87,1.32-11.66.45-17,.45-.6,0-.44.14-.44-.45h-.45v-2.24h.45v-.45h4c.9-9.66.45-20.41.45-30.52h-.9q-4.74,15.47-9.49,30.93c-.33.75-.75,1.63-1.73,1.63s-1.24-.6-1.56-1.25c-3.62-7.38-5.26-15.85-8-23.61-.83-2.56-1.65-5.13-2.49-7.7h-.9c0,6.89.1,14.17.41,20.65l.33,6.65c.75,3,5.09,3.39,5.09,6.36H250.11V258c1.69-.62,3.71-1.56,4.44-3.37,1-2.48.47-6.27.47-9.2,0-7.81-.43-15.36-.43-22.89-1.78-.16-3.32-.89-4.93-.89v-1.35c4.17-1.94,10.32,0,14.79-1.35m-40.78,0c1.32.09,2.64.13,3.58.94,1.7,1.46,2.19,4.31,3,6.3,2,4.87,10.19,28.19,13.6,30,1.2.63,2.32,1,2.27,2.71,0,.58,0,.47-.49.47-4.76,1.29-11.35.45-16.58.45-.61,0-.45.14-.45-.45h-.45c.07-.77,0-2.24.9-2.24l1.9-.94c1.05-2-.07-7.07-2.14-8-1.67-.77-11.24-.91-12.56.18a5.86,5.86,0,0,0-1.63,3.27c-1.3,4.82,4.57,5.49,4.57,6h.44c0,.64.3,1.79-.44,1.79v.45h-13.9c-.63,0-.89.28-.89-.45H204v-1.79a14.38,14.38,0,0,0,3.79-2.47c2-2.08,2.74-4.87,3.84-7.4q3.67-9.48,7.37-19c1.31-3.45,2.21-6.92,4.72-9.78m277-.45a22.09,22.09,0,0,1,10.17,2c13,6.84,15.45,27.12,3.25,36.07a18.93,18.93,0,0,1-9,3.91c-18.73,2.1-27.75-19.81-18.07-33.74,3.42-4.95,8.28-6.64,13.61-8.28m-86.94,0c4,0,8.17.65,11.23,2.64,11.88,7.71,14.49,26.74,2.19,35.47-2.71,1.89-5.52,3.52-9,3.91-18.49,2.08-28.32-20.32-17.91-33.94,3.7-4.86,8-6.28,13.45-8.08m-39.88,0a18.68,18.68,0,0,1,6.75.82c1.61.63,3.55,2.33,5.35,2.33.4-.52,4-4.13,4-2.25h.45v13.46c0,.59.14.45-.45.45v.45l-1.27-.29a2.45,2.45,0,0,1-1.35-1.07c-.7-1.43-1.4-2.84-2.1-4.28-2.46-4.15-7.48-8.62-12.79-6.08a6.09,6.09,0,0,0-3.78,4.57c-1,7.74,12.87,8,17.52,10.49a10.76,10.76,0,0,1,5.13,7,15.68,15.68,0,0,1-.5,8.09,13.32,13.32,0,0,1-15.07,8.28c-3.1-.71-6.92-4.16-9.6-2.09-.56.42-3.53,2.23-3.53,1h-.44V245.46c0-.63-.24-.9.44-.9v-.44c3.42.56,3.56,3.61,5.18,6.11,2.62,4.05,7.4,8.55,12.71,7.21a6.87,6.87,0,0,0,4.94-4.81,5.77,5.77,0,0,0-.62-4.38,8,8,0,0,0-4.31-3.18c-4.93-2-10.53-1.84-14.45-5.77-6.72-6.73-2.28-20.32,7.76-20.32v-.45m-56.47,0a20.93,20.93,0,0,1,6.6.76c1.73.58,3.6,2.39,5.5,2.39.41-.52,4-4.13,4-2.25h.44v13.46c0,.59.14.45-.44.45v.45l-1.28-.29a2.43,2.43,0,0,1-1.34-1.07c-.71-1.43-1.41-2.84-2.11-4.28-2.46-4.15-7.47-8.62-12.78-6.08a6.11,6.11,0,0,0-3.78,4.57c-1.08,8,13.09,7.77,17.74,10.63a11.08,11.08,0,0,1,4.57,5.62,14.68,14.68,0,0,1,0,8.68c-2.11,6.86-9.51,10.37-16.69,8.55-2.55-.66-5.39-3.79-7.94-1.94-.55.38-3.75,2.48-3.75,1.19h-.45V245.46c0-.63-.3-.9.45-.9v-.44c3.22.53,3.6,3.32,5,5.79,2.44,4.34,7.38,8.83,12.9,7.53a6.69,6.69,0,0,0,4.8-4.42,5.77,5.77,0,0,0-.21-4.25,7.27,7.27,0,0,0-4-3.46c-5-2.26-10.49-2.12-14.77-5.79-7.5-6.43-2.29-20.54,7.53-20.54v-.45"/>
</svg>
