<?xml version="1.0" encoding="utf-8"?>
<!-- Generator: Adobe Illustrator 22.1.0, SVG Export Plug-In . SVG Version: 6.00 Build 0)  -->
<svg version="1.1" id="Layer_8" xmlns="http://www.w3.org/2000/svg" xmlns:xlink="http://www.w3.org/1999/xlink" x="0px" y="0px"
	 viewBox="0 0 51.7 17.9" style="enable-background:new 0 0 51.7 17.9;" xml:space="preserve">
<path class="fill-gold" d="M12.3,1.6c-0.8,0-1.5,0.2-2.3,0.3C9.6,2,9.3,2,9,2.1C8.4,2.2,7.7,2.4,7.1,2.5C6.7,2.6,6.3,2.7,5.9,2.8
	C5.5,2.9,5.1,3,4.6,3.1C4.3,3.2,4.1,3.3,3.8,3.4c-0.3,0.2-0.7,0.3-1,0.4c-0.1,0-0.2,0-0.3,0.1C2.1,4.1,1.6,4.2,1.3,4.5
	C1.1,4.6,0.9,4.7,0.6,4.6C0.4,4.4,0.3,4.2,0.2,4C0.4,3.7,0.7,3.5,1,3.4C1.4,3.2,1.9,3,2.4,2.6c0.1,0,0.2-0.1,0.3-0.1
	c0.2-0.1,0.5-0.2,0.7-0.3C4,2.1,4.5,1.9,5.1,1.7c1-0.4,2.1-0.7,3.2-1c0.4-0.1,0.8-0.2,1.2-0.2c0.6,0,1.1-0.1,1.7-0.3
	c0-0.1,0.1-0.1,0.1-0.2c0.1,0,0.1,0,0.2,0c0.5,0.2,0.9,0.3,1.4,0.2c0.1,0,0.1,0,0.1,0c0.4,0,0.7-0.1,1.1-0.1C14.4,0,14.8,0,15.2,0
	c0.3,0,0.7,0,1,0c0.6,0,1.1,0,1.7,0c1.1,0.1,2.2,0,3.3,0c0.5,0,1-0.1,1.5,0c0.7,0.1,1.5,0.1,2.3,0.3c0.1,0,0.1,0,0.2,0
	c0.5-0.1,0.9,0,1.4,0.1c0.6,0.1,1.2,0.2,1.8,0.3c0.3,0.1,0.6,0.2,0.9,0.1h0.1C30.1,0.9,30.8,1,31.5,1c1,0.1,1.9,0.3,2.8,0.5
	c0.7,0.2,1.3,0.3,2,0.4c0.5,0,1,0.1,1.4,0.3c0.7,0.3,1.4,0.6,2.1,0.8C39.9,3,40,3.1,40,3.2c0.5,0.2,1,0.4,1.5,0.6
	c0.6,0.2,1.2,0.5,1.6,0.9c0.2,0.1,0.4,0.2,0.6,0.3s0.4,0.3,0.7,0.4c0.1,0.1,0.2,0.2,0.3,0.3c0.7,0.5,1.5,0.9,2.2,1.5
	c0.1,0.1,0.2,0.2,0.3,0.2C47.6,7.7,48,8,48.4,8.2c1,0.6,1.7,1.5,2.3,2.4c0,0.1,0.1,0.1,0.1,0.2c0.3,0.6,0.5,1.1,0.4,1.8
	c0,0.2,0,0.3,0,0.4c0,0.5,0,1,0,1.5s0.1,1,0.1,1.5c0,0.3,0.1,0.6,0.2,0.8c0.1,0.1,0.1,0.3,0.2,0.5c0,0.1,0.1,0.3,0,0.4
	c-0.1,0.1-0.3,0.2-0.4,0.1c-0.4-0.4-0.8-0.7-1.2-1.1c-0.2-0.2-0.4-0.5-0.6-0.7c-0.1-0.1-0.2-0.2-0.3-0.3c-0.3-0.2-0.6-0.4-1-0.5
	c-0.3-0.1-0.6-0.2-0.7-0.3c-0.6-0.2-1.2-0.4-1.9-0.5c-0.1,0-0.1,0-0.1,0c-0.6-0.1-1.1-0.2-1.6-0.3c-0.2,0-0.4,0-0.5-0.1
	c-0.6-0.3-1.2-0.6-1.7-0.9c-0.3-0.2-0.6-0.3-0.8-0.5c-0.1-0.1-0.3-0.2-0.4-0.3c-0.2-0.2-0.5-0.3-0.7-0.5c-0.5-0.4-1-0.7-1.5-1.1
	c-0.4-0.3-0.7-0.6-1-0.9c-0.4-0.3-0.7-0.6-1.2-0.8c-0.2-0.1-0.4-0.2-0.6-0.3c-0.6,0-1.3-0.1-1.9-0.1c-0.1-0.1-0.3-0.1-0.4-0.1
	c-0.2,0-0.5-0.1-0.7-0.1c-0.5-0.1-1-0.2-1.5-0.3c-0.6-0.1-1.1-0.4-1.5-0.7c-0.6-0.2-1.2-0.5-1.7-0.9c-0.3-0.2-0.6-0.4-0.9-0.6
	c-0.3-0.2-0.7-0.4-1.1-0.4c-0.2,0-0.4,0-0.6,0c-0.3,0-0.5,0-0.8,0c-0.5,0-1.1-0.1-1.6-0.1c-0.4,0-0.8,0-1.2,0c-0.1,0-0.1,0-0.2,0
	c-0.1-0.1-0.2-0.1-0.3-0.2c-0.3,0-0.7,0-1,0c-0.5,0.1-1.1,0-1.6-0.1c-0.1,0-0.1,0-0.1,0c-0.3,0-0.6-0.1-0.8-0.3
	c-0.2-0.2-0.5-0.3-0.7-0.4c-0.3-0.1-0.5-0.3-0.8-0.4c-0.5-0.3-0.9-0.6-1.3-1.1c-0.2-0.2-0.4-0.4-0.7-0.6c-0.2-0.2-0.5-0.3-0.7-0.5
	C13,1.7,12.6,1.7,12.3,1.6z M6.2,2C6.3,2,6.3,2,6.2,2c0,0-0.1,0-0.2,0.1C6.1,2.1,6.1,2.1,6.2,2C6.3,2,6.3,2,6.2,2z M36.9,3
	c0.3,0.2,0.6,0.4,0.8,0.6c0.1,0.1,0.3,0.2,0.4,0.3c0.6,0.6,1.2,1.1,1.7,1.7s0.9,1.2,1.4,1.8c0,0.1,0.1,0.3,0.2,0.4c0,0,0,0,0,0.1
	c0-0.1-0.1-0.1-0.1-0.1C41.2,7.5,41,7.2,40.8,7c-0.2-0.3-0.4-0.5-0.6-0.7c-0.3-0.4-0.6-0.7-0.9-1.1c-0.5-0.5-1-1-1.5-1.4
	S36.7,2.9,36,2.6c-0.3-0.3-0.7-0.4-1.1-0.5c-0.8-0.2-1.7-0.4-2.6-0.5c-0.2,0-0.3,0-0.5,0c-0.5,0-1-0.1-1.5-0.1c-0.1,0-0.3,0-0.4,0
	c-0.3-0.1-0.6-0.1-0.9-0.2c-0.2-0.1-0.4-0.1-0.6-0.1c0,0.1,0.1,0.1,0.1,0.1C29,1.6,29.6,2,30.1,2.4c0.4,0.2,0.8,0.6,1.1,0.9
	c0.3,0.2,0.5,0.4,0.7,0.6c0.2,0.3,0.5,0.5,0.7,0.8c0.6,0.7,1.2,1.5,1.8,2.2c0.1,0,0.1,0.1,0.1,0.2l-0.1,0.1h-0.1
	c-0.4-0.4-0.8-0.8-1.1-1.3c-0.4-0.7-1-1.2-1.6-1.8c-0.2-0.2-0.5-0.4-0.7-0.6c-1-1-2.2-1.7-3.5-2.3c-0.3-0.2-0.8-0.3-1.2-0.4
	c-0.7-0.1-1.4-0.2-2.1-0.3c-0.4,0-0.9-0.1-1.3-0.1c-0.5-0.1-0.9-0.1-1.4,0c-0.1,0.1-0.1,0.1-0.2,0.1c0,0.2,0.1,0.3,0.2,0.3
	C21.9,1,22.3,1.3,23,1.4c0,0.1,0.1,0.1,0.2,0.2c0.7,0.5,1.3,1,1.8,1.6c0.3,0.4,0.6,0.7,0.9,1.1c0.1,0.1,0.2,0.2,0.4,0.3
	c0.1,0,0.1,0.1,0.2,0.1c0.5,0.2,1,0.5,1.5,0.8c0.3,0.2,0.6,0.4,0.9,0.5c0.6,0.3,1.2,0.5,1.8,0.8c0.1,0.1,0.1,0.1,0.2,0.1
	c0.5,0.1,1,0.2,1.4,0.3c0.1,0,0.1,0,0.2,0c0.6,0,1.1,0.2,1.7,0.2c0.1,0,0.2,0.1,0.3,0.1c0.4,0.1,0.9,0.2,1.3,0.3
	c0.4,0.1,0.7,0.2,1.1,0.1c0.2,0,0.4,0,0.6,0c0.6,0,1.3,0.1,1.9,0.1c0.4,0,0.7,0.1,1.1,0.1c0.3,0.1,0.5,0.1,0.8,0.1
	c0.5,0,1.1,0.1,1.6,0.3c0.1,0,0.2,0.1,0.2,0.1c0.4,0.2,0.8,0.5,1.2,0.8l0.1,0.1c0.2,0.4,0.6,0.7,1,0.9c0.4,0.3,0.8,0.5,1.2,0.6
	c0.5,0.2,0.9,0.4,1.2,0.7l0.1,0.1c0.3,0.4,0.5,0.7,0.8,1.1c0.1,0.1,0.2,0.3,0.2,0.5c0.1,0.1,0.1,0.2,0.2,0.3
	c0.3,0.6,0.8,1.1,1.1,1.6c0.1,0.1,0.3,0.2,0.4,0.3c0.1,0,0.1-0.1,0.1-0.1c0-0.6,0-1.2,0-1.8c0-0.2,0-0.5,0-0.7
	c0.1-0.4,0.1-0.7,0-1.1c0-0.3-0.1-0.5-0.2-0.7c-0.2-0.3-0.5-0.6-0.7-0.9c-0.3-0.4-0.6-0.8-1-1.1c-0.1-0.1-0.2-0.2-0.3-0.3
	c-0.6-0.4-1.1-0.8-1.6-1.1c-0.3-0.2-0.7-0.5-1.1-0.7c0,0-0.1-0.1-0.3-0.1c0,0.1,0,0.2,0,0.2c0,0.1,0.1,0.2,0.2,0.3
	c0.6,0.8,1,1.8,1.4,2.7c0.1,0.2,0.2,0.4,0.2,0.6c0,0.1,0,0.1,0,0.2h-0.1c-0.2-0.6-0.5-1.1-0.7-1.6c-0.2-0.5-0.5-1-0.8-1.4
	c-0.3-0.5-0.6-1-1-1.5C44.5,6.3,44.3,6,44,6l-0.1-0.1c-0.4-0.4-0.8-0.7-1.3-0.9c-0.3-0.3-0.7-0.4-1-0.6C41.3,4.3,41,4.1,40.7,4
	c-0.1,0-0.1-0.1-0.2-0.1c-0.7-0.4-1.4-0.6-2.2-0.9c-0.6-0.2-1.2-0.4-1.8-0.5C36.6,2.6,36.8,2.7,36.9,3z M19,4.6
	c0.2,0,0.5,0.1,0.7,0.1s0.3,0,0.4,0c0.2,0,0.5,0,0.7,0s0.4,0,0.6,0c0.1,0,0.3,0,0.4,0c0.6,0.1,1.3,0,1.9,0c0.5,0,1-0.1,1.5-0.1
	c0.1,0,0.2,0,0.3,0V4.5c-0.1-0.1-0.2-0.2-0.3-0.3c-0.3-0.3-0.6-0.6-0.9-0.9c-0.1-0.1-0.1-0.1-0.2-0.2c-0.7-0.6-1.4-1.2-2.2-1.6
	c-0.3-0.2-0.7-0.3-1-0.5s-0.7-0.3-1.1-0.4c-0.2-0.1-0.3-0.1-0.5-0.1c-0.6-0.1-1.2-0.1-1.8-0.1c-0.2,0-0.3,0-0.5,0
	c-0.2,0-0.4,0-0.6,0c-0.5,0-1.1,0-1.6,0h-0.1c-0.5,0.1-1.1,0.1-1.6,0.1c0,0.1,0,0.1,0,0.1c0.1,0.2,0.3,0.3,0.5,0.5
	c0.2,0.1,0.3,0.2,0.5,0.2c0.3,0.1,0.6,0.2,0.8,0.4c0.2,0.1,0.3,0.2,0.4,0.3c0.3,0.3,0.6,0.6,0.8,0.9c0.3,0.2,0.6,0.4,0.9,0.6
	c0.1,0.1,0.3,0.2,0.4,0.3c0.2,0.1,0.3,0.3,0.5,0.5C18.2,4.4,18.6,4.6,19,4.6z M48.3,14c-0.3-0.4-0.6-0.9-0.9-1.3
	c-0.4-0.4-0.8-0.8-1.3-1.1c-0.7-0.4-1.3-0.9-2-1.3c-0.3-0.2-0.6-0.4-0.8-0.7c0-0.1-0.1-0.2-0.1-0.2c-0.4-0.5-0.9-0.7-1.5-0.7
	c-0.7,0-1.4-0.1-2.1-0.1c-0.2,0-0.4,0-0.6,0c-0.4,0-0.8,0-1.2,0c-0.3,0-0.6,0-0.9,0.1v0.1c0.4,0.3,0.8,0.6,1.2,1
	c0.6,0.6,1.2,1.1,1.9,1.6c0.3,0.2,0.6,0.4,0.9,0.6c0.6,0.4,1.3,0.9,2,1.2c0.5,0.3,1,0.5,1.6,0.6c0.4,0,0.7,0.1,1.1,0.2
	c0.3,0.1,0.7,0.2,1,0.3c0.6,0.2,1.3,0.4,1.9,0.6c0,0,0.1,0,0.2,0C48.6,14.5,48.4,14.3,48.3,14z M11.5,0.9c-0.2,0-0.5,0-0.7,0
	c-0.1-0.1-0.2,0-0.3,0C10,1.1,9.4,1.2,8.9,1.4S8,1.7,7.5,1.9c-0.1,0-0.3,0-0.4,0.1c0.1,0,0.2,0,0.3,0c0,0,0.1,0,0.2,0
	C8,1.9,8.4,1.8,8.8,1.7c1-0.3,2.1-0.4,3.2-0.5c0.1,0,0.2,0,0.3,0C12,0.9,11.9,0.9,11.5,0.9z M5.1,2.5L5.1,2.5
	C4.6,2.6,4.2,2.7,3.8,2.8C3.5,2.9,3.1,3,2.8,3.2C2.6,3.3,2.3,3.4,2.1,3.5C1.7,3.7,1.2,3.8,0.8,4c-0.1,0.2,0,0.2,0.1,0.2
	c0.5-0.2,1-0.4,1.5-0.6c0.4-0.1,0.9-0.3,1.4-0.5s1-0.3,1.5-0.5C5.2,2.5,5.2,2.5,5.1,2.5z"/>
<path class="fill-darkblue" d="M25.7,4.4c-0.3-0.4-0.6-0.7-0.9-1.1c-0.6-0.6-1.2-1.1-1.8-1.6c0-0.1-0.1-0.2-0.2-0.2c-0.5-0.2-0.9-0.5-1.4-0.9
	c-0.1-0.1-0.2-0.1-0.2-0.3c0.1-0.1,0.1-0.1,0.2-0.1c0.5,0,0.9,0,1.4,0c0.4,0,0.9,0.1,1.3,0.1c0.7,0.1,1.4,0.2,2.1,0.3
	C26.6,0.7,27,0.8,27.4,1c1.3,0.6,2.4,1.4,3.5,2.3c0.2,0.2,0.5,0.4,0.7,0.6c0.5,0.6,1.1,1.1,1.6,1.8c0.4,0.5,0.7,0.9,1.1,1.3h0.1
	c0.1,0,0.1-0.1,0.1-0.1c0-0.1-0.1-0.1-0.1-0.2c-0.6-0.7-1.2-1.5-1.8-2.2c-0.2-0.3-0.4-0.6-0.7-0.8c-0.3-0.2-0.5-0.4-0.7-0.6
	c-0.4-0.3-0.7-0.6-1.1-0.9c-0.5-0.4-1-0.8-1.6-1.1c0,0-0.1,0-0.1-0.1c0.2,0,0.4,0,0.6,0.1c0.3,0.1,0.6,0.2,0.9,0.2
	c0.1,0,0.3,0,0.4,0c0.5,0,1,0.1,1.5,0.1c0.2,0,0.3,0,0.5,0c0.9,0.1,1.7,0.3,2.6,0.5C35.3,2,35.7,2.1,36,2.4c0.7,0.3,1.2,0.7,1.8,1.2
	c0.5,0.5,1.1,0.9,1.5,1.4c0.3,0.4,0.6,0.7,0.9,1.1c0.2,0.3,0.4,0.5,0.6,0.7c0.2,0.3,0.3,0.5,0.5,0.8c0,0.1,0,0.1,0.1,0.1V7.6
	c0-0.1-0.1-0.3-0.2-0.4c-0.4-0.6-0.9-1.2-1.4-1.8c-0.6-0.6-1.1-1.2-1.7-1.7c-0.1-0.1-0.3-0.2-0.4-0.3c-0.3-0.3-0.5-0.5-0.8-0.6
	c-0.1-0.1-0.3-0.2-0.4-0.3c0.6,0.1,1.2,0.3,1.8,0.5c0.8,0.2,1.6,0.5,2.3,0.8c0,0.1,0.1,0.1,0.2,0.1c0.3,0.1,0.6,0.3,0.9,0.4
	c0.4,0.2,0.7,0.4,1,0.6c0.4,0.3,0.8,0.5,1.2,0.9c0,0.1,0.1,0.1,0.1,0.1c0.3,0.1,0.5,0.4,0.8,0.7c0.4,0.4,0.7,0.9,1,1.4
	c0.3,0.4,0.6,0.9,0.8,1.4c0.3,0.5,0.5,1.1,0.7,1.6h0.1c0-0.1,0-0.1,0-0.2c-0.1-0.2-0.1-0.4-0.2-0.6c-0.4-1-0.8-1.9-1.4-2.7
	c-0.1-0.1-0.2-0.2-0.2-0.3c0-0.1,0-0.1,0-0.2c0.1,0,0.2,0.1,0.2,0.1c0.4,0.2,0.7,0.5,1.1,0.7c0.6,0.4,1.1,0.7,1.6,1.1
	c0.1,0.1,0.2,0.2,0.4,0.3c0.4,0.3,0.7,0.7,1,1.1c0.3,0.3,0.5,0.6,0.7,0.9c0.1,0.2,0.2,0.5,0.2,0.7c0,0.4,0,0.7,0,1.1
	c0,0.2,0,0.5,0,0.7c0,0.6,0,1.2,0,1.8c0,0.1,0,0.1-0.1,0.1c-0.2-0.1-0.3-0.2-0.4-0.3c-0.4-0.6-0.8-1-1.1-1.6c0-0.1-0.1-0.2-0.2-0.3
	c-0.1-0.2-0.2-0.4-0.4-0.5c-0.3-0.4-0.5-0.7-0.8-1.1l-0.1-0.1c-0.4-0.4-0.8-0.6-1.2-0.7c-0.4-0.2-0.8-0.4-1.2-0.6
	c-0.4-0.3-0.7-0.5-1-0.9l-0.1-0.1c-0.3-0.3-0.7-0.6-1.1-0.8C43,8.5,43,8.5,42.9,8.5c-0.5-0.2-1-0.3-1.5-0.2
	c-0.3-0.1-0.5-0.1-0.8-0.1c-0.4,0-0.7-0.1-1.1-0.1C38.9,8,38.2,8,37.6,8c-0.2,0-0.4,0-0.6,0c-0.4,0.1-0.8,0-1.3,0
	c-0.4-0.1-0.9-0.2-1.3-0.3c-0.1-0.1-0.2-0.1-0.3-0.1c-0.6,0-1.1-0.2-1.7-0.2c-0.1,0-0.1,0-0.2,0c-0.4-0.2-0.9-0.3-1.4-0.4
	c-0.1,0-0.1-0.1-0.2-0.1c-0.6-0.3-1.2-0.6-1.8-0.8c-0.3-0.2-0.6-0.3-0.9-0.5c-0.5-0.3-1-0.6-1.6-0.8c-0.1,0-0.1-0.1-0.2-0.1
	S25.8,4.5,25.7,4.4z M14.7,0.4c-0.5,0.1-1.1,0.1-1.6,0.1c0,0.1,0,0.1,0,0.1c0.1,0.2,0.3,0.3,0.5,0.5c0.2,0.1,0.3,0.2,0.5,0.2
	c0.3,0.1,0.6,0.2,0.8,0.4c0.2,0.1,0.3,0.2,0.4,0.3c0.3,0.3,0.6,0.6,0.9,0.8c0.3,0.2,0.6,0.4,0.9,0.6c0.1,0.1,0.3,0.2,0.4,0.3
	C17.7,3.8,17.8,4,18,4.2c0.3,0.2,0.6,0.3,1,0.4c0.2,0,0.5,0.1,0.7,0.1s0.3,0,0.4,0c0.2,0,0.5,0,0.7,0s0.4,0,0.6,0c0.1,0,0.3,0,0.4,0
	c0.6,0.1,1.3,0,1.9,0c0.5,0,1-0.1,1.5-0.1c0.1,0,0.2,0,0.3,0V4.5c-0.1-0.1-0.2-0.2-0.3-0.3c-0.3-0.3-0.6-0.6-0.9-0.9
	c-0.1-0.1-0.1-0.1-0.2-0.2c-0.7-0.6-1.4-1.2-2.2-1.6c-0.3-0.2-0.7-0.3-1-0.5s-0.7-0.3-1.1-0.3c-0.2-0.1-0.3-0.1-0.5-0.1
	c-0.6-0.1-1.2-0.1-1.8-0.1c-0.2,0-0.3,0-0.5,0c-0.2,0-0.4,0-0.6,0c-0.5,0-1.1,0-1.6,0C14.8,0.5,14.8,0.5,14.7,0.4z M37.8,8.6
	c-0.3,0-0.6,0-0.9,0.1v0.1c0.4,0.3,0.8,0.6,1.2,1c0.6,0.6,1.2,1.1,1.9,1.6c0.3,0.2,0.6,0.4,0.9,0.6c0.6,0.4,1.3,0.9,2,1.2
	c0.5,0.3,1,0.5,1.6,0.5c0.4,0,0.7,0.1,1.1,0.2c0.3,0.1,0.7,0.2,1,0.3c0.6,0.2,1.3,0.4,1.9,0.6c0,0,0.1,0,0.2,0
	c-0.1-0.3-0.2-0.6-0.4-0.8c-0.3-0.4-0.6-0.9-0.9-1.3c-0.4-0.4-0.8-0.8-1.3-1.1c-0.7-0.4-1.3-0.9-2-1.3c-0.3-0.2-0.6-0.4-0.8-0.7
	c0-0.1-0.1-0.2-0.2-0.2c-0.4-0.5-0.9-0.7-1.5-0.7c-0.7,0-1.4-0.1-2.1-0.1c-0.2,0-0.4,0-0.6,0C38.5,8.6,38.1,8.6,37.8,8.6z M10.8,0.9
	c-0.1-0.1-0.2,0-0.3,0C10,1.1,9.4,1.2,8.9,1.4S8,1.7,7.5,1.9c-0.1,0-0.3,0-0.4,0.1c0.1,0,0.2,0,0.3,0c0,0,0.1,0,0.2,0
	C8,1.9,8.4,1.8,8.8,1.7c1-0.3,2.1-0.4,3.2-0.5c0.1,0,0.2,0,0.3,0C12,1,11.8,0.9,11.6,0.9S11.1,0.9,10.8,0.9z M5.1,2.5L5.1,2.5
	C4.6,2.6,4.2,2.7,3.8,2.8C3.5,2.9,3.1,3,2.8,3.2C2.6,3.3,2.3,3.4,2.1,3.5C1.7,3.7,1.2,3.8,0.8,4c-0.1,0.2,0,0.2,0.1,0.2
	c0.5-0.2,1-0.4,1.5-0.6c0.4-0.1,0.9-0.3,1.4-0.5s1-0.3,1.5-0.5C5.2,2.5,5.2,2.5,5.1,2.5z M6.2,2c0.1,0,0.1,0,0.1-0.1
	C6.3,2,6.2,2,6.2,2L6.2,2L6.2,2z M6.2,2C6.1,2,6.1,2,6,2.1C6.1,2.1,6.2,2,6.2,2z"/>
</svg>
