<?xml version="1.0" encoding="utf-8"?>
<!-- Generator: Adobe Illustrator 22.1.0, SVG Export Plug-In . SVG Version: 6.00 Build 0)  -->
<svg version="1.1" id="Layer_8" xmlns="http://www.w3.org/2000/svg" xmlns:xlink="http://www.w3.org/1999/xlink" x="0px" y="0px"
	 viewBox="0 0 51.7 17.9" style="enable-background:new 0 0 51.7 17.9;" xml:space="preserve">
<style type="text/css">
	.st0{fill-rule:evenodd;clip-rule:evenodd;fill:#E8CA82;}
	.st1{fill-rule:evenodd;clip-rule:evenodd;fill:#0D1F2D;}
</style>
<path class="st0" d="M38.5,1.8C38.3,2,38,2.1,37.8,2.3c-0.3,0.2-0.5,0.4-0.7,0.6c-0.4,0.5-0.8,0.8-1.3,1.1c-0.3,0.1-0.5,0.3-0.8,0.4
	c-0.2,0.1-0.5,0.2-0.7,0.4c-0.2,0.2-0.5,0.3-0.8,0.3c0,0,0,0-0.1,0c-0.5,0.1-1.1,0.2-1.6,0.1c-0.3,0-0.7,0-1,0
	c-0.1,0.1-0.2,0.1-0.3,0.2c-0.1,0-0.1,0-0.2,0c-0.4,0-0.8,0-1.2,0c-0.5,0-1.1,0.1-1.6,0.1c-0.3,0-0.5,0-0.8,0c-0.2,0-0.4,0-0.6,0
	c-0.4,0-0.8,0.2-1.1,0.4c-0.3,0.2-0.6,0.4-0.9,0.6c-0.5,0.4-1.1,0.7-1.7,0.9C22,7.7,21.5,8,20.9,8.1c-0.5,0.1-1,0.2-1.5,0.3
	c-0.2,0-0.5,0.1-0.7,0.1c-0.1,0-0.3,0-0.4,0.1c-0.6,0-1.3,0.1-1.9,0.1C16.2,8.8,16,8.9,15.8,9c-0.5,0.2-0.8,0.5-1.2,0.8
	c-0.3,0.3-0.6,0.6-1,0.9c-0.5,0.4-1,0.7-1.5,1.1c-0.2,0.2-0.5,0.3-0.7,0.5c-0.1,0.1-0.3,0.2-0.4,0.3c-0.2,0.2-0.5,0.3-0.8,0.5
	c-0.5,0.3-1.1,0.6-1.7,0.9c-0.1,0.1-0.3,0.1-0.5,0.1c-0.5,0.1-1,0.2-1.6,0.3c0,0,0,0-0.1,0c-0.7,0.1-1.3,0.3-1.9,0.5
	C4.3,15,4,15.1,3.7,15.2c-0.4,0.1-0.7,0.3-1,0.5c-0.1,0.1-0.2,0.2-0.3,0.3c-0.2,0.2-0.4,0.5-0.6,0.7c-0.4,0.4-0.8,0.7-1.2,1.1
	c-0.1,0.1-0.3,0-0.4-0.1c-0.1-0.1,0-0.3,0-0.4c0.1-0.2,0.1-0.4,0.2-0.5c0.1-0.2,0.2-0.5,0.2-0.8c0-0.5,0.1-1,0.1-1.5
	c0-0.5,0-1,0-1.5c0-0.1,0-0.2,0-0.4c-0.1-0.7,0.1-1.2,0.4-1.8c0-0.1,0.1-0.1,0.1-0.2c0.6-0.9,1.3-1.8,2.3-2.4C3.9,8,4.3,7.7,4.7,7.4
	C4.8,7.4,4.9,7.3,5,7.2c0.7-0.6,1.5-1,2.2-1.5c0.1-0.1,0.2-0.2,0.3-0.3C7.8,5.3,8,5.1,8.2,5c0.2-0.1,0.4-0.2,0.6-0.3
	C9.2,4.3,9.8,4,10.4,3.8c0.5-0.2,1-0.4,1.5-0.6C11.9,3.1,12,3,12.1,3c0.7-0.2,1.4-0.5,2.1-0.8c0.4-0.2,0.9-0.3,1.4-0.3
	c0.7-0.1,1.3-0.2,2-0.4c0.9-0.2,1.8-0.4,2.8-0.5c0.7,0,1.4-0.1,2.1-0.2c0,0,0.1,0,0.1,0c0.3,0.1,0.6,0,0.9-0.1
	c0.6-0.1,1.2-0.2,1.8-0.3c0.5-0.1,0.9-0.2,1.4-0.1c0.1,0,0.1,0,0.2,0c0.8-0.2,1.6-0.2,2.3-0.3c0.5-0.1,1,0,1.5,0
	c1.1,0,2.2,0.1,3.3,0c0.6,0,1.1,0,1.7,0c0.3,0,0.7,0,1,0c0.4,0,0.8,0,1.1,0.1c0.4,0,0.7,0.1,1.1,0.1c0,0,0,0,0.1,0
	c0.5,0.1,0.9,0,1.4-0.2c0.1,0,0.1,0,0.2,0c0,0.1,0.1,0.1,0.1,0.2c0.6,0.2,1.1,0.3,1.7,0.3c0.4,0,0.8,0.1,1.2,0.2
	c1.1,0.3,2.2,0.6,3.2,1c0.6,0.2,1.1,0.4,1.7,0.5c0.2,0.1,0.5,0.2,0.7,0.3c0.1,0,0.2,0.1,0.3,0.1C50,3,50.5,3.2,50.9,3.4
	c0.3,0.1,0.6,0.3,0.8,0.6c-0.1,0.2-0.2,0.4-0.4,0.6c-0.3,0.1-0.5,0-0.7-0.1c-0.3-0.3-0.8-0.4-1.2-0.6c-0.1-0.1-0.2-0.1-0.3-0.1
	c-0.3-0.1-0.7-0.2-1-0.4c-0.3-0.1-0.5-0.2-0.8-0.3C46.8,3,46.4,2.9,46,2.8c-0.4-0.1-0.8-0.2-1.2-0.3c-0.6-0.1-1.3-0.3-1.9-0.4
	C42.6,2,42.3,2,41.9,1.9c-0.8-0.1-1.5-0.3-2.3-0.3C39.3,1.7,38.9,1.7,38.5,1.8z M45.7,2c0.1,0.1,0.1,0.1,0.2,0.1
	C45.8,2,45.7,2,45.7,2C45.6,2,45.6,2,45.7,2C45.6,2,45.6,2,45.7,2z M15.4,2.5c-0.6,0.1-1.2,0.3-1.8,0.5c-0.8,0.3-1.5,0.5-2.2,0.9
	c-0.1,0-0.1,0.1-0.2,0.1c-0.3,0.1-0.6,0.3-0.9,0.4c-0.3,0.2-0.7,0.3-1,0.6C8.8,5.2,8.4,5.5,8,5.9c0,0-0.1,0.1-0.1,0.1
	C7.6,6,7.4,6.3,7.2,6.5C6.8,7,6.5,7.5,6.2,8C5.9,8.4,5.6,8.9,5.4,9.4c-0.2,0.5-0.5,1-0.7,1.6c0,0-0.1,0-0.1,0c0-0.1,0-0.1,0-0.2
	c0-0.2,0.1-0.4,0.2-0.6c0.4-0.9,0.8-1.9,1.4-2.7c0.1-0.1,0.2-0.2,0.2-0.3c0,0,0-0.1,0-0.2C6.2,7,6.1,7.1,6.1,7.1
	C5.7,7.3,5.3,7.6,5,7.8c-0.5,0.3-1,0.7-1.6,1.1C3.3,9,3.2,9.1,3.1,9.2c-0.4,0.3-0.7,0.7-1,1.1c-0.2,0.3-0.5,0.6-0.7,0.9
	c-0.1,0.2-0.2,0.4-0.2,0.7c-0.1,0.4-0.1,0.7,0,1.1c0,0.2,0,0.5,0,0.7c0,0.6,0,1.2,0,1.8c0,0,0,0.1,0.1,0.1c0.1-0.1,0.3-0.2,0.4-0.3
	c0.3-0.5,0.8-1,1.1-1.6c0.1-0.1,0.1-0.2,0.2-0.3C3,13.2,3.1,13,3.2,12.9c0.3-0.4,0.5-0.7,0.8-1.1c0,0,0.1-0.1,0.1-0.1
	c0.3-0.3,0.7-0.5,1.2-0.7c0.4-0.1,0.8-0.3,1.2-0.6c0.4-0.2,0.8-0.5,1-0.9c0,0,0.1-0.1,0.1-0.1C8,9.1,8.4,8.8,8.8,8.6
	c0,0,0.1-0.1,0.2-0.1c0.5-0.2,1.1-0.3,1.6-0.3c0.3,0,0.5,0,0.8-0.1c0.4,0,0.7-0.1,1.1-0.1c0.6,0,1.3-0.1,1.9-0.1c0.2,0,0.4,0,0.6,0
	c0.4,0.1,0.7,0,1.1-0.1c0.4-0.1,0.9-0.2,1.3-0.3c0.1,0,0.2-0.1,0.3-0.1c0.6,0,1.1-0.2,1.7-0.2c0.1,0,0.1,0,0.2,0
	C20,7.1,20.5,7,21,6.9c0.1,0,0.1,0,0.2-0.1c0.6-0.3,1.2-0.5,1.8-0.8c0.3-0.1,0.6-0.3,0.9-0.5c0.5-0.3,1-0.6,1.5-0.8
	c0.1,0,0.1-0.1,0.2-0.1c0.2-0.1,0.3-0.2,0.4-0.3c0.3-0.4,0.6-0.7,0.9-1.1c0.5-0.6,1.1-1.1,1.8-1.6c0.1-0.1,0.2-0.1,0.2-0.2
	C29.6,1.3,30,1,30.5,0.8c0.1,0,0.2-0.1,0.2-0.3c-0.1,0-0.1,0-0.2-0.1c-0.5-0.1-0.9-0.1-1.4,0c-0.4,0-0.9,0.1-1.3,0.1
	c-0.7,0.1-1.4,0.2-2.1,0.3c-0.4,0.1-0.9,0.2-1.2,0.4c-1.3,0.6-2.5,1.3-3.5,2.3c-0.2,0.2-0.5,0.4-0.7,0.6c-0.6,0.6-1.2,1.1-1.6,1.8
	c-0.3,0.5-0.7,0.9-1.1,1.3c0,0-0.1,0-0.1,0c0,0-0.1-0.1-0.1-0.1c0-0.1,0-0.2,0.1-0.2c0.6-0.7,1.2-1.5,1.8-2.2
	c0.2-0.3,0.5-0.5,0.7-0.8c0.2-0.2,0.4-0.4,0.7-0.6c0.3-0.3,0.7-0.7,1.1-0.9c0.5-0.4,1.1-0.8,1.6-1.1c0,0,0.1,0,0.1-0.1
	c-0.2,0-0.4,0-0.6,0.1c-0.3,0.1-0.6,0.1-0.9,0.2c-0.1,0-0.3,0-0.4,0c-0.5,0-1,0.1-1.5,0.1c-0.2,0-0.3,0-0.5,0
	c-0.9,0.1-1.8,0.3-2.6,0.5c-0.4,0.1-0.8,0.2-1.1,0.5c-0.7,0.3-1.3,0.8-1.8,1.2c-0.5,0.4-1,0.9-1.5,1.4c-0.3,0.4-0.6,0.7-0.9,1.1
	c-0.2,0.2-0.4,0.4-0.6,0.7c-0.2,0.2-0.4,0.5-0.5,0.8c0,0-0.1,0-0.1,0.1c0-0.1,0-0.1,0-0.1c0.1-0.1,0.2-0.3,0.2-0.4
	c0.5-0.6,0.9-1.2,1.4-1.8c0.5-0.6,1.1-1.1,1.7-1.7c0.1-0.1,0.3-0.2,0.4-0.3c0.2-0.2,0.5-0.4,0.8-0.6C15.1,2.7,15.3,2.6,15.4,2.5z
	 M34,4.3c0.2-0.2,0.3-0.4,0.5-0.5c0.1-0.1,0.3-0.2,0.4-0.3c0.3-0.2,0.6-0.4,0.9-0.6C36,2.6,36.3,2.3,36.6,2c0.1-0.1,0.2-0.2,0.4-0.3
	c0.2-0.2,0.5-0.3,0.8-0.4c0.2,0,0.3-0.1,0.5-0.2c0.2-0.2,0.4-0.3,0.5-0.5c0,0,0,0,0-0.1c-0.5,0-1.1,0-1.6-0.1c0,0-0.1,0-0.1,0
	c-0.5,0-1.1,0-1.6,0c-0.2,0-0.4,0-0.6,0c-0.2,0-0.3,0-0.5,0c-0.6,0-1.2,0-1.8,0.1c-0.2,0-0.3,0-0.5,0.1C31.7,0.7,31.3,0.8,31,1
	c-0.3,0.2-0.7,0.3-1,0.5c-0.8,0.4-1.5,1-2.2,1.6c-0.1,0.1-0.1,0.1-0.2,0.2c-0.3,0.3-0.6,0.6-0.9,0.9c-0.1,0.1-0.2,0.2-0.3,0.3
	c0,0,0,0.1,0,0.1c0.1,0,0.2,0,0.3,0c0.5,0,1,0.1,1.5,0.1c0.6,0,1.3,0.1,1.9,0c0.1,0,0.3,0,0.4,0c0.2,0,0.4,0,0.6,0
	c0.2,0,0.5,0,0.7,0c0.1,0,0.2,0,0.4,0c0.2,0,0.5-0.1,0.7-0.1C33.3,4.6,33.7,4.4,34,4.3z M3.2,14.9c0.1,0,0.2,0,0.2,0
	c0.6-0.2,1.3-0.4,1.9-0.6c0.3-0.1,0.7-0.2,1-0.3c0.4-0.1,0.7-0.2,1.1-0.2C8,13.7,8.5,13.5,9,13.2c0.7-0.3,1.4-0.8,2-1.2
	c0.3-0.2,0.6-0.4,0.9-0.6c0.7-0.5,1.3-1,1.9-1.6c0.4-0.4,0.8-0.7,1.2-1c0,0,0-0.1,0-0.1c-0.3-0.1-0.6-0.1-0.9-0.1
	c-0.4,0-0.8,0-1.2,0c-0.2,0-0.4,0-0.6,0c-0.7,0-1.4,0.1-2.1,0.1c-0.6,0-1.1,0.2-1.5,0.7C8.7,9.4,8.6,9.5,8.6,9.6
	c-0.2,0.3-0.5,0.5-0.8,0.7c-0.7,0.4-1.3,0.9-2,1.3c-0.5,0.3-0.9,0.7-1.3,1.1c-0.3,0.4-0.6,0.9-0.9,1.3C3.5,14.3,3.3,14.5,3.2,14.9z
	 M39.6,1.2c0.1,0,0.2,0,0.3,0c1.1,0.1,2.2,0.2,3.2,0.5c0.4,0.1,0.8,0.2,1.2,0.3c0.1,0,0.2,0,0.2,0c0.1,0,0.2,0,0.3,0
	c-0.1-0.1-0.3-0.1-0.4-0.1c-0.5-0.2-0.9-0.3-1.4-0.5c-0.5-0.2-1.1-0.3-1.6-0.5c-0.1,0-0.2-0.1-0.3,0c-0.2,0-0.5,0-0.7,0
	C40,0.9,39.9,0.9,39.6,1.2z M46.6,2.6c0.5,0.2,1,0.3,1.5,0.5c0.5,0.2,1,0.4,1.4,0.5C50,3.8,50.5,4,51,4.2c0.1,0,0.2,0,0.1-0.2
	c-0.4-0.2-0.9-0.3-1.3-0.5c-0.2-0.1-0.5-0.2-0.7-0.3c-0.3-0.2-0.7-0.3-1-0.4c-0.4-0.1-0.8-0.2-1.2-0.3c0,0-0.1,0-0.1,0
	C46.7,2.5,46.7,2.5,46.6,2.6z"/>
<path class="st1" d="M25.8,4.7c-0.1,0-0.1,0.1-0.2,0.1C25,5,24.5,5.3,24,5.6c-0.3,0.2-0.6,0.3-0.9,0.5c-0.6,0.2-1.2,0.5-1.8,0.8
	c-0.1,0-0.1,0.1-0.2,0.1c-0.5,0.1-1,0.2-1.4,0.4c-0.1,0-0.1,0-0.2,0c-0.6,0-1.1,0.2-1.7,0.2c-0.1,0-0.2,0-0.3,0.1
	c-0.4,0.1-0.9,0.2-1.3,0.3C15.7,8,15.3,8.1,14.9,8c-0.2,0-0.4,0-0.6,0c-0.6,0-1.3,0-1.9,0.1c-0.4,0-0.7,0.1-1.1,0.1
	c-0.3,0-0.5,0-0.8,0.1C10,8.2,9.5,8.3,9,8.5c-0.1,0-0.1,0-0.2,0.1C8.4,8.8,8,9.1,7.7,9.4c0,0-0.1,0.1-0.1,0.1
	c-0.3,0.4-0.6,0.6-1,0.9c-0.4,0.2-0.8,0.4-1.2,0.6c-0.4,0.1-0.8,0.3-1.2,0.7c0,0-0.1,0.1-0.1,0.1c-0.3,0.4-0.5,0.7-0.8,1.1
	C3.1,13,3,13.2,2.9,13.4c-0.1,0.1-0.2,0.2-0.2,0.3c-0.3,0.6-0.7,1-1.1,1.6c-0.1,0.1-0.2,0.2-0.4,0.3c-0.1,0-0.1,0-0.1-0.1
	c0-0.6,0-1.2,0-1.8c0-0.2,0-0.5,0-0.7c0-0.4,0-0.7,0-1.1c0-0.2,0.1-0.5,0.2-0.7c0.2-0.3,0.4-0.6,0.7-0.9c0.3-0.4,0.6-0.8,1-1.1
	C3.2,9.1,3.3,9,3.4,8.9c0.5-0.4,1-0.7,1.6-1.1c0.4-0.2,0.7-0.5,1.1-0.7C6.1,7.1,6.2,7,6.3,7c0,0.1,0,0.1,0,0.2
	C6.3,7.3,6.2,7.4,6.1,7.5c-0.6,0.8-1,1.7-1.4,2.7c-0.1,0.2-0.1,0.4-0.2,0.6c0,0.1,0,0.1,0,0.2c0,0,0.1,0,0.1,0
	c0.2-0.5,0.4-1.1,0.7-1.6c0.2-0.5,0.5-1,0.8-1.4c0.3-0.5,0.6-1,1-1.4C7.4,6.3,7.6,6,7.9,5.9c0,0,0.1,0,0.1-0.1
	c0.4-0.4,0.8-0.6,1.2-0.9c0.3-0.2,0.6-0.4,1-0.6c0.3-0.1,0.6-0.3,0.9-0.4c0.1,0,0.2,0,0.2-0.1C12,3.5,12.8,3.2,13.6,3
	c0.6-0.2,1.2-0.4,1.8-0.5c-0.1,0.1-0.3,0.2-0.4,0.3c-0.3,0.1-0.5,0.3-0.8,0.6c-0.1,0.1-0.3,0.2-0.4,0.3c-0.6,0.5-1.1,1.1-1.7,1.7
	c-0.5,0.6-1,1.2-1.4,1.8c-0.1,0.1-0.2,0.3-0.2,0.4c0,0,0,0.1,0,0.1c0.1,0,0.1,0,0.1-0.1c0.2-0.3,0.3-0.5,0.5-0.8
	c0.2-0.2,0.4-0.4,0.6-0.7c0.3-0.4,0.6-0.7,0.9-1.1c0.4-0.5,1-0.9,1.5-1.4c0.6-0.5,1.1-0.9,1.8-1.2c0.3-0.3,0.7-0.4,1.1-0.5
	c0.9-0.2,1.7-0.4,2.6-0.5c0.2,0,0.3,0,0.5,0c0.5,0,1-0.1,1.5-0.1c0.1,0,0.3,0,0.4,0c0.3,0,0.6-0.1,0.9-0.2c0.2-0.1,0.4-0.1,0.6-0.1
	c0,0.1-0.1,0.1-0.1,0.1c-0.6,0.3-1.1,0.7-1.6,1.1c-0.4,0.3-0.7,0.6-1.1,0.9c-0.2,0.2-0.4,0.4-0.7,0.6c-0.3,0.2-0.5,0.5-0.7,0.8
	c-0.6,0.7-1.2,1.5-1.8,2.2c0,0.1-0.1,0.1-0.1,0.2c0,0,0,0.1,0.1,0.1c0,0,0.1,0,0.1,0c0.4-0.4,0.7-0.8,1.1-1.3
	c0.5-0.7,1.1-1.2,1.6-1.8c0.2-0.2,0.5-0.4,0.7-0.6c1.1-0.9,2.2-1.7,3.5-2.3c0.4-0.2,0.8-0.3,1.2-0.4c0.7-0.1,1.4-0.2,2.1-0.3
	c0.4,0,0.9-0.1,1.3-0.1c0.5,0,0.9,0,1.4,0c0.1,0,0.1,0,0.2,0.1c0,0.2-0.1,0.2-0.2,0.3C30,1,29.6,1.3,29.1,1.5
	c-0.1,0-0.2,0.1-0.2,0.2c-0.6,0.5-1.2,1-1.8,1.6c-0.3,0.4-0.6,0.7-0.9,1.1C26.1,4.5,25.9,4.7,25.8,4.7z M37.1,0.5
	c-0.5,0-1.1,0-1.6,0c-0.2,0-0.4,0-0.6,0c-0.2,0-0.3,0-0.5,0c-0.6,0-1.2,0-1.8,0.1c-0.2,0-0.3,0-0.5,0.1C31.7,0.7,31.3,0.8,31,1
	c-0.3,0.2-0.7,0.3-1,0.5c-0.8,0.4-1.5,1-2.2,1.6c-0.1,0.1-0.1,0.1-0.2,0.2c-0.3,0.3-0.6,0.6-0.9,0.9c-0.1,0.1-0.2,0.2-0.3,0.3
	c0,0,0,0.1,0,0.1c0.1,0,0.2,0,0.3,0c0.5,0,1,0.1,1.5,0.1c0.6,0,1.3,0.1,1.9,0c0.1,0,0.3,0,0.4,0c0.2,0,0.4,0,0.6,0
	c0.2,0,0.5,0,0.7,0c0.1,0,0.2,0,0.4,0c0.2,0,0.5-0.1,0.7-0.1c0.4-0.1,0.7-0.2,1-0.4c0.2-0.2,0.3-0.4,0.5-0.5
	c0.1-0.1,0.3-0.2,0.4-0.3c0.3-0.2,0.6-0.4,0.9-0.6C36,2.6,36.3,2.3,36.6,2c0.1-0.1,0.2-0.2,0.4-0.3c0.2-0.2,0.5-0.3,0.8-0.4
	c0.2,0,0.3-0.1,0.5-0.2c0.2-0.2,0.4-0.3,0.5-0.5c0,0,0,0,0-0.1c-0.5,0-1.1,0-1.6-0.1C37.1,0.5,37.1,0.5,37.1,0.5z M13,8.6
	c-0.2,0-0.4,0-0.6,0c-0.7,0-1.4,0.1-2.1,0.1c-0.6,0-1.1,0.2-1.5,0.7C8.7,9.4,8.6,9.5,8.6,9.6c-0.2,0.3-0.5,0.5-0.8,0.7
	c-0.7,0.4-1.3,0.9-2,1.3c-0.5,0.3-0.9,0.7-1.3,1.1c-0.3,0.4-0.6,0.9-0.9,1.3c-0.2,0.2-0.3,0.5-0.4,0.8c0.1,0,0.2,0,0.2,0
	c0.6-0.2,1.3-0.4,1.9-0.6c0.3-0.1,0.7-0.2,1-0.3c0.4-0.1,0.7-0.2,1.1-0.2C8,13.7,8.5,13.5,9,13.2c0.7-0.3,1.4-0.8,2-1.2
	c0.3-0.2,0.6-0.4,0.9-0.6c0.7-0.5,1.3-1,1.9-1.6c0.4-0.4,0.8-0.7,1.2-1c0,0,0-0.1,0-0.1c-0.3-0.1-0.6-0.1-0.9-0.1
	C13.8,8.6,13.4,8.6,13,8.6z M40.3,0.9c-0.2,0-0.4,0.1-0.7,0.3c0.1,0,0.2,0,0.3,0c1.1,0.1,2.2,0.2,3.2,0.5c0.4,0.1,0.8,0.2,1.2,0.3
	c0.1,0,0.2,0,0.2,0c0.1,0,0.2,0,0.3,0c-0.1-0.1-0.3-0.1-0.4-0.1c-0.5-0.2-0.9-0.3-1.4-0.5c-0.5-0.2-1.1-0.3-1.6-0.5
	c-0.1,0-0.2-0.1-0.3,0C40.8,0.9,40.5,0.9,40.3,0.9z M46.6,2.6c0.5,0.2,1,0.3,1.5,0.5c0.5,0.2,1,0.4,1.4,0.5C50,3.8,50.5,4,51,4.2
	c0.1,0,0.2,0,0.1-0.2c-0.4-0.2-0.9-0.3-1.3-0.5c-0.2-0.1-0.5-0.2-0.7-0.3c-0.3-0.2-0.7-0.3-1-0.4c-0.4-0.1-0.8-0.2-1.2-0.3
	c0,0-0.1,0-0.1,0C46.7,2.5,46.7,2.5,46.6,2.6z M45.7,2C45.7,2,45.7,2,45.7,2c0,0-0.1,0-0.1-0.1C45.6,2,45.6,2,45.7,2
	C45.7,2,45.7,2,45.7,2z M45.9,2.1C45.8,2,45.8,2,45.7,2C45.7,2,45.8,2.1,45.9,2.1z"/>
</svg>
