<?xml version="1.0" encoding="utf-8"?>
<!-- Generator: Adobe Illustrator 22.1.0, SVG Export Plug-In . SVG Version: 6.00 Build 0)  -->
<svg version="1.1" id="Layer_8" xmlns="http://www.w3.org/2000/svg" xmlns:xlink="http://www.w3.org/1999/xlink" x="0px" y="0px"
	 viewBox="0 0 68.4 26.5" style="enable-background:new 0 0 68.4 26.5;" xml:space="preserve">
<path class="fill-gold" d="M1.1,23.4c-0.3,0.1-0.5,0-0.7-0.2c-0.2-0.2-0.3-0.5-0.4-0.7c0-0.1,0-0.2,0.1-0.2c0.3-0.4,0.5-0.7,0.9-1
	c0.5-0.4,1-0.8,1.5-1.2c0.3-0.3,0.7-0.5,1-0.8c0.2-0.1,0.4-0.3,0.6-0.4c0.6-0.3,1-0.7,1.6-1c0.5-0.3,1.1-0.6,1.6-1
	c0.6-0.4,1.3-0.9,1.9-1.3c0.2-0.2,0.3-0.4,0.4-0.7c0.1-0.3,0.1-0.7,0-1c-0.2-0.9-0.1-1.7,0.1-2.6c0-0.2,0.1-0.3,0.2-0.5
	c0.2-0.3,0.3-0.6,0.4-0.8c0.2-0.4,0.4-0.8,0.6-1.1c0.3-0.5,0.7-0.9,1.3-1.2c0.7-0.3,1.4-0.6,2.2-0.9c0.6-0.2,1.2-0.5,1.7-0.9
	c0.2-0.2,0.5-0.4,0.7-0.6c0.7-0.6,1.4-1.2,2.1-1.8c0.5-0.4,1-0.8,1.6-1.2c0.3-0.2,0.5-0.4,0.8-0.5c0.4-0.3,0.9-0.6,1.4-0.9
	c0.5-0.3,1.1-0.6,1.7-0.6c0.2,0,0.4-0.1,0.6-0.1c0.4-0.1,0.8,0,1.1,0.3c0.1,0.1,0.3,0.2,0.4,0.3c0.2,0.2,0.5,0.4,0.9,0.5
	c0.6,0.2,1.1,0.5,1.7,0.7c0.6,0.3,1.2,0.6,1.9,0.8c0.1,0,0.2,0.1,0.3,0.1c0.3,0,0.5,0.1,0.8,0.2c0.3,0.1,0.7,0.3,1,0.3
	c0.3,0.1,0.6,0.2,1,0.2c0.5,0.1,1.1,0.2,1.6,0.2c0.4,0.1,0.8,0.1,1.1,0.2c0.1,0,0.1,0,0.2,0c1,0.1,1.9,0.2,2.9,0.2c1,0,2,0,2.9,0.1
	c0.3,0,0.6,0.1,0.9,0c0.1,0,0.1,0,0.2,0c1.2,0.1,2.4,0,3.6-0.1c0.5,0,1-0.1,1.5-0.1c0.8-0.1,1.6-0.2,2.3-0.3c0.4-0.1,0.8-0.1,1.1,0
	c0.2,0,0.4,0,0.6,0c0.6,0,1.1,0.1,1.6,0.3c0.2,0.1,0.4,0.2,0.7,0.3c0.2,0.1,0.4,0.2,0.6,0.4c0.3,0.3,0.6,0.6,0.9,0.8
	c0.1,0,0.1,0.1,0.2,0.2c0.7,0.7,1.4,1.4,1.9,2.2c0.4,0.6,0.9,1,1.3,1.5c0.4,0.5,0.9,0.9,1.3,1.3c0.3,0.3,0.7,0.5,1.1,0.7
	c0.4,0.2,0.7,0.4,1.1,0.6c0.7,0.3,1.5,0.6,2.3,0.7c0.4,0,0.7,0.1,1.1,0.2c0.1,0,0.1,0,0.2,0.1c0.3,0.2,0.6,0.3,0.9,0.5
	c0.1,0.2,0.3,0.4,0.1,0.7c-0.2,0-0.4-0.1-0.6-0.1c-0.2,0-0.4-0.1-0.6-0.1c-0.2,0-0.4-0.1-0.6-0.1c-0.1,0-0.3-0.1-0.4-0.1
	c-0.3-0.1-0.7-0.1-1,0c-0.2,0.1-0.4,0.1-0.6,0.1c-0.6,0.1-1.2,0.3-1.8,0.6c-0.3,0.1-0.5,0.3-0.7,0.5c-0.3,0.2-0.5,0.4-0.8,0.5
	c-0.2,0.2-0.5,0.4-0.7,0.6c-0.7,0.5-1.3,1.1-1.8,1.7c-0.4,0.4-0.9,0.8-1.3,1.2c0,0.1-0.1,0.1-0.2,0.1c-0.4,0.1-0.6,0.5-1,0.6
	c-0.1,0-0.1,0.1-0.2,0.1c-0.2,0.2-0.5,0.4-0.8,0.5c-0.3,0.1-0.5,0.3-0.8,0.4c-0.5,0.3-1,0.5-1.5,0.8c-0.8,0.5-1.6,0.8-2.5,1.2
	c-0.7,0.3-1.5,0.5-2.2,0.8c-0.3,0.1-0.7,0.2-1,0.3c-0.2,0.1-0.5,0.1-0.7,0.2c-0.8,0.1-1.5,0.3-2.3,0.4c-1.1,0.2-2.2,0.2-3.4,0.3
	c-0.3,0-0.6,0.1-0.9,0.1c-0.8,0-1.7,0-2.5-0.2c-0.8-0.2-0.9-0.2-1.7,0c-1.1,0.2-2.1,0.6-3,1.1c-0.4,0.2-0.7,0.3-1.1,0.4
	c-0.6,0.1-1.3,0.3-1.9,0.2c-0.2,0-0.4-0.1-0.6-0.1c-0.2,0-0.4-0.1-0.6-0.1c-0.6,0-1.2-0.2-1.7-0.6c-0.2-0.2-0.5-0.3-0.7-0.5
	c0,0-0.1,0-0.1-0.1c-0.3-0.4-0.8-0.6-1.2-0.9c-0.6-0.4-1-0.9-1.4-1.5c-0.1-0.2-0.2-0.5-0.3-0.8c-0.1-0.4-0.2-0.9-0.3-1.3
	c0-0.1-0.1-0.2-0.1-0.3c-0.3-0.6-0.6-1.3-0.9-1.8c-0.5-0.5-1.1-0.6-1.7-0.6c-0.2,0-0.4,0-0.6,0c-0.1,0-0.3,0-0.4,0
	c-0.3,0.2-0.7,0.1-1.1,0.1c-0.4,0-0.7-0.1-1-0.3c-0.9-0.4-1.9-0.6-3-0.9c-0.7,0-1.3-0.1-2,0c-0.2,0-0.3,0-0.5,0
	c-0.2,0-0.3,0-0.5,0.1c-0.2,0.1-0.5,0.2-0.7,0.2c-0.1,0-0.2,0.1-0.3,0.1c-0.5,0.3-1,0.5-1.5,0.8c-0.2,0.1-0.4,0.2-0.6,0.3
	c-0.5,0.4-1.1,0.7-1.7,1c-0.1,0-0.2,0.1-0.2,0.1c-0.8,0.6-1.6,1-2.4,1.6c-0.6,0.3-1,0.8-1.5,1.2C1.9,22.7,1.5,23,1.1,23.4z
	 M35.9,10.8C35.8,10.8,35.8,10.8,35.9,10.8c-0.1-0.1-0.1-0.1-0.2-0.1C35.8,10.8,35.8,10.8,35.9,10.8c0.1,0,0.1,0,0.2,0
	c0,0,0.1,0,0.1,0c0-0.1,0-0.1-0.1-0.1C36,10.8,35.9,10.8,35.9,10.8z M63.5,12.5c0,0,0.1,0.1,0.1,0.1c0,0,0,0,0,0
	C63.6,12.5,63.5,12.5,63.5,12.5c0-0.1-0.1-0.1-0.2-0.2c-0.4-0.2-0.8-0.4-1.1-0.6c-0.3-0.2-0.6-0.3-0.8-0.6c-0.4-0.3-0.7-0.6-1-1
	c-0.3-0.3-0.5-0.6-0.8-0.8C59.4,9.2,59.2,9,59,8.9c-0.1,0.1-0.2,0.2-0.3,0.2c-0.3,0.2-0.5,0.4-0.8,0.6c-0.9,0.5-1.8,1-2.8,1.4
	c-0.3,0.1-0.6,0.3-0.9,0.4c-0.6,0.2-1.1,0.3-1.6,0.5c-0.2,0.1-0.3,0.1-0.5,0.1c-0.8,0.1-1.5,0.3-2.3,0.3c-0.1,0-0.2,0-0.4,0.1
	c0,0,0,0.1-0.1,0.1c0.1,0.1,0.2,0.1,0.3,0.1c0.7,0.1,1.5,0.1,2.2,0.2c0.3,0,0.6,0,0.9,0.2c0.5,0,0.9-0.1,1.3-0.1
	c0.7,0,1.5-0.1,2.2,0.1c0.2,0,0.4,0,0.6,0c0.6,0,1.2-0.1,1.8-0.2c0.6-0.1,1.3-0.1,1.9-0.1c0.2,0,0.4,0,0.6,0c0.4-0.1,0.9-0.1,1.3,0
	C62.9,12.6,63.2,12.6,63.5,12.5z M36.4,5.5L36.4,5.5c0-0.1,0-0.1,0.1-0.2c0.3-0.2,0.5-0.4,0.8-0.6c0.1-0.1,0.1-0.1,0.1-0.2
	c-0.5-0.1-1.1-0.2-1.6-0.3C35.4,4.1,35,4.1,34.6,4c-0.4-0.1-0.8-0.1-1.2-0.3c-0.4-0.1-0.8-0.1-1.2-0.3c-0.2-0.1-0.4-0.1-0.5-0.2
	c-0.1,0-0.2-0.1-0.3-0.1c-0.7-0.2-1.5-0.4-2.2-0.7c-0.6-0.3-1.2-0.5-1.8-0.7c-0.1,0-0.1,0-0.1,0.1c0,0.1,0.1,0.1,0.2,0.2
	c0.1,0.1,0.2,0.2,0.4,0.3c0.4,0.3,0.8,0.6,1.1,1c0.2,0.2,0.5,0.4,0.8,0.6c0.7,0.4,1.3,0.7,2.1,1c0.7,0.2,1.4,0.4,2.1,0.7
	C35,5.9,36.1,6,37.2,6.1c0.6,0.1,1.2,0.1,1.9,0.1c0.5,0,1,0,1.4,0.1c1,0.1,1.9,0,2.9,0c1.1,0,2.2-0.3,3.3-0.6c0.1,0,0.1-0.1,0.2-0.1
	c0.5-0.2,0.9-0.4,1.4-0.5c0.2-0.1,0.4-0.1,0.6-0.2c0.1,0,0.1-0.1,0.2-0.2c-0.7,0-1.4,0.1-2.1,0.1c-1.3,0.1-2.6,0.1-3.9,0
	c-1.4-0.1-2.8-0.1-4.2-0.2c-0.4,0-0.8,0.1-1.2,0.4C37.3,5.2,36.9,5.4,36.4,5.5z M39.4,23.6c-0.2,0-0.3-0.2-0.5-0.3
	c-0.7-0.6-1.4-1.3-2.1-1.9c-0.1-0.1-0.2-0.2-0.3-0.3c-0.6-0.4-1.1-0.9-1.6-1.3c-0.2-0.2-0.4-0.4-0.6-0.5c-0.7-0.4-1.3-1-2-1.4
	c-0.7-0.5-1.4-1-2.2-1.4c-0.2-0.1-0.3-0.2-0.5-0.3c-0.5-0.3-1-0.6-1.6-0.9c-0.5-0.3-1.1-0.5-1.6-0.7c-0.6-0.3-1.1-0.5-1.7-0.7
	c-0.8-0.3-1.6-0.5-2.5-0.5c-0.2,0-0.3,0-0.5-0.1c-0.5-0.1-1,0-1.6,0c-0.4,0.1-0.8,0.1-1.1,0.2c-0.4,0.1-0.8,0.1-1.2,0.2
	c-0.4,0.1-0.9,0.3-1.3,0.5c-0.1,0-0.1,0.1-0.2,0.2c0,0,0,0.1,0.1,0.1c0.5,0.1,1,0.2,1.5,0.2c0.2,0,0.4,0.1,0.6,0.1
	c0.2,0,0.4,0.1,0.6,0.1c1.4,0.2,2.6,0.7,3.9,1.2c0,0,0,0,0.1,0c0.9,0.5,1.7,1,2.6,1.6c0.1,0.1,0.3,0.2,0.4,0.3
	c0.3,0.4,0.6,0.8,0.7,1.2c0,0.4-0.1,0.8-0.1,1.2c0,0.5-0.1,1-0.2,1.4c-0.2,0.5-0.2,0.9-0.1,1.4c0.1,0.5,0.3,0.8,0.7,1.1
	c0.6,0.3,1.1,0.6,1.7,0.7c0.1,0,0.3,0.1,0.4,0.1c0.1,0,0.2,0.1,0.4,0.1c0.5,0,1,0.1,1.6,0.1c0.5,0,0.9-0.1,1.4-0.1
	c0.1,0,0.2,0,0.3-0.1c0.2-0.2,0.5-0.1,0.7-0.3c0.2-0.1,0.5-0.2,0.7-0.3c0.3-0.2,0.7-0.3,1.1-0.4c0.3-0.1,0.6-0.1,0.8,0
	c0.3,0.1,0.6,0.1,0.9,0.1c0.2,0,0.5,0,0.7,0c0.4,0.1,0.7,0.2,1.1,0.2c0.7,0,1.4,0.1,2.1,0c0.1,0,0.2,0,0.3,0c0.5,0,1,0,1.4-0.1
	c0.1,0,0.1,0,0.2,0c0.8,0,1.7-0.2,2.5-0.2c0,0,0,0,0.1,0c0.5-0.1,1-0.2,1.5-0.3c0.1,0,0.3-0.1,0.4-0.1c0.6-0.3,1.2-0.5,1.8-0.7
	c0,0,0.1-0.1,0.1-0.1c0,0-0.1-0.1-0.1-0.1c-0.2-0.2-0.5-0.4-0.7-0.6c-0.3-0.3-0.6-0.6-0.9-0.8c-0.2-0.1-0.3-0.3-0.5-0.4
	c-0.6-0.6-1.2-1.2-1.9-1.7c-0.4-0.3-0.7-0.6-1.1-0.8c-0.5-0.4-0.9-0.7-1.4-1c-0.2-0.1-0.5-0.3-0.7-0.5c-0.9-0.7-1.9-1.3-2.8-1.9
	c-1.1-0.7-2.2-1.2-3.3-1.8c-1.1-0.5-2.2-1-3.3-1.4c-0.7-0.2-1.5-0.4-2.2-0.5c-0.3,0-0.6-0.1-0.8-0.1c-0.3-0.1-0.6-0.1-0.9-0.1
	c-0.5,0-0.9,0.1-1.4,0.1c-1,0.1-2,0.3-2.9,0.7c-0.1,0-0.2,0.1-0.3,0.1c-0.4,0.1-0.8,0.1-1.1,0.2c-0.3,0-0.6,0.1-0.9,0.3
	c-0.1,0.1-0.3,0.1-0.4,0.2c-0.2,0.1-0.4,0.1-0.5,0.2c0,0,0,0.1-0.1,0.1c0,0,0,0,0.1,0c0.1,0,0.2,0,0.4,0c1,0,1.9,0.2,2.9,0.4
	c0.9,0.3,1.8,0.6,2.7,0.9c0.8,0.3,1.5,0.6,2.2,1c0.4,0.2,0.8,0.4,1.1,0.6c1.1,0.6,2.1,1.3,3,2c0.5,0.4,0.9,0.7,1.4,1.1
	c0.9,0.8,1.9,1.6,2.8,2.5c0.2,0.2,0.4,0.4,0.6,0.6c0.5,0.4,0.9,0.8,1.4,1.3c0.1,0.1,0.1,0.1,0.2,0.2C39.4,23.5,39.4,23.5,39.4,23.6z
	 M25.6,1.4c-0.3-0.1-0.6-0.2-0.9-0.2c-0.2,0-0.4,0-0.6-0.1c-0.4-0.1-0.7,0-1,0.1c-0.4,0.2-0.9,0.4-1.3,0.7c-0.1,0-0.1,0.1-0.2,0.1
	c-0.3,0.2-0.6,0.4-1,0.6c-0.2,0.1-0.3,0.2-0.5,0.3c-0.2,0.1-0.3,0.3-0.5,0.4c-0.5,0.4-1.1,0.9-1.6,1.3c-0.6,0.5-1.2,1-1.8,1.4
	c-0.4,0.3-0.9,0.6-1.4,0.9c-0.7,0.4-1.4,0.6-2.1,0.9c-0.6,0.3-1.2,0.6-1.5,1.2c-0.2,0.4-0.4,0.9-0.6,1.3c-0.2,0.4-0.3,0.8-0.4,1.2
	c-0.1,0.6-0.1,1.1-0.1,1.7c0,0.5,0.1,1,0,1.4c0,0,0,0.1,0.1,0.1c0,0,0,0,0.1,0c0.2-0.1,0.3-0.1,0.5-0.2c0.4-0.3,0.9-0.5,1.3-0.7
	c0.3-0.1,0.5-0.2,0.8-0.4c0.2-0.1,0.4-0.2,0.6-0.3c0.2-0.2,0.5-0.3,0.8-0.4c0.1,0,0.3-0.1,0.4-0.1c0.5-0.2,1-0.4,1.4-0.7
	c0.5-0.2,0.9-0.5,1.4-0.8c0.3-0.2,0.6-0.4,0.9-0.7c0.4-0.4,0.8-0.8,1.3-1.2c0.9-0.9,1.8-1.7,2.7-2.6c0.6-0.6,1.1-1.3,1.5-2
	c0.3-0.6,0.7-1.2,1-1.7c0.2-0.3,0.4-0.5,0.6-0.8c0.1,0,0.2,0,0.2,0.1c0,0.1,0,0.1-0.1,0.2c-0.5,0.7-0.9,1.4-1.2,2.1
	c-0.5,1-1.2,1.9-2,2.7c-1.1,1.1-2.2,2.1-3.3,3.3c-0.2,0.2-0.4,0.3-0.6,0.5c-0.1,0.1-0.3,0.2-0.4,0.3c0,0-0.1,0.1,0,0.2
	c0.3-0.1,0.6-0.2,0.9-0.3c0.3-0.1,0.6-0.2,1-0.3c0.7-0.2,1.5-0.4,2.2-0.6c0.7-0.2,1.3-0.3,2-0.4c0.6-0.1,1.3-0.2,1.9-0.3
	c0.1,0,0.3-0.1,0.4-0.1c1-0.4,2.1-0.6,3.2-0.8C30,9,30.4,9,30.7,8.9c0.6-0.2,1.2-0.3,1.8-0.6C33.3,8,34,7.6,34.8,7.1
	c0,0,0-0.1,0-0.2c-0.2-0.1-0.4-0.2-0.7-0.2c-0.5-0.1-0.9-0.3-1.4-0.3c-0.4-0.2-0.8-0.2-1.2-0.3c-0.2,0-0.4-0.1-0.5-0.2
	c-0.2-0.1-0.4-0.3-0.6-0.3c-0.3-0.1-0.6-0.2-0.8-0.4c-0.2-0.1-0.3-0.2-0.4-0.2c-0.3-0.3-0.5-0.6-0.8-0.7c-0.5-0.3-0.9-0.7-1.3-1.2
	C26.6,2.6,26.1,2,25.6,1.4z M55.1,19.8c0-0.2-0.1-0.3-0.2-0.4c-0.2-0.2-0.5-0.3-0.7-0.5c-0.4-0.3-0.8-0.7-1.2-0.9
	c-0.8-0.6-1.7-1.2-2.5-1.8c-0.4-0.3-0.8-0.5-1.2-0.8c-0.2-0.1-0.3-0.2-0.5-0.3c-0.7-0.4-1.4-0.9-2.1-1.3c-0.1-0.1-0.2-0.1-0.3-0.2
	c-0.8-0.4-1.7-0.7-2.5-1.1c-0.1,0-0.1-0.1-0.2-0.1c-0.9-0.4-1.9-0.5-2.8-0.8c-0.1,0-0.1,0-0.2,0c-1-0.1-2-0.2-2.9-0.4
	c-0.2,0-0.4,0-0.6-0.1c-0.4,0-0.8-0.1-1.1-0.1c-0.3,0-0.6-0.1-0.9-0.1c-0.6,0-1.2-0.1-1.8-0.1c-0.6-0.1-1.2,0-1.8-0.1
	c-0.1,0-0.1,0-0.1,0.1c0.8,0.2,1.6,0.5,2.4,0.8c0.1,0,0.2,0.1,0.3,0.1c1.1,0.5,2.2,1.1,3.3,1.6c0.4,0.2,0.8,0.4,1.1,0.6
	c0.8,0.5,1.6,1,2.4,1.5c0.7,0.5,1.4,1,2.1,1.4c0.4,0.3,0.7,0.5,1.1,0.8c1.5,1.3,3,2.6,4.4,4c0.2,0.2,0.4,0.4,0.6,0.6
	c0,0,0.1,0,0.1,0.1c0.5-0.3,1-0.5,1.5-0.7c1.3-0.5,2.6-1.1,3.8-1.7C54.7,20,54.9,19.9,55.1,19.8z M40.3,10.9
	C40.3,10.9,40.4,10.9,40.3,10.9c1.3,0.4,2.6,0.6,3.9,0.8c0.4,0,0.7,0.1,1.1,0.2c0.2,0.1,0.4,0.1,0.6,0.1c0.5,0,1,0,1.4,0
	c0.5-0.1,1,0.1,1.4,0c0.1,0,0.2,0,0.4,0c1-0.1,2-0.2,3.1-0.4c0.4-0.1,0.7-0.2,1.1-0.3c0.9-0.2,1.7-0.6,2.5-0.9
	c0.2-0.1,0.3-0.1,0.4-0.2c0.2-0.1,0.5-0.2,0.7-0.4c0.5-0.2,1-0.4,1.4-0.7c0.1-0.1,0.3-0.2,0.4-0.2c0.1,0,0.2-0.1,0.2-0.2
	c-0.3-0.4-0.6-0.8-1-1.2c-0.1-0.1-0.1-0.2-0.2-0.2c-0.2-0.1-0.2-0.2-0.4-0.3c-0.2-0.2-0.3-0.5-0.6-0.7C56.4,6,56.2,5.9,56,5.7
	c-0.2-0.2-0.5-0.4-0.8-0.5c-0.3-0.1-0.6-0.1-0.9-0.2c-0.1,0-0.3,0-0.4,0c-0.5,0-1,0.1-1.6,0.1c-0.7,0-1.5,0.2-2.2,0.4
	c-0.8,0.3-1.5,0.6-2.3,0.8c-0.4,0.1-0.7,0.3-0.8,0.7c0,0.1-0.1,0.2-0.1,0.2c-0.2,0.4-0.4,0.6-0.7,0.9c-0.2,0.2-0.4,0.3-0.6,0.5
	C45,9,44.4,9.3,43.7,9.6c-0.2,0.1-0.3,0.2-0.5,0.2c-0.4,0.1-0.7,0.3-1.1,0.4c-0.5,0.2-1.1,0.4-1.7,0.5
	C40.4,10.8,40.3,10.8,40.3,10.9z M44,12.3c0.2,0.1,0.3,0.2,0.4,0.2c0.4,0.2,0.8,0.3,1.2,0.5c0.4,0.2,0.9,0.4,1.3,0.6
	c1,0.5,1.9,1.1,2.8,1.7c0.2,0.1,0.4,0.2,0.5,0.4c0.7,0.5,1.4,1,2.2,1.5c0.4,0.2,0.7,0.5,1.1,0.8c0.6,0.4,1.1,0.9,1.7,1.4
	c0.1,0.1,0.2,0.2,0.4,0.1c0.1-0.1,0.2-0.2,0.4-0.2c0.9-0.6,1.7-1.3,2.5-2.1c0.3-0.3,0.7-0.7,1-1c0.1-0.1,0.1-0.2,0.1-0.2
	c-0.2-0.2-0.4-0.2-0.6-0.3c-0.2-0.1-0.4-0.1-0.6-0.2c-0.7-0.3-1.3-0.6-2-0.8c-0.1,0-0.2-0.1-0.3-0.1c-1-0.4-2-0.7-3-0.9
	c-0.5-0.1-1-0.3-1.5-0.3c-0.1,0-0.1,0-0.2,0c-0.4-0.1-0.8-0.1-1.2-0.1c-0.2,0-0.5,0-0.7-0.1c-0.6-0.1-1.2-0.2-1.8-0.3
	c-0.9-0.2-1.8-0.3-2.8-0.5C44.5,12.2,44.3,12.1,44,12.3z M28.1,10c0.8-0.2,1.5-0.1,2.2-0.2c0.5,0,1.1-0.1,1.6,0
	c0.8,0.1,1.7,0.2,2.5,0.3c0.5,0.1,1,0.1,1.6,0.2c0.2,0,0.3,0,0.5,0c0.5,0.1,1.1,0.2,1.6,0.2c0.4,0.1,0.8,0,1.2,0
	c0.7-0.1,1.4-0.2,2.1-0.4c0.2-0.1,0.4-0.2,0.7-0.3c0.7-0.3,1.4-0.6,2.1-0.9c0.4-0.2,0.8-0.4,1.2-0.7c0.2-0.1,0.3-0.3,0.5-0.4
	c0.4-0.3,0.7-0.6,0.8-1c0,0,0-0.1,0-0.1c-0.1,0-0.2,0-0.3,0c-0.2,0-0.4,0-0.6,0.1c-0.4,0.1-0.8,0.2-1.3,0.2c-0.2,0-0.4,0.1-0.6,0.1
	c-0.6,0.1-1.3,0.3-1.9,0.3c-0.2,0-0.4,0-0.6,0.1c-0.2,0.1-0.5,0.1-0.7,0c-0.4,0-0.8,0-1.1,0.1c-0.1,0-0.2,0-0.4,0
	c-0.6,0.1-1.1-0.1-1.7,0c0,0-0.1,0-0.1,0c-0.7-0.2-1.3-0.1-1.9-0.3c-0.3,0.1-0.5,0.2-0.6,0.4c0,0.1-0.1,0.1-0.2,0.1
	c-0.5,0.3-0.9,0.5-1.4,0.8C32.8,8.7,32.4,8.8,32,9c-0.8,0.3-1.6,0.5-2.4,0.6C29.1,9.6,28.7,9.7,28.1,10z M25.8,23.5
	c0-0.1,0-0.2,0-0.2c-0.1-0.4-0.1-0.9,0.1-1.3c0.1-0.3,0.2-0.6,0.2-1c0-0.4,0-0.7,0.1-1.1c0.1-0.4,0-0.8-0.3-1.1c0,0,0-0.1-0.1-0.1
	c-0.2-0.4-0.5-0.7-0.9-0.9c-0.2-0.1-0.5-0.3-0.7-0.4c-0.4-0.3-0.8-0.5-1.2-0.7c-0.4-0.2-0.8-0.4-1.2-0.5c-0.7-0.2-1.4-0.5-2.2-0.7
	c-0.6-0.1-1.2-0.3-1.7-0.4c-0.1,0-0.2,0-0.4,0c-0.2,0-0.3,0-0.5-0.1c-0.6-0.1-1.2-0.1-1.8-0.1c-0.1,0-0.2,0-0.3,0
	c-0.5,0.2-0.9,0.4-1.4,0.6c-0.1,0-0.1,0.1-0.2,0.2c0.6-0.1,1.2,0,1.8,0.1c0.3,0,0.5,0.1,0.8,0.2c0.2,0.1,0.3,0.2,0.4,0.2
	c0.7,0.4,1.5,0.7,2.4,0.7c0.1,0,0.2,0,0.4,0c0.5,0.1,0.9,0.1,1.3,0.2c0.3,0,0.5,0.1,0.8,0.1c0.4,0,0.8,0.1,1.1,0.4
	c0.1,0.1,0.2,0.2,0.4,0.2c0.4,0.2,0.7,0.5,0.8,1c0.1,0.3,0.1,0.6,0.1,0.9c0,0.1,0,0.2,0,0.4c0.1,0.4,0.2,0.8,0.4,1.2
	c0.1,0.3,0.3,0.7,0.4,1C24.8,22.7,25.1,23.2,25.8,23.5z M33.5,10.5c0,0-0.1-0.1-0.1-0.1c-0.7-0.1-1.4-0.2-2.1-0.1
	c-0.2,0-0.4,0-0.6,0c-0.5-0.1-1-0.1-1.4,0c-0.5,0-1,0.1-1.5,0.1c-0.6,0-1.2,0.1-1.8,0.1c-0.6,0.1-1.3,0.1-1.9,0.2
	c-0.8,0.2-1.6,0.4-2.4,0.6c-0.3,0.1-0.6,0.2-1,0.3c-0.8,0.2-1.5,0.4-2.3,0.7c-0.5,0.2-1,0.4-1.5,0.6c-0.5,0.2-1,0.4-1.5,0.5
	c-0.2,0.1-0.4,0.1-0.6,0.2c-1,0.4-2.1,0.8-3.1,1.3c-0.3,0.1-0.5,0.2-0.8,0.4c-1,0.5-1.9,1-2.8,1.7c-0.2,0.2-0.5,0.3-0.7,0.5
	c-1,0.5-1.8,1.2-2.8,1.8c-0.1,0-0.1,0.1-0.2,0.1c-1,0.8-2,1.5-2.9,2.3c-0.2,0.2-0.4,0.4-0.5,0.6c-0.2,0.2-0.1,0.3,0,0.6
	c0.2,0,0.3-0.1,0.4-0.2c0.2-0.1,0.3-0.3,0.4-0.5c0.6-0.7,1.4-1.3,2.2-1.8c0.8-0.5,1.7-1,2.5-1.5c0.8-0.5,1.5-0.9,2.3-1.3
	c0.1-0.1,0.2-0.1,0.3-0.2c0.6-0.3,1.2-0.6,1.8-0.9c0.4-0.2,0.7-0.4,1.1-0.5c0.8-0.3,1.5-0.8,2.3-1.1c0.4-0.3,0.8-0.4,1.3-0.6
	c0.5-0.2,1-0.3,1.4-0.6c0.1-0.1,0.2-0.1,0.3-0.1c0.2,0,0.3-0.1,0.5-0.1c0.6-0.2,1.2-0.4,1.8-0.6c0.1,0,0.2-0.1,0.3-0.1
	c0.3-0.2,0.6-0.3,1-0.4c0.2-0.1,0.5-0.1,0.7-0.2c0.4-0.2,0.8-0.3,1.3-0.3c0.5-0.1,1.1-0.1,1.6-0.3c0.7-0.2,1.4-0.3,2.1-0.4
	c0.6-0.1,1.3-0.1,1.9-0.2c0.2,0,0.3,0,0.5,0c0.6,0,1.3,0,1.9,0c0.3,0,0.5,0,0.8,0c0.6,0,1.2,0,1.8,0C33.4,10.6,33.5,10.5,33.5,10.5z
	 M59.6,15.7c0.2,0,0.3,0,0.4-0.1c0.3-0.2,0.5-0.5,0.8-0.7c0.8-0.7,0.9-0.8,1.8-1.2c0.2-0.1,0.4-0.2,0.6-0.2c0.1,0,0.2-0.1,0.3-0.2
	c-0.1-0.1-0.1-0.1-0.2-0.1C62.9,13,62.6,13,62.4,13c-0.2,0-0.5,0-0.7,0c-0.7-0.1-1.4,0-2.1,0c-0.1,0-0.3,0-0.4,0.1
	c-0.2,0-0.5,0.1-0.7,0.1c-0.2,0-0.5,0-0.7,0.1c-0.7,0.1-1.3,0.1-2,0.2c-0.1,0-0.2,0-0.3,0c-0.2,0-0.4,0-0.6,0c-0.1,0-0.2,0-0.5,0.1
	C56.3,14.2,58,14.8,59.6,15.7z M17.5,12.1C17.5,12.1,17.5,12,17.5,12.1C17.5,12,17.5,12.1,17.5,12.1C17.5,12.1,17.5,12.1,17.5,12.1
	C17.5,12.1,17.5,12.1,17.5,12.1z M35.3,10.7C35.3,10.7,35.3,10.7,35.3,10.7C35.3,10.7,35.2,10.7,35.3,10.7
	C35.2,10.7,35.2,10.7,35.3,10.7C35.3,10.7,35.3,10.7,35.3,10.7z"/>
<path class="fill-darkblue" d="M48.7,22.6c0,0,0.1,0.1,0.1,0.1c0,0-0.1,0.1-0.1,0.1c-0.6,0.2-1.2,0.4-1.8,0.7c-0.1,0.1-0.3,0.1-0.4,0.1
	c-0.5,0.1-1,0.2-1.5,0.3c0,0,0,0-0.1,0c-0.8,0-1.7,0.2-2.5,0.2c-0.1,0-0.1,0-0.2,0c-0.5,0.1-0.9,0.1-1.4,0.1c-0.1,0-0.2,0-0.3,0
	c-0.7,0.1-1.4,0-2.1,0c-0.4,0-0.7-0.1-1.1-0.2c-0.2,0-0.5-0.1-0.7,0c-0.3,0-0.6,0-0.9-0.1c-0.3-0.1-0.6-0.1-0.8,0
	c-0.4,0.1-0.7,0.2-1.1,0.4c-0.2,0.1-0.5,0.2-0.7,0.3c-0.2,0.1-0.5,0.1-0.7,0.3c-0.1,0.1-0.2,0.1-0.3,0.1c-0.5,0-0.9,0.1-1.4,0.1
	c-0.5,0-1-0.1-1.6-0.1c-0.1,0-0.2,0-0.4-0.1c-0.1,0-0.3-0.1-0.4-0.1c-0.6-0.1-1.2-0.4-1.7-0.7c-0.4-0.2-0.7-0.6-0.7-1.1
	c-0.1-0.5-0.1-1,0.1-1.4c0.2-0.5,0.2-0.9,0.2-1.4c0-0.4,0.1-0.8,0.1-1.2c-0.1-0.5-0.4-0.8-0.7-1.2c-0.1-0.1-0.2-0.2-0.4-0.3
	c-0.8-0.6-1.7-1.1-2.6-1.6c0,0,0,0-0.1,0c-1.3-0.5-2.5-1-3.9-1.2c-0.2,0-0.4-0.1-0.6-0.1c-0.2,0-0.4-0.1-0.6-0.1
	c-0.5,0-1-0.1-1.5-0.2c0,0,0,0-0.1-0.1c0.1-0.1,0.1-0.1,0.2-0.2c0.4-0.2,0.8-0.4,1.3-0.5c0.4-0.1,0.8-0.2,1.2-0.2
	c0.4-0.1,0.8-0.1,1.1-0.2c0.5-0.1,1-0.1,1.6,0c0.2,0,0.3,0.1,0.5,0.1c0.9,0,1.7,0.3,2.5,0.5c0.6,0.2,1.2,0.4,1.7,0.7
	c0.5,0.3,1.1,0.5,1.6,0.7c0.5,0.3,1.1,0.5,1.6,0.9c0.2,0.1,0.3,0.2,0.5,0.3c0.8,0.4,1.5,0.9,2.2,1.4c0.7,0.5,1.3,1,2,1.4
	c0.2,0.1,0.4,0.3,0.6,0.5c0.5,0.5,1,0.9,1.6,1.3c0.1,0.1,0.2,0.2,0.3,0.3c0.7,0.6,1.4,1.3,2.1,1.9c0.1,0.1,0.3,0.3,0.5,0.3
	c0,0,0-0.1,0-0.1c-0.1-0.1-0.1-0.2-0.2-0.2c-0.5-0.4-0.9-0.8-1.4-1.3c-0.2-0.2-0.4-0.4-0.6-0.6c-0.9-0.8-1.9-1.7-2.8-2.5
	c-0.4-0.4-0.9-0.8-1.4-1.1c-1-0.7-2-1.4-3-2c-0.4-0.2-0.8-0.4-1.1-0.6c-0.7-0.4-1.4-0.7-2.2-1c-0.9-0.4-1.8-0.7-2.7-0.9
	c-0.9-0.3-1.9-0.4-2.9-0.4c-0.1,0-0.2,0-0.4,0c0,0,0,0-0.1,0c0,0,0-0.1,0.1-0.1c0.2-0.1,0.4-0.1,0.5-0.2c0.1,0,0.3-0.1,0.4-0.2
	c0.3-0.2,0.6-0.2,0.9-0.3c0.4-0.1,0.8-0.1,1.1-0.2c0.1,0,0.2-0.1,0.3-0.1c0.9-0.4,1.9-0.6,2.9-0.7c0.5,0,0.9-0.1,1.4-0.1
	c0.3,0,0.6,0,0.9,0.1c0.3,0.1,0.6,0.1,0.8,0.1c0.8,0.1,1.5,0.3,2.2,0.5c1.1,0.4,2.2,0.8,3.3,1.4c1.1,0.6,2.3,1.1,3.3,1.8
	c0.9,0.6,1.9,1.2,2.8,1.9c0.2,0.2,0.5,0.3,0.7,0.5c0.5,0.3,0.9,0.7,1.4,1c0.4,0.3,0.7,0.6,1.1,0.8c0.7,0.5,1.3,1.1,1.9,1.7
	c0.2,0.2,0.3,0.3,0.5,0.4c0.3,0.3,0.6,0.5,0.9,0.8C48.3,22.2,48.5,22.4,48.7,22.6z M10.3,15c0.2-0.1,0.3-0.1,0.5-0.2
	c0.4-0.3,0.9-0.5,1.3-0.7c0.3-0.1,0.5-0.2,0.8-0.4c0.2-0.1,0.4-0.2,0.6-0.3c0.2-0.2,0.5-0.3,0.8-0.4c0.1,0,0.3-0.1,0.4-0.1
	c0.5-0.2,1-0.4,1.4-0.7c0.5-0.2,0.9-0.5,1.4-0.8c0.3-0.2,0.6-0.4,0.9-0.7c0.4-0.4,0.8-0.8,1.3-1.2c0.9-0.9,1.8-1.7,2.7-2.6
	c0.6-0.6,1.1-1.3,1.5-2c0.3-0.6,0.7-1.2,1-1.7c0.2-0.3,0.4-0.5,0.6-0.8c0.1,0,0.2,0,0.2,0.1c0,0.1,0,0.1-0.1,0.2
	c-0.5,0.7-0.9,1.4-1.2,2.1c-0.5,1-1.2,1.9-2,2.7c-1.1,1.1-2.2,2.1-3.3,3.3c-0.2,0.2-0.4,0.3-0.6,0.5c-0.1,0.1-0.3,0.2-0.4,0.3
	c0,0-0.1,0.1,0,0.2c0.3-0.1,0.6-0.2,0.9-0.3c0.3-0.1,0.6-0.2,1-0.3c0.7-0.2,1.5-0.4,2.2-0.6c0.7-0.2,1.3-0.3,2-0.4
	c0.6-0.1,1.3-0.2,1.9-0.3c0.1,0,0.3-0.1,0.4-0.1c1-0.4,2.1-0.6,3.2-0.8C30,9,30.4,9,30.7,8.9c0.6-0.2,1.2-0.3,1.8-0.6
	C33.3,8,34,7.6,34.8,7.1c0,0,0-0.1,0-0.2c-0.2-0.1-0.4-0.2-0.7-0.2c-0.5-0.1-0.9-0.3-1.4-0.3c-0.4-0.2-0.8-0.2-1.2-0.3
	c-0.2,0-0.4-0.1-0.5-0.2c-0.2-0.1-0.4-0.3-0.6-0.3c-0.3-0.1-0.6-0.2-0.8-0.4c-0.2-0.1-0.3-0.2-0.4-0.2c-0.3-0.3-0.5-0.6-0.8-0.7
	c-0.5-0.3-0.9-0.7-1.3-1.2c-0.5-0.6-1-1.1-1.5-1.7c-0.3-0.1-0.6-0.2-0.9-0.2c-0.2,0-0.4,0-0.6-0.1c-0.4-0.1-0.7,0-1,0.1
	c-0.4,0.2-0.9,0.4-1.3,0.7c-0.1,0-0.1,0.1-0.2,0.1c-0.3,0.2-0.6,0.4-1,0.6c-0.2,0.1-0.3,0.2-0.5,0.3c-0.2,0.1-0.3,0.3-0.5,0.4
	c-0.5,0.4-1.1,0.9-1.6,1.3c-0.6,0.5-1.2,1-1.8,1.4c-0.4,0.3-0.9,0.6-1.4,0.9c-0.7,0.4-1.4,0.6-2.1,0.9c-0.6,0.3-1.2,0.6-1.5,1.2
	c-0.2,0.4-0.4,0.9-0.6,1.3c-0.2,0.4-0.3,0.8-0.4,1.2c-0.1,0.6-0.1,1.1-0.1,1.7c0,0.5,0.1,1,0,1.4C10.1,14.9,10.2,14.9,10.3,15
	C10.2,14.9,10.3,15,10.3,15z M54.2,18.9c-0.4-0.3-0.8-0.7-1.2-0.9c-0.8-0.6-1.7-1.2-2.5-1.8c-0.4-0.3-0.8-0.5-1.2-0.8
	c-0.2-0.1-0.3-0.2-0.5-0.3c-0.7-0.4-1.4-0.9-2.1-1.3c-0.1-0.1-0.2-0.1-0.3-0.2c-0.8-0.4-1.7-0.7-2.5-1.1c-0.1,0-0.1-0.1-0.2-0.1
	c-0.9-0.4-1.9-0.5-2.8-0.8c-0.1,0-0.1,0-0.2,0c-1-0.1-2-0.2-2.9-0.4c-0.2,0-0.4,0-0.6-0.1c-0.4,0-0.8-0.1-1.1-0.1
	c-0.3,0-0.6-0.1-0.9-0.1c-0.6,0-1.2-0.1-1.8-0.1c-0.6-0.1-1.2,0-1.8-0.1c-0.1,0-0.1,0-0.1,0.1c0.8,0.2,1.6,0.5,2.4,0.8
	c0.1,0,0.2,0.1,0.3,0.1c1.1,0.5,2.2,1.1,3.3,1.6c0.4,0.2,0.8,0.4,1.1,0.6c0.8,0.5,1.6,1,2.4,1.5c0.7,0.5,1.4,1,2.1,1.4
	c0.4,0.3,0.7,0.5,1.1,0.8c1.5,1.3,3,2.6,4.4,4c0.2,0.2,0.4,0.4,0.6,0.6c0,0,0.1,0,0.1,0.1c0.5-0.3,1-0.5,1.5-0.7
	c1.3-0.5,2.6-1.1,3.8-1.7c0.2-0.1,0.4-0.2,0.6-0.4c0-0.2-0.1-0.3-0.2-0.4C54.6,19.2,54.4,19.1,54.2,18.9z M47,6.9
	c0,0.1-0.1,0.2-0.1,0.2c-0.2,0.4-0.4,0.6-0.7,0.9c-0.2,0.2-0.4,0.3-0.6,0.5C45,9,44.4,9.3,43.7,9.6c-0.2,0.1-0.3,0.2-0.5,0.2
	c-0.4,0.1-0.7,0.3-1.1,0.4c-0.5,0.2-1.1,0.4-1.7,0.5c0,0-0.1,0-0.1,0.1c0,0,0.1,0.1,0.1,0.1c1.3,0.3,2.5,0.5,3.8,0.7
	c0.4,0,0.7,0.1,1.1,0.2c0.2,0.1,0.4,0.1,0.6,0.1c0.5,0,1,0,1.4,0c0.5-0.1,1,0.1,1.4,0c0.1,0,0.2,0,0.4,0c1-0.1,2-0.2,3.1-0.4
	c0.4-0.1,0.7-0.2,1.1-0.3c0.9-0.2,1.7-0.6,2.5-0.9c0.2-0.1,0.3-0.1,0.4-0.2c0.2-0.1,0.5-0.2,0.7-0.4c0.5-0.2,1-0.4,1.4-0.7
	c0.1-0.1,0.3-0.2,0.4-0.2c0.1,0,0.2-0.1,0.2-0.2c-0.3-0.4-0.6-0.8-1-1.2c-0.1-0.1-0.1-0.2-0.2-0.2c-0.2-0.1-0.2-0.2-0.4-0.3
	c-0.2-0.2-0.3-0.5-0.6-0.7C56.4,6,56.2,5.9,56,5.7c-0.2-0.2-0.5-0.4-0.8-0.5c-0.3-0.1-0.6-0.1-0.9-0.2c-0.1,0-0.3,0-0.4,0
	c-0.5,0-1,0.1-1.6,0.1c-0.7,0-1.5,0.2-2.2,0.4c-0.8,0.3-1.5,0.6-2.3,0.8C47.4,6.3,47.1,6.5,47,6.9z M58.3,15.4
	c-0.7-0.3-1.3-0.6-2-0.8c-0.1,0-0.2-0.1-0.3-0.1c-1-0.4-2-0.7-3-0.9c-0.5-0.1-1-0.3-1.5-0.3c-0.1,0-0.1,0-0.2,0
	c-0.4-0.1-0.8-0.1-1.2-0.1c-0.2,0-0.5,0-0.7-0.1c-0.6-0.1-1.2-0.2-1.8-0.3c-0.9-0.2-1.8-0.3-2.8-0.5c-0.2,0-0.4-0.1-0.7,0
	c0.2,0.1,0.3,0.2,0.4,0.2c0.4,0.2,0.8,0.3,1.2,0.5c0.4,0.2,0.9,0.4,1.3,0.6c1,0.5,1.9,1.1,2.8,1.7c0.2,0.1,0.4,0.2,0.5,0.4
	c0.7,0.5,1.4,1,2.2,1.5c0.4,0.2,0.7,0.5,1.1,0.8c0.6,0.4,1.1,0.9,1.7,1.4c0.1,0.1,0.2,0.2,0.4,0.1c0.1-0.1,0.2-0.2,0.4-0.2
	c0.9-0.6,1.7-1.3,2.5-2.1c0.3-0.3,0.7-0.7,1-1c0.1-0.1,0.1-0.2,0.1-0.2c-0.2-0.2-0.4-0.2-0.6-0.3C58.7,15.5,58.5,15.5,58.3,15.4z
	 M38,10.6c0.4,0.1,0.8,0,1.2,0c0.7-0.1,1.4-0.2,2.1-0.4c0.2-0.1,0.4-0.2,0.7-0.3c0.7-0.3,1.4-0.6,2.1-0.9c0.4-0.2,0.8-0.4,1.2-0.7
	c0.2-0.1,0.3-0.3,0.5-0.4c0.4-0.3,0.7-0.6,0.8-1c0,0,0-0.1,0-0.1c-0.1,0-0.2,0-0.3,0c-0.2,0-0.4,0-0.6,0.1c-0.4,0.1-0.8,0.2-1.3,0.2
	c-0.2,0-0.4,0.1-0.6,0.1c-0.6,0.1-1.3,0.3-1.9,0.3c-0.2,0-0.4,0-0.6,0.1c-0.2,0.1-0.5,0.1-0.7,0c-0.4,0-0.8,0-1.1,0.1
	c-0.1,0-0.2,0-0.4,0c-0.6,0.1-1.1-0.1-1.7,0c0,0-0.1,0-0.1,0c-0.7-0.2-1.3-0.1-1.9-0.3c-0.3,0.1-0.5,0.2-0.6,0.4
	c0,0.1-0.1,0.1-0.2,0.1c-0.5,0.3-0.9,0.5-1.4,0.8C32.8,8.7,32.4,8.8,32,9c-0.8,0.3-1.6,0.5-2.4,0.6c-0.4,0.1-0.9,0.2-1.5,0.4
	c0.8-0.2,1.5-0.1,2.2-0.2c0.5,0,1.1-0.1,1.6,0c0.8,0.1,1.7,0.2,2.5,0.3c0.5,0.1,1,0.1,1.6,0.2c0.2,0,0.3,0,0.5,0
	C36.9,10.5,37.5,10.5,38,10.6z M27.8,2.3c0.4,0.3,0.8,0.6,1.1,1c0.2,0.2,0.5,0.4,0.8,0.6c0.7,0.4,1.3,0.7,2.1,1
	c0.7,0.2,1.4,0.4,2.1,0.7C35,5.9,36.1,6,37.2,6.1c0.6,0.1,1.2,0.1,1.9,0.1c0.5,0,1,0,1.4,0.1c1,0.1,1.9,0,2.9,0
	c1.1,0,2.2-0.3,3.3-0.6c0.1,0,0.1-0.1,0.2-0.1c0.5-0.2,0.9-0.4,1.4-0.5c0.2-0.1,0.4-0.1,0.6-0.2c0.1,0,0.1-0.1,0.2-0.2
	c-0.7,0-1.4,0.1-2.1,0.1c-1.3,0.1-2.6,0.1-3.9,0c-1.4-0.1-2.8-0.1-4.2-0.2c-0.4,0-0.8,0.1-1.2,0.4c-0.4,0.3-0.8,0.5-1.2,0.6
	c0,0,0,0,0,0c0,0,0,0,0,0c0,0.1,0,0.2-0.1,0.2c0-0.2,0-0.2,0.1-0.2c0,0,0,0,0,0c0,0,0,0,0,0c0-0.1,0-0.1,0.1-0.2
	c0.3-0.2,0.5-0.4,0.8-0.6c0.1-0.1,0.1-0.1,0.1-0.2c-0.5-0.1-1.1-0.2-1.6-0.3C35.4,4.1,35,4.1,34.6,4c-0.4-0.1-0.8-0.1-1.2-0.3
	c-0.4-0.1-0.8-0.1-1.2-0.3c-0.2-0.1-0.4-0.1-0.5-0.2c-0.1,0-0.2-0.1-0.3-0.1c-0.7-0.2-1.5-0.4-2.2-0.7c-0.6-0.3-1.2-0.5-1.8-0.7
	c-0.1,0-0.1,0-0.1,0.1c0,0.1,0.1,0.1,0.2,0.2C27.5,2.1,27.6,2.2,27.8,2.3z M26.1,21c0-0.4,0-0.7,0.1-1.1c0.1-0.4,0-0.8-0.3-1.1
	c0,0,0-0.1-0.1-0.1c-0.2-0.4-0.5-0.7-0.9-0.9c-0.2-0.1-0.5-0.3-0.7-0.4c-0.4-0.3-0.8-0.5-1.2-0.7c-0.4-0.2-0.8-0.4-1.2-0.5
	c-0.7-0.2-1.4-0.5-2.2-0.7c-0.6-0.1-1.2-0.3-1.7-0.4c-0.1,0-0.2,0-0.4,0c-0.2,0-0.3,0-0.5-0.1c-0.6-0.1-1.2-0.1-1.8-0.1
	c-0.1,0-0.2,0-0.3,0c-0.5,0.2-0.9,0.4-1.4,0.6c-0.1,0-0.1,0.1-0.2,0.2c0.6-0.1,1.2,0,1.8,0.1c0.3,0,0.5,0.1,0.8,0.2
	c0.2,0.1,0.3,0.2,0.4,0.2c0.7,0.4,1.5,0.7,2.4,0.7c0.1,0,0.2,0,0.4,0c0.5,0.1,0.9,0.1,1.3,0.2c0.3,0,0.5,0.1,0.8,0.1
	c0.4,0,0.8,0.1,1.1,0.4c0.1,0.1,0.2,0.2,0.4,0.2c0.4,0.2,0.7,0.5,0.8,1c0.1,0.3,0.1,0.6,0.1,0.9c0,0.1,0,0.2,0,0.4
	c0.1,0.4,0.2,0.8,0.4,1.2c0.1,0.3,0.3,0.7,0.4,1c0.4,0.5,0.8,1,1.4,1.2c0-0.1,0-0.2,0-0.2c-0.1-0.4-0.1-0.9,0.1-1.3
	C26,21.7,26.1,21.4,26.1,21z M62.2,11.7c-0.3-0.2-0.6-0.3-0.8-0.6c-0.4-0.3-0.7-0.6-1-1c-0.3-0.3-0.5-0.6-0.8-0.8
	C59.4,9.2,59.2,9,59,8.9c-0.1,0.1-0.2,0.2-0.3,0.2c-0.3,0.2-0.5,0.4-0.8,0.6c-0.9,0.5-1.8,1-2.8,1.4c-0.3,0.1-0.6,0.3-0.9,0.4
	c-0.6,0.2-1.1,0.3-1.6,0.5c-0.2,0.1-0.3,0.1-0.5,0.1c-0.8,0.1-1.5,0.3-2.3,0.3c-0.1,0-0.2,0-0.4,0.1c0,0,0,0.1-0.1,0.1
	c0.1,0.1,0.2,0.1,0.3,0.1c0.7,0.1,1.5,0.1,2.2,0.2c0.3,0,0.6,0,0.9,0.2c0.5,0,0.9-0.1,1.3-0.1c0.7,0,1.5-0.1,2.2,0.1
	c0.2,0,0.4,0,0.6,0c0.6,0,1.2-0.1,1.8-0.2c0.6-0.1,1.3-0.1,1.9-0.1c0.2,0,0.4,0,0.6,0c0.4-0.1,0.9-0.1,1.3,0c0.3,0,0.6,0.1,0.9,0
	c0-0.1-0.1-0.2-0.2-0.2C62.9,12.1,62.5,11.9,62.2,11.7z M63.5,12.5C63.5,12.5,63.5,12.5,63.5,12.5C63.5,12.5,63.5,12.5,63.5,12.5
	C63.5,12.5,63.5,12.5,63.5,12.5C63.5,12.5,63.5,12.5,63.5,12.5z M15.5,14.1c0.5-0.2,1-0.3,1.4-0.6c0.1-0.1,0.2-0.1,0.3-0.1
	c0.2,0,0.3-0.1,0.5-0.1c0.6-0.2,1.2-0.4,1.8-0.6c0.1,0,0.2-0.1,0.3-0.1c0.3-0.2,0.6-0.3,1-0.4c0.2-0.1,0.5-0.1,0.7-0.2
	c0.4-0.2,0.8-0.3,1.3-0.3c0.5-0.1,1.1-0.1,1.6-0.3c0.7-0.2,1.4-0.3,2.1-0.4c0.6-0.1,1.3-0.1,1.9-0.2c0.2,0,0.3,0,0.5,0
	c0.6,0,1.3,0,1.9,0c0.3,0,0.5,0,0.8,0c0.6,0,1.2,0,1.8,0c0.1,0,0.1-0.1,0.2-0.1c0,0-0.1-0.1-0.1-0.1c-0.7-0.1-1.4-0.2-2.1-0.1
	c-0.2,0-0.4,0-0.6,0c-0.5-0.1-1-0.1-1.4,0c-0.5,0-1,0.1-1.5,0.1c-0.6,0-1.2,0.1-1.8,0.1c-0.6,0.1-1.3,0.1-1.9,0.2
	c-0.8,0.2-1.6,0.4-2.4,0.6c-0.3,0.1-0.6,0.2-1,0.3c-0.8,0.2-1.5,0.4-2.3,0.7c-0.5,0.2-1,0.4-1.5,0.6c-0.5,0.2-1,0.4-1.5,0.5
	c-0.2,0.1-0.4,0.1-0.6,0.2c-1,0.4-2.1,0.8-3.1,1.3c-0.3,0.1-0.5,0.2-0.8,0.4c-1,0.5-1.9,1-2.8,1.7c-0.2,0.2-0.5,0.3-0.7,0.5
	c-1,0.5-1.8,1.2-2.8,1.8c-0.1,0-0.1,0.1-0.2,0.1c-1,0.8-2,1.5-2.9,2.3c-0.2,0.2-0.4,0.4-0.5,0.6c-0.2,0.2-0.1,0.3,0,0.6
	c0.2,0,0.3-0.1,0.4-0.2c0.2-0.1,0.3-0.3,0.4-0.5c0.6-0.7,1.4-1.3,2.2-1.8c0.8-0.5,1.7-1,2.5-1.5c0.8-0.5,1.5-0.9,2.3-1.3
	c0.1-0.1,0.2-0.1,0.3-0.2c0.6-0.3,1.2-0.6,1.8-0.9c0.4-0.2,0.7-0.4,1.1-0.5c0.8-0.3,1.5-0.8,2.3-1.1C14.5,14.4,15,14.3,15.5,14.1z
	 M62.4,13c-0.2,0-0.5,0-0.7,0c-0.7-0.1-1.4,0-2.1,0c-0.1,0-0.3,0-0.4,0.1c-0.2,0-0.5,0.1-0.7,0.1c-0.2,0-0.5,0-0.7,0.1
	c-0.7,0.1-1.3,0.1-2,0.2c-0.1,0-0.2,0-0.3,0c-0.2,0-0.4,0-0.6,0c-0.1,0-0.2,0-0.5,0.1c1.9,0.6,3.6,1.2,5.2,2.1c0.2,0,0.3,0,0.4-0.1
	c0.3-0.2,0.5-0.5,0.8-0.7c0.8-0.7,0.9-0.8,1.8-1.2c0.2-0.1,0.4-0.2,0.6-0.2c0.1,0,0.2-0.1,0.3-0.2c-0.1-0.1-0.1-0.1-0.2-0.1
	C62.9,13,62.6,13,62.4,13z M36.1,10.9C36.1,10.9,36.1,10.9,36.1,10.9C36.1,10.8,36.1,10.8,36.1,10.9c-0.1-0.1-0.1-0.1-0.2-0.1
	C36,10.8,36,10.8,36.1,10.9z M17.5,12.1C17.5,12.1,17.5,12.1,17.5,12.1C17.5,12.1,17.5,12,17.5,12.1C17.5,12,17.5,12.1,17.5,12.1
	C17.5,12.1,17.5,12.1,17.5,12.1z M35.3,10.7C35.3,10.7,35.3,10.7,35.3,10.7C35.3,10.7,35.3,10.7,35.3,10.7
	C35.3,10.7,35.2,10.7,35.3,10.7C35.2,10.7,35.2,10.7,35.3,10.7z M35.8,10.8C35.8,10.8,35.9,10.8,35.8,10.8
	C35.9,10.8,35.9,10.8,35.8,10.8C35.9,10.8,35.9,10.8,35.8,10.8C35.9,10.8,35.8,10.8,35.8,10.8z M35.7,10.8c0,0,0.1,0,0.1,0
	C35.8,10.8,35.8,10.7,35.7,10.8C35.8,10.7,35.7,10.7,35.7,10.8z M63.5,12.5C63.5,12.6,63.6,12.6,63.5,12.5c0.1,0.1,0.1,0,0.1,0
	C63.6,12.5,63.5,12.5,63.5,12.5z"/>
</svg>
