<?xml version="1.0" encoding="utf-8"?>
<!-- Generator: Adobe Illustrator 22.1.0, SVG Export Plug-In . SVG Version: 6.00 Build 0)  -->
<svg version="1.1" id="Layer_9" xmlns="http://www.w3.org/2000/svg" xmlns:xlink="http://www.w3.org/1999/xlink" x="0px" y="0px"
	 viewBox="0 0 242 256.3" style="enable-background:new 0 0 242 256.3;" xml:space="preserve">
<path class="fill-white" d="M243,131.8c-0.5-0.3-1-0.7-1.5-1.1c-0.3-0.2-0.5-0.5-0.7-0.8c-0.5-1-1-2.1-1.4-3.1c-0.3-0.7-0.5-1.5-0.8-2.2
	c-0.5-1.2-1.1-2.3-1.6-3.5c-0.2-0.5-0.5-1-0.7-1.5c-0.4-0.8-0.8-1.6-1.2-2.4c-0.4-0.7-0.7-1.5-1.1-2.2c-0.5-1-0.9-2.1-1.6-3.1
	c-0.3-0.5-0.6-0.9-0.9-1.4c-0.8-1.4-1.5-2.8-2.4-4.1c-0.3-0.5-0.6-1-0.9-1.5c-0.5-0.9-1.2-1.6-1.8-2.5c-0.3-0.5-0.6-1-1-1.3
	c-0.4-0.3-0.7-0.8-1-1.1c-0.8-1-1.8-1.8-2.8-2.7c-0.4-0.3-0.8-0.6-1.2-1c-0.9-1-2.1-1.7-3.2-2.4c-0.4-0.3-0.9-0.5-1.2-0.9
	c-1.6-1.5-3.4-2.6-5.5-3.2c-1.2-0.4-2.5-0.7-3.8-1.1c-0.5-0.1-1-0.3-1.6-0.4c0.7-0.5,1.5-0.7,2.2-1.1c0.7-0.5,1.4-0.8,2-1.3
	c0.6-0.5,1.1-1.1,1.8-1.7c0.5,0.1,0.9-0.1,1.4-0.4c0.4-0.2,0.8-0.5,1.2-0.6c1-0.4,1.9-0.9,2.7-1.5c0.3-0.2,0.6-0.4,0.8-0.6
	c0.3-0.5,0.7-0.8,1-1.1c0.3-0.3,0.6-0.6,0.9-0.9c0.4-0.5,0.9-1,1.4-1.4c0.1-0.1,0.3-0.1,0.4-0.2c0.5-0.2,0.9-0.3,1.4-0.5
	c0.5-0.1,1-0.4,1.3-0.8c0.1,0,0.2,0,0.3,0c0.1,0,0.2-0.1,0.3-0.1c0.1-0.3,0-0.5-0.1-0.6c-0.2-0.2-0.4-0.3-0.6-0.4
	c-0.5-0.1-0.9-0.3-1.4-0.3c-0.3,0-0.6,0-0.9-0.2c0.2-0.2,0.4-0.4,0.6-0.5c0.6-0.3,1.1-0.9,1.6-1.3c0.7-0.6,1.4-1.2,2-1.9
	c1.1-1.3,2.1-2.6,2.9-4.1c0.2-0.4,0.5-0.9,0.7-1.4c0.4-0.9,0.8-1.9,1.2-2.8c0.2-0.3,0.3-0.7,0.4-1c0.3-1.4,0.7-2.8,0.7-4.3
	c0-0.7,0.1-1.4,0.2-2.1c0.1-0.5,0.1-1.1,0-1.6c-0.2-1.3-0.4-2.6-0.6-3.9c-0.1-0.8-0.2-1.6-0.1-2.4c0-0.1,0-0.3,0-0.4
	c0-1.1,0-2.1,0.7-3c0.2-0.2,0.3-0.5,0.5-0.7c0.1-0.2,0.1-0.3,0.2-0.5c0-0.4,0.1-0.7,0.1-1.2c-0.1-0.1-0.3-0.3-0.5-0.5
	c-0.8,0.2-1.6,0.1-2.3,0c-0.6-0.1-1.2-0.2-1.7-0.3c-2.3-0.4-4.5-0.9-6.6-1.8c-1.6-0.7-3.3-1.3-4.8-2.1c-0.3-0.1-0.5-0.3-0.8-0.4
	c-1.7-0.7-3.4-1.5-5.1-2.2c-0.4-0.2-0.8-0.3-1.2-0.6c-0.8-0.4-1.5-0.7-2.4-1c-2.1-0.6-4.2-1.2-6.3-1.6c-3.1-0.6-6.3-1-9.5-1
	c-2.1,0-4.2,0-6.3,0.1c-1.6,0-3.3,0.2-4.9,0.4c-1.2,0.1-2.5,0.2-3.7,0.4c-0.6,0.1-1.2,0.3-1.9,0.3c-0.5,0-1.1,0.1-1.6,0.3
	c-0.6,0.2-1.2,0.3-1.8,0.3c-0.3,0-0.6,0.1-0.9,0.1c-1.5,0.4-2.9,0.8-4.4,1.2c-1.3,0.4-2.5,0.8-3.8,1.2c-0.4,0.1-0.7,0.3-1.1,0.5
	c-0.7,0.3-1.3,0.5-2,0.9c-0.2,0.1-0.4,0.2-0.6,0.2c-0.5,0.2-1.1,0.4-1.5,0.6c-0.7,0.4-1.4,0.7-2.2,1c-0.9,0.3-1.9,0.6-2.8,1.1
	c-1.5,0.8-3,1.5-4.5,2.2c-1.4,0.7-2.9,1.4-4.3,2.2c-1.1,0.6-2.1,1.3-3.1,1.9c-1.5,0.9-3,1.8-4.4,2.8c-1.4,1-2.9,2.1-4.2,3.2
	c-0.8,0.6-1.6,1.2-2.3,2c-1.1,0.8-2,2-3.1,2.8c-0.2,0.2-0.4,0.5-0.6,0.6c-0.6,0.3-1,0.8-1.4,1.3c-0.5,0.6-1,1.3-1.5,1.9
	c-0.9,0.9-1.6,1.9-2.1,3c-0.3,0.8-0.8,1.4-1.3,2.1c-0.3,0.4-0.5,0.8-0.7,1.3c-0.3,0.9-0.7,1.9-0.7,2.9c0,0.3-0.2,0.5-0.4,0.5
	c-0.6,0-1,0.3-1.5,0.4c-1.4,0.4-2.7,0.9-4,1.5c-0.7,0.3-1.4,0.5-2.1,0.8c-0.2,0.1-0.4,0.2-0.6,0.4c-0.4,0.4-0.8,0.8-1.2,1.3
	c-0.3,0.4-0.7,0.8-0.9,1.3c-0.3,0.6-0.6,1.2-0.9,1.8c-0.3,0.6-0.5,1.2-0.7,1.8c-0.4,1.1-0.5,2.3-0.4,3.5c0,0.1,0,0.2,0,0.3
	c-0.2,1.7-0.3,3.3-0.6,5c0,0.1,0,0.3-0.1,0.4c-0.1,0.2-0.2,0.4-0.3,0.5c-0.9,1.1-2,1.8-3.4,2.2c-0.4,0.1-0.8,0.3-1.2,0.4
	c-0.9,0.2-1.7,0.5-2.6,0.4c-1.1-0.1-2.2-0.1-3.3-0.4c-0.1,0-0.3,0-0.4-0.1c-0.7-0.1-1.4-0.1-2.1-0.2c-0.2,0-0.3-0.1-0.5-0.2
	c0-0.5,0-0.9,0.2-1.4c0.2-0.8,0.2-1.5,0.2-2.3c0-1.1,0.1-2.1,0.4-3.2c0.2-0.8,0.5-1.6,0.7-2.4c0.2-0.7,0.3-1.5,0.5-2.2
	c0-0.1,0.1-0.3,0.1-0.4c0-1.2,0.5-2.3,0.8-3.4c0.4-1.5,1-2.9,1.5-4.3c0.4-1.3,0.9-2.6,1.3-4c0.1-0.4,0.3-0.9,0.4-1.3
	c0.1-0.2,0-0.5,0.1-0.7c0.3-0.4,0.4-0.9,0.6-1.4c0.4-0.9,0.7-1.9,1-2.9c0.2-0.8,0.5-1.6,0.8-2.4c0.2-0.4,0.4-0.8,0.5-1.3
	c0.3-1,0.6-1.9,0.9-2.9c0.1-0.3,0.2-0.6,0.3-0.9c0.5-1.1,1.1-2.2,1.4-3.4c0.1-0.5,0.3-1,0.5-1.4c0.4-0.8,0.7-1.7,1-2.5
	c0.3-1.1,0.7-2.2,1.1-3.3c0.2-0.7,0.5-1.5,0.7-2.2c0.2-0.8,0.4-1.7,0.6-2.5c0.1-0.4,0.1-0.9,0.1-1.4c0-0.4-0.1-0.7-0.2-1.1
	c0-0.1-0.1-0.3,0-0.4c0.2-0.6,0-1.2,0-1.7c-0.1-1.2-0.1-2.3-0.1-3.5c0-0.3,0-0.7-0.1-1c-0.2-1.3-0.5-2.7-0.7-4
	c-0.3-1.7-0.9-3.3-1.6-4.9c-0.6-1.5-1.6-2.8-2.3-4.2c0,0-0.1-0.1-0.1-0.1c-0.5-0.7-1-1.3-1.5-2c-0.7-0.9-1.5-1.8-2.2-2.6
	c-0.3-0.3-0.7-0.6-1-0.9c-0.1-0.1-0.2-0.2-0.3-0.3c-0.7-1-1.7-1.9-2.5-2.8c-0.4-0.4-0.9-0.7-1.3-1.1c-0.4-0.4-1-0.5-1.4-1
	c-0.1-0.1-0.3-0.2-0.4-0.2c-0.5-0.3-1-0.5-1.5-0.8c-1.3-0.6-2.6-1.3-4-1.9c-0.4-0.2-0.8-0.3-1.3-0.5c-0.8-0.3-1.7-0.5-2.5-0.8
	C80.2,0.2,79.4,0,78.6,0c-0.6,0-1.1,0-1.7,0c-0.7-0.1-0.9,0.2-0.8,0.9c0.2,0.1,0.4,0.3,0.6,0.5c0.2,0.8,0.2,1.5,0.4,2.2
	c0.1,0.4,0.2,0.8,0.5,1.1c0.1,0.1,0.2,0.4,0.2,0.6c0,0.1,0,0.3,0.1,0.5c0.3,0.5,0.3,1.1,0.4,1.6c0.1,0.8,0.5,1.5,0.5,2.3
	c0.5,1.1,0.4,2.4,0.6,3.5c0.2,1.6,0.3,3.3,0.3,4.9c0,0.6-0.1,1.2-0.4,1.8c-0.3,0.6-0.6,1.2-0.9,1.9c-0.4,0.9-0.7,1.9-1.1,2.8
	c-0.2,0.5-0.4,1-0.7,1.4c-0.4,0.6-0.7,1.2-1.1,1.8c-0.2,0.4-0.5,0.8-0.7,1.3c-0.5,0.9-1,1.8-1.4,2.7c-0.2,0.5-0.5,0.9-0.7,1.3
	c-0.2,0.3-0.4,0.6-0.6,0.8c-0.8,1-1.5,1.9-2.4,2.8c-0.5,0.4-1,0.9-1.4,1.4c-0.4,0.5-1,0.9-1.2,1.6c0,0-0.1,0.1-0.1,0.1
	c-0.7,0.7-1.3,1.4-1.9,2.1c-0.6,0.7-1.2,1.4-1.8,2.2c-0.7,0.9-1.3,1.8-1.9,2.7c-1,1.4-2,2.8-3,4.2c-0.2,0.2-0.3,0.5-0.5,0.7
	c-0.6,0.6-1.2,1.3-1.8,1.9c-0.9,1-1.7,2-2.6,3c-0.6,0.7-1.2,1.5-1.7,2.3c-0.8,1.6-1.6,3.1-2,4.9c-0.4,1.8-0.7,3.6-0.9,5.4
	c-0.3,2.1-0.3,4.3-0.3,6.5c0.1,2.6,0.1,5.1,0.5,7.7c0.2,1.1,0.3,2.2,0.6,3.3c0.5,2,1,4,1.5,6c0.3,1,0.4,2,0.7,3c0.3,1,0.6,2,0.7,3
	c0.1,1.3,0.2,2.5,0.2,3.8c0,0.9-0.1,1.7-0.1,2.6c0,0.8-0.2,1.6-0.6,2.3c-0.5,0.9-1,1.9-1.6,2.8c-0.3,0.5-0.6,1-0.9,1.5
	c-0.6,1.3-1.2,2.5-1.7,3.8c-0.5,1.3-0.9,2.6-1.2,4c-0.1,0.5-0.2,1-0.2,1.5c-0.1,0.7-0.2,1.5-0.2,2.2c0,0.6,0.1,1.2,0.1,1.8
	c0,0.2,0.1,0.5,0.2,0.7c0.2,0.3,0.3,0.6,0.3,1c0,0.3,0,0.5,0,0.8c0.3,0.3,0.5,0.4,0.9,0.4c0-0.2,0-0.3,0-0.5c0-0.3-0.2-0.5-0.2-0.8
	c0-0.4-0.1-0.7-0.2-1.1c-0.1-0.3-0.2-0.7-0.2-1.1c0-1.6,0.3-3.2,0.5-4.8c0-0.4,0.2-0.9,0.3-1.3c0.2-0.7,0.5-1.3,0.7-1.9
	c0.5-1.1,1-2.3,1.5-3.4c0.2-0.4,0.4-0.8,0.6-1.2c0.8-1.1,1.5-2.2,2.3-3.4c0.7-1.1,1.5-2.1,2-3.3c0.1-0.1,0.2-0.3,0.2-0.4
	c0.4-0.8,0.8-1.7,1-2.6c0.1-0.7,0.3-1.4,0.5-2.1c0.1-0.6,0.3-1.2,0.4-1.9c0.2-1.2,0.3-2.5,0.5-3.7c0.2-1.2,0.3-2.5,0.5-3.7
	c0.3-1.5,0.5-2.9,0.7-4.4c0.1-0.7,0.1-1.3,0.4-1.9c0.8-1.7,1.4-3.4,2-5.1c0.1-0.4,0.3-0.9,0.3-1.3c0.2-1.1,0-2.1-0.1-3.2
	c0-0.1-0.1-0.2-0.1-0.3c-0.3,0.1-0.3,0.4-0.3,0.6c-0.1,0.6-0.1,1.2-0.2,1.8c-0.2,0.8-0.5,1.5-0.6,2.3c-0.1,0.5-0.4,0.8-0.7,1.2
	c-0.1,0.1-0.2,0.1-0.3,0.2c-0.1-0.1-0.2-0.1-0.2-0.1c-0.2,0.9-0.4,1.9-0.7,2.8c-0.1,0.6-0.3,1.1-0.5,1.7c-0.1,0.3-0.2,0.7-0.3,1
	c-0.2,0.6-0.3,1.2-0.5,1.8c-0.1,0.5-0.4,0.9-0.5,1.3c-0.2,0.5-0.3,1-0.4,1.5c-0.3,0.9-0.6,1.8-0.6,2.7c-0.1,1-0.2,1.9-0.4,2.9
	c-0.1,0.8-0.4,1.6-0.6,2.4c-0.2,1.2-0.4,2.4-0.6,3.6c-0.2-0.1-0.2-0.4-0.2-0.6c-0.1-0.6-0.1-1.3-0.1-1.9c-0.1-1.1-0.1-2.2-0.5-3.2
	c0-0.1-0.1-0.3-0.1-0.4c-0.2-0.9-0.3-1.7-0.5-2.6c-0.2-0.9-0.5-1.7-0.7-2.6c-0.2-0.6-0.3-1.1-0.4-1.7c-0.3-1.1-0.6-2.2-0.8-3.3
	c-0.3-1.7-0.6-3.5-0.7-5.2c-0.1-1.6-0.2-3.2-0.3-4.8c0-1,0-1.9,0.1-2.9c0.1-1.1,0-2.1,0.2-3.2c0.1-0.7,0.2-1.4,0.3-2.1
	c0.2-1.4,0.6-2.8,0.9-4.2c0-0.1,0.1-0.2,0.1-0.2c0.5-1.4,1.3-2.8,2-4.1c0.1-0.3,0.4-0.5,0.6-0.8c0.3-0.4,0.6-0.7,0.9-1.1
	c0.7-1.1,1.6-2.2,2.5-3.2c1.2-1.2,2.2-2.5,3.1-3.9c0.4-0.6,0.8-1.2,1.2-1.7c0.5-0.6,0.8-1.2,1.3-1.7c0.1-0.1,0.2-0.4,0.2-0.4
	c0.4-0.5,0.9-0.9,1.1-1.4c0.4-0.6,0.8-1.2,1.3-1.7c1.2-1.4,2.5-2.8,3.7-4.2c0.2-0.2,0.3-0.4,0.7-0.6c-0.2,0.5-0.4,0.9-0.5,1.2
	c-0.2,0.4-0.4,0.8-0.6,1.2c-0.2,0.3-0.4,0.6-0.5,1.2c0.2-0.2,0.3-0.2,0.4-0.3c0.7-0.9,1.5-1.8,2.2-2.8c1-1.4,2-2.9,2.9-4.4
	c0.9-1.4,1.7-2.8,2.4-4.4c0.2-0.5,0.5-1.1,0.8-1.6c0.7-1.1,1.2-2.2,1.8-3.3c0.3-0.5,0.6-1.1,1-1.7c0,1.2-0.1,2.1-0.3,3.1
	c-0.2,0.8-0.4,1.6-0.7,2.5c0,0.2-0.1,0.4-0.1,0.5c-0.1,1-0.5,1.8-0.7,2.8c0,0.1-0.1,0.3-0.2,0.4c-0.4,0.8-0.8,1.5-1.1,2.3
	c-0.2,0.5-0.3,1-0.6,1.4c-0.7,1.3-1.2,2.5-1.6,3.9c0,0.2-0.1,0.3-0.2,0.4c-0.4,0.9-0.8,1.7-1.1,2.6c-0.2,0.5-0.5,1-0.8,1.4
	c-0.7,0.9-1.4,1.8-2.1,2.6c-0.2,0.3-0.4,0.6-0.7,0.9c-0.7,0.6-1,1.4-1.7,2c-0.2,0.2-0.4,0.5-0.6,0.7c-0.6,0.6-1.2,1.3-1.6,2.1
	c0,0.1-0.1,0.1-0.1,0.2c-0.5,0.7-1,1.5-1.5,2.2c-0.2,0.4-0.5,0.7-0.7,1.1c-0.3,0.6-0.7,1-0.7,1.7c-0.4,0.1-0.5,0.4-0.4,0.8
	c0.4-0.1,0.6-0.4,0.8-0.7c0.2-0.4,0.4-0.7,0.6-1.1c0.6-1,1.3-2,1.9-3c0.8-1.2,1.6-2.3,2.5-3.4c0.9-1,1.7-2,2.6-3
	c0.5-0.6,1.1-1.2,1.6-1.8c0,0.3-0.1,0.5-0.2,0.7c-0.4,0.8-0.7,1.7-1.1,2.5C71,49.4,71,49.7,71,50c0.1,0.7,0,1.5-0.2,2.2
	c-0.6,2-1.1,3.9-1.1,6c0,0.1,0,0.2,0,0.3c-0.1,0.8-0.2,1.5-0.3,2.3c-0.2,2.3-0.4,4.6-0.5,6.9c-0.1,1.7-0.3,3.4-0.5,5.1
	c-0.1,0.6-0.1,1.1-0.2,1.7c-0.2,1.1-0.4,2.3-0.5,3.4c0,0.2-0.1,0.4-0.2,0.6c-0.3,0.5-0.3,1-0.4,1.5c0,0.5,0,0.9,0,1.4
	c-0.1,0.7-0.2,1.4-0.1,2.1c0,0.8-0.1,1.6-0.2,2.5c0,0.6-0.1,1.3-0.1,1.9c0,0.7,0.1,1.4,0,2.1c-0.1,0.9,0.1,1.8,0.2,2.7
	c0.1,0.6,0,1-0.3,1.5c-0.6,0.8-1.1,1.7-1.7,2.5c-0.5,0.7-1.1,1.4-1.5,2.2c0,0,0,0.1,0,0.2c0.1,0,0.2,0.1,0.3,0.1
	c1.2-1.2,2.1-2.6,3.2-3.9c0,0.3,0,0.4,0.1,0.6c0,0.4,0.1,0.8,0.2,1.1c0.2,0.6,0.2,1.3,0.2,1.9c0,0.2,0,0.3-0.1,0.5
	c-0.4,0.6-0.5,1.3-1,1.8c-0.1,0.1-0.1,0.1-0.1,0.2c-0.1,0.6-0.4,1-0.7,1.4c-0.1,0.2-0.3,0.4-0.3,0.7c0.4-0.2,0.5-0.6,0.7-0.8
	c0.2-0.3,0.4-0.5,0.6-0.8c0.2-0.3,0.4-0.5,0.7-0.8c0.1,0.3,0.1,0.6,0,0.8c-0.2,1.1-0.1,2.2-0.8,3.2c0,0,0,0.1,0,0.1
	c-0.1,0.6-0.4,1.1-0.6,1.6c-0.1,0.2-0.2,0.3-0.2,0.5c-0.2,0.8-0.6,1.5-1,2.3c-0.4,0.9-0.9,1.8-1.4,2.7c-0.5,0.9-1,1.8-1.6,2.6
	c-0.9,1.2-1.8,2.3-2.7,3.4c-0.1,0.1-0.2,0.2-0.4,0.3c-0.6,0.4-1.1,0.8-1.5,1.4c-0.3,0.5-0.6,0.9-1.1,1.1c-0.1,0.1-0.3,0.2-0.4,0.3
	c-1.3,1.2-2.6,2.3-3.8,3.5c-0.7,0.7-1.4,1.3-1.9,2.1c-0.1,0.2-0.3,0.5-0.4,0.7c-0.1,0.5-0.4,0.8-0.8,1c-0.3-0.1-0.6-0.3-0.9-0.4
	c-0.2,0.1-0.5,0.1-0.7,0.1c-0.2,0-0.5-0.1-0.7-0.1c-1.2,0.1-2.1,0.6-3,1.4c-0.2,0.2-0.3,0.4-0.4,0.6c-0.1,0.2-0.2,0.4-0.3,0.6
	c-0.4,0.7-0.7,1.5-1.4,2.1c-0.4,0.4-0.6,0.9-0.8,1.4c-0.1,0.4-0.3,0.8-0.4,1.1c-0.3,0.7-0.8,1.4-0.8,2.2c0,0.1,0,0.1-0.1,0.1
	c-0.3,0.6-0.5,1.3-0.7,2c-0.6,2-1.2,4.1-1.5,6.1c0,0.1-0.1,0.3-0.1,0.4c-0.5,1.6-1.3,3-2.2,4.4c-0.1,0.2-0.3,0.3-0.5,0.4
	c-0.8,0.6-1.6,1.2-2.4,1.8c-0.6,0.4-1.1,0.8-1.8,1.1c-0.3,0.1-0.5,0.3-0.7,0.5c-0.2,0.2-0.5,0.3-0.7,0.3c-0.6,0.1-1.3,0-1.9-0.2
	c-0.2,0.1-0.4,0.1-0.6,0.2v1c0.2,0.2,0.4,0.4,0.7,0.4c0.8,0.1,1.5,0.5,2.1,0.9c0.6,0.4,1.3,0.7,1.9,0.9c0.3,0.1,0.6,0.3,0.9,0.5
	c0.3,0.2,0.7,0.1,1,0.4c0,0.1,0,0.3-0.1,0.4c-0.3,0.5-0.5,1.1-0.7,1.6c-0.3,0.8-0.5,1.6-0.7,2.4c-0.2,0.8-0.4,1.6-0.5,2.3
	c-0.1,0.9-0.5,1.7-0.4,2.6c0,0.1-0.1,0.2-0.1,0.3c-0.1,0.7-0.3,1.4-0.4,2c-0.1,0.7-0.2,1.4-0.4,2.1c0,0.2-0.1,0.4-0.1,0.6
	c0.2,0.6,0,1.2-0.1,1.7c-0.1,0.8-0.3,1.5-0.7,2.2c-0.1,0.2-0.2,0.4-0.2,0.7c-0.4,1.7-0.6,3.4-0.8,5.1c-0.1,0.7-0.1,1.5-0.3,2.2
	c-0.2,0.8-0.4,1.6-0.6,2.5c-0.3,1.5-0.5,3-0.7,4.5c-0.1,0.7-0.2,1.3-0.3,2c-0.1,0.4-0.1,0.8-0.2,1.3c-0.2,1.7-0.4,3.5-0.6,5.3
	c-0.1,1.1-0.2,2.2-0.3,3.3c0,0.4,0,0.9,0,1.3c0,0.9-0.1,1.9-0.1,2.8c0,1.9,0,3.7,0,5.6c0,2.1-0.2,4.2-0.1,6.3c0.1,1.1,0,2.2,0,3.4
	c0.1,1.9,0.2,3.8,0.3,5.7c0,0.3,0.1,0.6,0.1,0.9c0.2,1,0.4,1.9,0.6,2.9c0.2,0.8,0.2,1.7,0.4,2.5c0.3,1.3,0.7,2.5,1.1,3.8
	c0.3,1,0.7,2,1.1,2.9c0.7,1.8,1.5,3.6,2.2,5.4c0.4,1,1.1,1.9,1.3,3c0,0.2,0.2,0.3,0.2,0.4c0.3,0.7,0.6,1.3,0.8,2
	c0.4,1.3,0.6,2.6,1,3.9c0.3-0.1,0.6-0.3,0.9-0.5c-0.2-0.8-0.4-1.7-0.6-2.5c-0.2-1.1-0.5-2.2-1.1-3.2c-0.4-0.6-0.5-1.3-0.8-2
	c-0.4-1-0.8-1.9-1.2-2.9c-0.5-1.1-1-2.1-1.5-3.2c-0.4-0.9-0.7-1.9-1.1-2.8c-0.6-1.7-1.1-3.5-1.5-5.2c-0.1-0.4-0.2-0.8-0.2-1.3
	c-0.1-0.9-0.2-1.7-0.4-2.5c-0.2-0.9-0.3-1.8-0.3-2.7c0-0.8-0.1-1.6-0.1-2.5c-0.1-1-0.1-2-0.2-3c0-1.9-0.1-3.7-0.1-5.6
	c0-0.8,0.1-1.6,0.1-2.5c0-1.4,0-2.8,0-4.2c0-1,0.1-1.9,0.1-2.9c0-1.6,0.1-3.3,0.1-4.9c0-0.3,0.1-0.7,0.1-1c0.3-1.6,0.6-3.2,1-4.8
	c0.1,0.1,0.2,0.1,0.2,0.1c0,0.6,0,1.3,0.1,1.9c0.1,0.8-0.1,1.6-0.1,2.4c0,0.3-0.1,0.7-0.3,1c0-0.2,0-0.4,0-0.5
	c0-0.2,0.1-0.5,0.1-0.7c0-0.2-0.1-0.4-0.1-0.6c-0.1,0-0.2,0.1-0.3,0.1c-0.1,0.1-0.1,0.2-0.1,0.3c-0.1,1.3-0.3,2.6-0.2,4.1
	c0.2-0.3,0.2-0.4,0.3-0.6c0.2,0.3,0.2,0.3,0.1,1c0,0.3,0,0.7,0,1c0,0.3,0.1,0.7,0.1,1c0,0.3,0,0.7,0,1c0,0.3-0.1,0.7-0.1,1
	c0,0.3,0,0.7,0,1.1c0.1-0.1,0.2-0.1,0.3-0.2c0.3-0.7,0.2-1.4,0.3-2.1c0-0.1,0-0.3,0-0.4c-0.1-1.7,0.1-3.3,0.4-4.9c0.2-1,0.3-2,0.5-3
	c0.1-0.3,0.1-0.6,0.3-0.9c0.2-0.4,0.2-0.8,0.2-1.2c0-0.1-0.1-0.2-0.1-0.3c-0.5-0.1-0.5,0.4-0.9,0.4c0-0.1-0.1-0.2,0-0.3
	c0.1-1.5,0.2-3.1,0.4-4.6c0.3-2.1,0.5-4.2,1-6.2c0.5-2,0.9-4.1,1.4-6.1c0.1-0.5,0.1-0.9,0.1-1.4c-0.1-0.6,0.1-1.2,0.2-1.7
	c0-0.2,0.1-0.5,0.1-0.7c0.2-1.4,0.6-2.8,1-4.2c0.2-0.6,0.3-1.1,0.5-1.7c0.1-0.2,0.1-0.5,0.1-0.7c-0.2-0.1-0.3-0.2-0.4-0.3
	c0.3-1.5,0.6-3,1.5-4.4c-0.1,0.7-0.3,1.4-0.4,2.2c0.1,0,0.1,0.1,0.2,0.2c0.4-0.6,0.5-1.3,0.7-2c0.3-0.6,0.5-1.3,0.7-1.9
	c0.3-0.6,0.5-1.3,0.8-1.9c0.3-0.6,0.5-1.3,1-1.9c0.2,0.2,0.4,0.3,0.6,0.5c0.1,0.4,0,0.8-0.2,1c-0.4,0.4-0.4,1-0.7,1.5
	c0,0.1,0,0.2,0,0.3c0.3,0.1,0.4-0.1,0.5-0.3c0.3-0.6,0.6-1.2,0.9-1.8c0.1-0.1,0.1-0.2,0.2-0.3c0.4,0.1,0.7,0.2,1,0.4
	c0.5,0.2,1,0.4,1.6,0.3c0.2-0.1,0.4,0,0.6,0c0.7,0.1,1.4,0.1,2.1,0.2c0,0.5-0.2,0.9-0.4,1.3c-0.4,0.8-0.8,1.5-1.2,2.3
	c-0.2,0.4-0.3,0.8-0.5,1.2c-0.2,0.5-0.4,1-0.6,1.6c-0.3,0.9-0.6,1.7-0.8,2.6c-0.6,2.3-1.2,4.7-1.7,7c-0.4,1.7-0.7,3.3-1.1,5
	c-0.3,1.6-0.7,3.1-1.1,4.7c-0.2,0.8-0.3,1.6-0.5,2.4c-0.1,0.5-0.3,1-0.4,1.6c-0.3,1.2-0.5,2.5-0.6,3.7c-0.1,0.9-0.3,1.8-0.4,2.7
	c-0.1,0.9-0.3,1.8-0.4,2.7c-0.1,1.1-0.3,2.2-0.4,3.3c-0.2,1.9,0,3.7,0.3,5.6c0,0.3,0.1,0.5,0.1,0.8c0.1,1,0.2,2.1,0.3,3.1
	c0.1,1.4,0.4,2.8,0.3,4.2c0,0.2,0,0.4,0.1,0.6c0,0.6,0.1,1.2,0.1,1.8c0.1,0.8,0,1.7,0.1,2.5c0.1,0.8,0.2,1.6,0.4,2.4
	c0.5,2.3,0.9,4.7,1.4,7c0.3,1.4,0.8,2.7,1.2,4.1c0.1,0.3,0.2,0.6,0.3,0.9c0.4,1,0.7,2,1.1,3c0.1,0.4,0.3,0.7,0.4,1.1
	c0.4,1.4,1.1,2.6,1.6,3.9c0.6,1.4,1.3,2.9,1.8,4.4c0.2,0.6,0.3,1.2,0.5,1.9c0.1,0.3,0.2,0.6,0.2,0.9c0,0.4,0,0.9,0,1.3
	c0.1,0,0.1-0.1,0.2-0.1c0.2-0.1,0.4-0.1,0.6-0.1c0-0.3,0-0.6,0-0.9c0-0.1,0-0.2,0-0.2c-0.2-0.6-0.2-1.3-0.3-2
	c-0.1-0.7-0.2-1.4-0.6-2.1c-0.4-0.7-0.6-1.5-0.9-2.3c-0.4-1-0.8-1.9-1.2-2.9c-0.2-0.5-0.3-1.1-0.7-1.5c-0.3-0.5-0.4-1-0.5-1.6
	c-0.5-1.5-1.1-3-1.6-4.6c-0.4-1.5-0.9-3.1-1.2-4.6c-0.1-0.4-0.1-0.9-0.3-1.3c-0.5-1.8-0.6-3.7-1.2-5.6c0-0.1,0-0.2,0-0.2
	c0-0.6-0.1-1.2-0.1-1.8c0-1.4-0.1-2.8-0.2-4.2c-0.1-1.6-0.2-3.2-0.4-4.9c0-0.3-0.1-0.6-0.1-0.9c-0.2-1.9-0.3-3.7-0.5-5.6
	c-0.1-1.7,0.2-3.4,0.4-5.1c0.2-1.5,0.4-2.9,0.6-4.4c0.2-1.2,0.3-2.3,0.5-3.5c0.2-1,0.4-2,0.7-3.1c0.4-1.5,0.6-3,0.9-4.5
	c0.1-0.6,0.2-1.3,0.4-1.9c0.3-1.5,0.7-2.9,1.1-4.4c0.2-0.8,0.3-1.6,0.5-2.3c0.3-1.4,0.7-2.7,1-4.1c0.3-1,0.5-2.1,0.8-3.1
	c0.1-0.3,0.2-0.5,0.3-0.8c0.2-0.6,0.5-1.1,0.7-1.7c0.2-0.5,0.4-1.1,0.7-1.6c0.3-0.6,0.7-1.2,1-1.9c0.3-0.7,0.9-1.2,0.9-2
	c0.6-0.2,1.2-0.4,1.8-0.4c0.3,0,0.7-0.1,1-0.2c0.4-0.1,0.8-0.3,1.3-0.4c1.6-0.4,2.9-1.2,4.3-1.9c0.6-0.3,1.1-0.8,1.6-1.2
	c0.6,0.2,0.9-0.1,1.2-0.6c0.5-1,1.1-1.8,1.9-2.6c0.4-0.4,0.8-0.9,1-1.4c0.1-0.3,0.3-0.7,0.7-0.8c0.1,0,0.3-0.3,0.4-0.4
	c0.1-0.2,0.2-0.4,0.3-0.6c0.2,0.1,0.3,0.1,0.4,0.1c0.5,0.3,1,0.6,1.5,1c0.8,0.6,1.8,1.1,2.7,1.5c0.3,0.1,0.5,0.3,0.6,0.6
	c-0.3,0.9-0.5,1.8-0.9,2.7c-0.3,0.8-0.8,1.6-1.2,2.3c0,0-0.1,0.1-0.1,0.1c-0.2,0.2-0.3,0.5-0.5,0.7c-0.4,0.5-0.7,1-1,1.6
	c-0.2,0.3-0.4,0.6-0.6,0.8c-0.9,0.9-1.7,1.7-2.4,2.7c-0.1,0.1-0.2,0.3-0.3,0.4c-0.9,0.9-1.8,1.8-2.7,2.7c-0.3,0.3-0.7,0.6-1,0.9
	c-0.5,0.5-1,0.9-1.5,1.3c-0.9,0.6-1.7,1.2-2.5,1.8c-0.4,0.3-0.8,0.7-1.2,0.9c-1.2,0.6-2.3,1.3-3.3,2.1c-0.6,0.5-1.3,1-1.9,1.4
	c-1.7,1.3-2.9,3.1-3.6,5.1c-0.5,1.3-0.7,2.7-1.1,4c-0.1,0.3-0.1,0.6-0.1,0.9c-0.1,0.3-0.1,0.6-0.2,0.9c-0.1,0.2-0.1,0.4-0.2,0.6
	c-0.3,1.4-0.6,2.8-0.9,4.2c-0.1,0.3-0.1,0.7-0.1,1c0.2,0,0.2,0.1,0.3,0.1c0,0.2-0.1,0.3-0.1,0.5c-0.1,0.4-0.1,0.9-0.1,1.3
	c-0.1,1-0.1,1.9,0,2.9c0.1,0.8,0.3,1.6,0.4,2.3c0.2,1.3,0.4,2.5,0.6,3.8c0,0.2,0.1,0.5,0.2,0.7c0.2,0.6,0.4,1.2,0.7,1.8
	c0.4,0.9,0.9,1.8,1.3,2.7c0.4,0.8,0.7,1.5,1.2,2.2c0.6,0.8,1.2,1.7,1.9,2.4c0.9,0.9,1.7,1.8,2.6,2.6c0.1,0.1,0.3,0.3,0.3,0.4
	c0.1,0.6,0.4,1,0.7,1.5c0.4,0.8,1,1.5,1.6,2.2c0.6,0.6,1.2,1.2,1.7,1.8c0.6,0.7,1.4,1.4,2,2.1c1.1,1.2,2.3,2.3,3.3,3.6
	c0.1,0.2,0.3,0.3,0.4,0.4c0.5,0.4,0.9,0.8,1.4,1.2c1.1,1,2.2,2,3.3,3c0.1,0.1,0.3,0.2,0.4,0.4c1.2,1.2,2.4,2.3,3.4,3.6
	c0.2,0.3,0.5,0.6,0.8,0.9c0.7,0.6,1.1,1.4,1.4,2.2c0.2,0.5,0.4,1,0.6,1.5c0.2,0.5,0.4,0.9,0.5,1.4c0.1,0.7,0.1,1.4,0.3,2.1
	c0,0.1,0,0.3,0,0.5c0,0.6-0.2,1.2-0.1,1.8c0,0.5,0,1-0.1,1.4c0,0.1,0,0.2,0,0.4c0.2,0.1,0.6,0.1,0.7,0.4c0,0.1,0.1,0.1,0.2,0.1
	c0.8,0.2,1.6,0.5,2.5,0.3c0.5-0.1,1-0.1,1.4-0.1c1.1,0.1,2.2,0.2,3.4,0.3c0.8,0.1,1.6,0.2,2.4,0.5c0.1,0,0.3,0.1,0.4,0.1
	c0.7,0.1,1.4,0.2,2.1,0.3c0.6,0.1,1.1,0.2,1.7,0.1c0.6,0,1.1,0,1.7,0c1.5,0.2,3,0.3,4.5,0.3c1.5,0,3,0.1,4.6,0.1
	c0.6,0,1.1-0.1,1.7-0.2c0.3,0,0.7-0.1,1-0.2c2-0.2,3.9-0.7,5.7-1.5c1-0.4,2-0.9,3-1.4c0.6-0.3,1.1-0.6,1.6-0.9
	c0.4-0.2,0.8-0.5,1.1-0.9c0.6-0.6,1.2-1.1,1.8-1.6c1.4-1.1,2.8-2.1,3.8-3.5c0.1-0.2,0.3-0.4,0.5-0.5c0.7-0.6,1.1-1.3,1.6-2
	c0.8-1.4,1.5-2.9,2.1-4.5c0.2-0.5,0.3-1.1,0.4-1.7c0.2-1,0.3-2,0.5-3c0.2-0.7,0.2-1.5,0-2.2c-0.2-0.6-0.2-1.2,0-1.8
	c0.1-0.3,0.1-0.6,0.1-0.9c0.1-1.4,0.1-2.8,0.2-4.2c0-0.6,0-1.1-0.1-1.7c-0.2-1.5-0.4-3-0.5-4.5c-0.1-1.1-0.2-2.1-0.4-3.2
	c-0.2-1.6-0.5-3.3-0.9-4.9c-0.1-0.4-0.2-0.8-0.3-1.2c-0.4-1.5-0.9-3-1.4-4.5c-0.3-0.9-0.6-1.9-0.9-2.8c-0.3-0.7-0.6-1.4-0.9-2.1
	c-0.2-0.5-0.4-0.9-0.6-1.3c-0.2-0.3-0.4-0.6-0.5-0.9c-0.4-0.8-0.9-1.5-1.3-2.3c-0.6-1-1.2-1.9-1.7-2.9c-0.6-1.1-1.2-2.3-1.9-3.4
	c-0.4-0.7-0.8-1.3-1.1-2c-0.3-0.6-0.6-1.1-1-1.5c-0.3-0.3-0.5-0.7-0.8-1.1c-0.5-0.8-0.9-1.7-1.6-2.4c-0.4-0.4-0.7-0.9-1-1.4
	c-0.3-0.6-0.7-1.1-1.2-1.5c-1.1-1.2-2.2-2.3-3.4-3.4c-0.8-0.7-1.5-1.5-2.2-2.3c-0.3-0.3-0.5-0.6-0.8-0.9c0.2,0,0.2-0.1,0.3-0.1
	c0.6,0.2,1.1,0.2,1.7,0.3c1.1,0.1,2.2,0.2,3.4,0.3c1.2,0.1,2.3,0.2,3.5,0.4c0.2,0,0.3,0.1,0.5,0.1c0.5,0.1,1.1,0.2,1.6,0.4
	c0.7,0.2,1.4,0.2,1.9,0.8c0.1,0,0.2,0.1,0.3,0.1c0.6,0.1,1.2,0.3,1.8,0.7c0.3,0.3,0.6,0.5,1,0.7c1.1,0.6,2.1,1.4,3,2.1
	c0.5,0.4,1,0.8,1.4,1.3c0.4,0.5,0.9,0.9,1.5,1.2c0.2,0.1,0.3,0.2,0.4,0.3c0.9,0.8,1.8,1.7,2.6,2.6c0.8,0.8,1.7,1.6,2.7,2.3
	c0.4,0.2,0.7,0.5,1,0.8c0.5,0.4,1,0.8,1.4,1.1c0.3,0.2,0.5,0.4,0.8,0.5c0.6,0.4,1.2,0.8,1.9,1.2c1,0.6,2,1.1,2.8,1.9
	c0.6,0.5,1.2,1.1,1.9,1.5c0.7,0.4,1.4,0.9,2.1,1.5c0.7,0.6,1.4,1.3,2.2,1.9c0.5,0.5,1.1,0.9,1.5,1.4c0.6,0.7,1.3,1.2,2,1.8
	c0.6,0.5,1.2,0.9,1.8,1.4c0.6,0.4,1.1,0.8,1.7,1.2c0.4,0.3,0.8,0.5,1.1,0.8c0.5,0.5,1,0.9,1.6,1.3c0.4,0.2,0.8,0.5,1.1,0.8
	c1.2,1,2.3,2,3.7,2.8c0.1,0.1,0.3,0.2,0.4,0.3c0.5,0.5,1.1,0.9,1.8,1.2c1.1,0.6,2.3,1.1,3.4,1.7c1,0.5,2,0.9,3,1.3
	c1,0.3,2,0.8,3.1,1c0.5,0.1,1,0.3,1.5,0.5c0.1,0,0.3,0.1,0.4,0.1c0.6,0.2,1.2,0.3,1.8,0.5c0.8,0.2,1.5,0.4,2.3,0.5
	c0.7,0.1,1.3,0.1,2,0.3c1.5,0.5,3.1,0.4,4.6,0.5c1,0,1.9,0.1,2.9,0c0.8,0,1.6,0.1,2.4,0.1c0.9,0,1.8,0.1,2.7,0.1
	c0.8,0,1.5,0.1,2.3,0c1-0.1,2-0.2,3-0.2c1.2,0,2.5-0.1,3.7-0.3c1.3-0.2,2.6-0.5,3.9-0.7c0.9-0.2,1.7-0.3,2.6-0.5
	c1.4-0.3,2.8-0.8,4.2-1.2c1.1-0.3,2.1-0.7,3.2-1.1c0.7-0.3,1.3-0.5,2-0.9c0.6-0.4,1.3-0.7,2-1c0.8-0.4,1.6-0.6,2.3-1
	c1.7-0.9,3.4-1.6,5.2-2.4c0.7-0.3,1.5-0.5,2.2-0.9c0.8-0.4,1.7-0.7,2.5-1c1.3-0.5,2.7-1,4.1-1.5c2-0.8,4.1-1.2,6.3-1.3
	c1,0,2,0.1,2.9,0.6c0.6,0.3,1.1,0.5,1.7,0.5c0.6,0.1,1.1-0.1,1.6-0.4c0.3-0.2,0.6-0.6,0.9-0.9c-0.2-0.9-0.2-1.8-0.7-2.5
	c-0.1-0.1-0.1-0.3-0.1-0.5c0-0.3,0-0.6,0.1-1c0-0.5,0.1-1,0.1-1.4c0-1.6-0.3-3.2-0.5-4.9c0-0.3-0.2-0.6-0.2-0.8c-0.3-1-0.7-2-1-3
	c-0.2-0.7-0.5-1.4-0.8-2.1c-0.3-0.7-0.6-1.3-0.9-2c-0.4-1-0.9-1.9-1.5-2.8c-0.2-0.2-0.3-0.5-0.5-0.7c-0.2-0.3-0.3-0.7-0.5-1
	c-0.1-0.3-0.3-0.5-0.6-0.6c0,0-0.1-0.1-0.1-0.1c0-0.1,0.1-0.3,0.1-0.4c-0.3-0.4-0.5-0.7-0.8-1c-0.4-0.5-0.7-1-1.1-1.5
	c-0.7-0.9-1.5-1.8-2.2-2.7c0-0.1-0.1-0.1-0.2-0.1c-0.2-0.1-0.4-0.3-0.6-0.4c-0.4-0.4-0.7-0.9-1-1.3c-0.5-0.7-1.1-1.2-1.8-1.6
	c-0.2-0.3-0.4-0.7-0.7-0.9c-0.5-0.3-0.9-0.7-1.4-1.1c-0.8-0.7-1.8-1.2-2.5-2c-0.2-0.2-0.5-0.3-0.7-0.5c0-0.1-0.1-0.1-0.1-0.2
	c0-0.1,0-0.1,0-0.2c0.1-0.1,0.1-0.1,0.2-0.2c0.8-0.4,1.6-1,2.3-1.6c0.3-0.3,0.6-0.5,0.9-0.8c0.7-0.5,1.4-1,1.8-1.7
	c0.1-0.1,0.2-0.2,0.3-0.3c0.7-0.6,1.4-1.1,2.1-1.7c0.5-0.4,0.9-1,1.4-1.5c0.7-0.7,1.4-1.6,1.9-2.4c0.6-0.9,1.3-1.8,1.6-2.9
	c0.1-0.3,0.3-0.6,0.4-0.9c0.6-1.1,1.2-2.2,1.6-3.4c0.2-0.5,0.4-0.9,0.6-1.4c0.2-0.4,0.4-0.8,0.5-1.2c0.5-1,1-2.1,1.6-3
	c0.7-1,1.4-1.9,2.2-2.8c0.5-0.6,1-1.2,1.9-0.9c0.1-0.6,0.6-0.5,1.1-0.6C243.1,132.5,243.2,132.2,243,131.8z M209.5,81.7
	c-0.2,0.1-0.4,0.2-0.6,0.3c-0.6-0.4-1.4,0-2-0.2c-0.1,0.2-0.1,0.3-0.2,0.4H206c0-0.1-0.1-0.2-0.1-0.3c-0.3,0-0.7,0.3-1.1,0.1
	c-0.3-0.1-0.7-0.2-1.1-0.1c0.2,0.1,0.3,0.2,0.4,0.2c0.8,0.1,1.6,0.1,2.4,0.2c0.7,0.1,1.5,0.1,2.2,0.2c0,0.3-0.1,0.4-0.3,0.5
	c-1,0.6-2,1.3-3.1,1.8c-0.6,0.2-1.1,0.6-1.6,1c-1,0.8-2.1,1.5-3.2,2c-0.9,0.4-1.8,0.7-2.8,1.1c-1.2,0.5-2.5,1-3.7,1.5
	c-0.9,0.4-1.8,0.7-2.7,0.9c-1.6,0.4-3,1-4.5,1.7c-0.3,0.1-0.6,0.2-0.9,0.4c-0.8-1-1.6-2-2.3-2.9c-0.7-1-1.6-1.9-2.4-2.8
	c-0.2-0.3-0.5-0.5-0.7-0.8c0.5-0.1,0.9-0.1,1.3-0.2c1.1-0.2,2.1-0.5,3.2-0.7c0.7-0.2,1.4-0.4,2.1-0.6c0.3-0.1,0.7-0.2,1.1-0.1
	c0.1,0,0.3,0,0.5,0c0.5-0.3,1.1-0.3,1.6-0.5c0.6-0.3,1.3-0.3,2-0.3c0.6,0,1.1,0,1.7-0.2c0.5-0.2,1.1-0.1,1.6-0.1c0.1,0,0.3,0,0.4,0
	c1.2-0.3,2.4-0.5,3.6-1.2c0.4-0.2,0.8-0.3,1.2-0.4c0.2-0.1,0.4-0.1,0.6-0.2c0.6-0.3,1.2-0.4,1.7-0.3c0.4-0.2,0.8-0.5,1.1-0.6
	c0.9-0.4,1.8-0.7,2.8-1c1-0.3,2-0.5,3-0.7c0.1,0,0.1,0,0.2,0C210,80.4,209.7,81,209.5,81.7z M186.2,104.6c0.1,0.7,0.5,1.3,1.1,2
	c-1.2-0.4-2.3-0.7-3.4-1.1c-0.4-0.1-0.7-0.4-1-0.5c-0.1-0.4-0.2-0.8-0.3-1.2c0.1-0.4,0.3-0.8,0.5-1.3c0.3-0.3,0.6-0.6,1-0.8
	c0.4-0.3,0.7-0.7,1-1.1c0.1-0.1,0.2-0.2,0.3-0.3c0,0.2,0.1,0.3,0.1,0.4c0,1,0.1,1.9,0.3,2.8c0.1,0.3,0.2,0.6,0.3,0.9
	C186.1,104.5,186.2,104.6,186.2,104.6z M209.9,76.9c-0.1,0-0.3,0.1-0.4,0.1c-0.9,0-1.7,0.1-2.6,0c-0.6-0.1-1.2,0-1.8,0
	c-0.2,0-0.4,0.1-0.7,0.1c0.6,0.3,1.1,0.7,1.8,0.6c-0.1,0.1-0.2,0.2-0.3,0.2c-1.8,0.6-3.5,1.3-5.3,2c-1.2,0.5-2.5,0.9-3.7,1.3
	c-0.5,0.2-0.9,0.4-1.4,0.5c-1.1,0.2-2.1,0.6-3.2,0.8c-1,0.3-1.9,0.6-2.8,0.9c-0.5,0.2-1,0.3-1.5,0.4c-2.6,0.6-5.2,1.1-7.9,1.3
	c-0.4,0-0.9,0.2-1.4,0.3c-0.2-0.2-0.5-0.4-0.8-0.6c-1.2-1.1-2.5-2.1-3.9-2.9c-0.2-0.2-0.5-0.3-0.8-0.4c-0.5-0.2-0.9-0.4-1.3-0.7
	c-1.1-0.7-2.2-1.2-3.3-1.8c-0.6-0.3-1.2-0.6-1.8-0.9c-0.1-0.1-0.3-0.2-0.4-0.2c-1.4-0.4-2.6-1.2-3.9-1.8c-0.6-0.3-1.2-0.6-1.9-0.8
	c-1.1-0.4-2.2-0.8-3.3-1.2c-0.6-0.2-1.2-0.3-1.8-0.5c-0.1,0-0.3-0.1-0.5-0.2c0.1-0.1,0.1-0.2,0.2-0.2c1.1-0.4,2.1-1,3.1-1.6
	c0.9-0.5,1.8-0.8,2.8-1.1c0.2-0.1,0.4-0.1,0.6-0.2c1.6-0.5,3.2-0.9,4.9-1.3c1.5-0.3,3-0.7,4.5-1c0.9-0.2,1.8-0.4,2.7-0.5
	c1.1-0.2,2.2-0.5,3.3-0.7c0.4-0.1,0.8-0.1,1.2-0.2c1.1,0,2.2,0,3.4,0c1,0,2-0.1,3-0.1c0.6,0,1.1,0.1,1.7,0.1
	c2.1,0.1,4.1,0.1,6.2,0.3c0.1,0,0.2,0,0.2,0c2.5,0,4.9,0.6,7.3,0.8c0.4,0,0.8,0.2,1.2,0.3c0.9,0.2,1.9,0.4,2.8,0.6
	c0.8,0.2,1.6,0.5,2.4,0.8c0.6,0.2,1.2,0.4,1.8,0.6c0.6,0.2,1.1,0.5,1.6,0.8c0.5,0.3,0.9,0.6,1.3,0.9c0.4,0.2,0.8,0.4,1.2,0.6
	c0.7,0.3,1.4,0.6,2,0.9c0.6,0.3,1,0.7,1.6,1.1c-0.8,0.5-1.5,0.9-2.2,1.3c-0.6,0.4-1.3,0.6-2,0.8C211.4,76.6,210.7,76.8,209.9,76.9z
	 M217.8,78.8c-0.9,0.9-1.8,1.8-2.9,2.5c-0.5,0.2-0.9,0.5-1.4,0.7c-0.4,0.1-0.7,0.3-1,0.5c-0.1,0.1-0.3,0.1-0.5,0.2
	c0-0.2,0-0.4,0.1-0.6c0.3-0.7,0.7-1.5,1.1-2.2c0.4-0.7,1-1.1,1.7-1.5c1-0.4,2.1-0.6,3.2-0.8c0.1,0,0.3,0,0.5,0
	C218.4,78.2,218.1,78.5,217.8,78.8z M119.8,67.4c0.4-0.5,0.8-1,1.2-1.5c0.3-0.4,0.6-0.8,0.8-1.3c0.5-0.9,1.1-1.5,1.8-2.3
	c0.2-0.2,0.4-0.5,0.5-0.7c0.4-0.8,0.9-1.5,1.4-2.1c0.6-0.7,1.2-1.4,1.8-2c0.4-0.5,0.9-0.9,1.4-1.3c0.4-0.3,0.9-0.6,1.4-0.9
	c0.5-0.3,0.9-0.6,1.3-1.1c0.2-0.3,0.7-0.5,1-0.8c0.4-0.3,0.8-0.5,1.2-0.8c0.5-0.3,1.1-0.6,1.4-1.2c0.1-0.1,0.2-0.2,0.3-0.2
	c1.3-0.7,2.6-1.6,3.9-2.4c0.8-0.5,1.6-1,2.5-1.5c0.5-0.3,0.9-0.8,1.4-1.3c-1.7,0.8-3.2,1.7-4.8,2.5c-1.5,0.8-2.9,1.8-4.5,2.5
	c-0.2-0.3-0.1-0.4,0.1-0.5c0.2-0.2,0.5-0.4,0.7-0.5c0.5-0.2,0.8-0.5,1.2-0.8c1.2-0.9,2.5-1.7,3.8-2.5c0.3-0.1,0.5-0.3,0.7-0.5
	c1.6-1,3.2-2,4.8-2.9c0.9-0.5,1.8-0.9,2.7-1.3c0.7-0.4,1.5-0.7,2.2-1.1c0.2-0.1,0.4-0.2,0.6-0.3c0.9-0.4,1.7-0.9,2.6-1.3
	c0.7-0.3,1.5-0.6,2.2-0.8c0.8-0.2,1.5-0.6,2.2-0.9c0.4-0.2,0.7-0.3,1.1-0.5c0.4-0.2,0.9-0.3,1.4-0.5c1.2-0.4,2.3-1,3.3-1.6
	c0.5-0.3,1-0.4,1.4-0.8c0.1-0.1,0.3-0.1,0.4-0.2c1-0.2,2-0.5,3-0.7c0.1,0,0.2,0,0.3-0.1c1-0.4,2-0.5,3-0.7c1-0.2,2-0.4,3-0.6
	c1.3-0.2,2.6-0.3,3.9-0.5c0.8-0.1,1.6-0.2,2.5-0.2c1.2-0.1,2.5-0.2,3.7-0.2c1.5-0.1,3-0.1,4.5-0.1c1.8,0,3.5,0.1,5.3,0.2
	c1,0.1,1.9,0.3,2.8,0.4c1.3,0.2,2.5,0.5,3.7,0.9c1,0.3,2,0.6,3,0.8c0.4,0.1,0.8,0.1,1.1,0.4c0.1,0.1,0.3,0.1,0.4,0.2
	c0.6,0.2,1.2,0.4,1.8,0.6c0.8,0.3,1.6,0.7,2.3,1.1c0.1,0.1,0.3,0.1,0.4,0.2c1.4,0.5,2.8,1.1,4.2,1.6c0.2,0.1,0.5,0.2,0.7,0.4
	c0.7,0.4,1.4,0.8,2.2,1.2c0.3,0.2,0.6,0.3,1,0.4c0.8,0.3,1.6,0.6,2.4,0.9c0.4,0.2,0.9,0.4,1.3,0.6c0.4,0.2,0.8,0.4,1.2,0.4
	c0.1,0,0.2,0,0.2,0.1c1.4,0.8,2.9,1.1,4.4,1.3c0.6,0.1,1.3,0.2,2,0.4c-0.6,0.6-1.1,1-1.7,1.4c-0.2,0.2-0.5,0.3-0.8,0.4
	c-0.1,0.1-0.2,0.1-0.3,0.1c-0.9,0.2-1.8,0.6-2.6,0.9c-0.6,0.2-1.2,0.3-1.8,0.4c-1,0.2-2.1,0.3-3.1,0.5c-1,0.2-2,0.2-2.9,0.3
	c-0.2,0-0.4,0-0.6,0.1c-0.9,0.1-1.8,0.3-2.7,0.4c-0.8,0.1-1.5,0.3-2.3,0.4c-1.3,0.3-2.6,0.6-3.9,0.9c-0.1,0-0.3,0.1-0.4,0.1
	c-0.7,0.3-1.4,0.4-2.2,0.6c-0.9,0.2-1.8,0.4-2.6,0.8c-0.4,0.2-1,0.3-1.4,0.5c-1,0.3-1.9,0.7-2.8,1.1c-1.1,0.5-2.2,0.9-3.3,1.3
	c-0.3,0.1-0.6,0.2-0.9,0.4c-0.5,0.2-1.1,0.5-1.6,0.8c-1.1,0.6-2.1,1.1-3.2,1.7c-0.4,0.2-0.7,0.6-1.1,0.6c-0.1,0-0.1,0.1-0.2,0.3
	c0.2,0,0.3,0,0.4,0c0.6-0.3,1.1-0.5,1.6-0.8c0.7-0.5,1.4-0.6,2.1-1c0.7-0.4,1.5-0.6,2.2-1c1.3-0.7,2.7-1,4-1.5
	c1.5-0.6,3-1.1,4.5-1.6c1.1-0.3,2.2-0.6,3.3-0.9c1.3-0.3,2.7-0.6,4-1c1.4-0.4,2.8-0.6,4.2-0.8c2.1-0.3,4.2-0.5,6.4-0.8
	c1-0.1,2.1-0.3,3.1-0.5c1.6-0.3,3.1-0.8,4.5-1.5c0.7-0.4,1.3-0.9,2-1.3c0.3-0.2,0.6-0.4,1-0.5c0.1,0.4-0.1,0.8-0.2,1.1
	c-0.1,0.2-0.2,0.5-0.2,0.7c-0.2,0.7-0.3,1.5-0.2,2.2c0.1,0.8,0.2,1.5,0.3,2.3c0.1,0.7,0,1.5,0,2.2c0,0.2,0,0.3,0,0.5
	c0.1,0,0.2,0,0.3-0.1c0,0,0.1,0.1,0.1,0.1c0.2,1,0.1,2,0,2.9c0,0.4,0,0.8-0.1,1.2c0,0.2,0,0.4,0,0.6c-0.2,1.1-0.4,2.3-0.6,3.4
	c-0.1,0.5-0.3,1-0.5,1.4c-0.4,0.8-0.8,1.7-1.2,2.5c-0.2,0.5-0.5,0.9-0.7,1.3c-0.2,0.4-0.4,0.7-0.6,1.1c-0.3,0.5-0.6,1.1-1,1.5
	c-0.1,0.1-0.1,0.1-0.1,0.2c-0.5,0.9-1.2,1.5-1.9,2.1c-0.4,0.4-0.8,0.8-1.2,1.2c-0.5,0.4-0.9,0.9-1.4,1.3c-0.2,0.2-0.4,0.4-0.7,0.7
	c-1-0.1-2-0.4-2.9-1.1c-0.6-0.4-1.2-0.7-1.8-0.9c-0.9-0.4-1.9-0.7-2.9-1c-0.6-0.2-1.1-0.5-1.5-0.9c-0.4-0.4-0.9-0.7-1.5-0.9
	c-0.2-0.1-0.4-0.2-0.6-0.2c-1-0.2-1.9-0.6-2.9-1c-0.7-0.3-1.4-0.4-2.2-0.6c-1.4-0.3-2.7-0.6-4.1-0.9c-0.5-0.1-1-0.2-1.5-0.3
	c-0.9-0.2-1.8-0.3-2.7-0.5c-2.1-0.3-4.2-0.6-6.3-0.8c-1.1-0.1-2.2-0.1-3.4-0.2c-0.5,0-1-0.1-1.4-0.1c-0.8,0-1.6,0-2.4,0
	c-1.1,0.1-2.2,0.2-3.4,0.3c-2.2,0.2-4.4,0.8-6.5,1.3c-0.9,0.2-1.8,0.4-2.7,0.5c-0.5,0.1-1.1,0.2-1.6,0.3c-0.9,0.2-1.8,0.4-2.6,0.7
	c-1,0.3-2.1,0.4-3.2,0.9c-0.3,0.1-0.6,0.3-0.9,0.4c-0.2,0.1-0.4,0.2-0.7,0.2c-0.7,0.1-1.3,0.3-1.9,0.7c-0.1,0.1-0.2,0.1-0.3,0.1
	c-0.6,0.2-1.1,0.4-1.6,0.8c-0.5,0.4-1.2,0.6-1.7,1.1c-0.2,0.2-0.5,0.2-0.7,0.4c-0.3,0.1-0.6,0.3-0.9,0.5c-0.1,0-0.4-0.1-0.6-0.2
	c-1-0.5-2.1-0.6-3.1-1c-0.1,0-0.1,0-0.2,0c-1.2-0.4-2.4-0.7-3.7-1.1c-0.6-0.2-1.2-0.3-1.9-0.5c-0.1,0-0.2,0-0.2,0
	c-1.1-0.4-2.3-0.5-3.5-0.8c-0.8-0.2-1.5-0.3-2.3-0.5c-1.3-0.2-2.6-0.4-3.9-0.6c-0.5-0.1-1-0.2-1.5-0.2c-2,0-4-0.2-6-0.1
	c-0.6,0-1.2,0-1.8,0c-1.5,0-2.9,0.2-4.4,0.5c-0.5,0.1-1,0.1-1.6,0C119.3,68.1,119.5,67.7,119.8,67.4z M68.9,82.3
	c0.2-2.6,0.3-5.2,0.6-7.8c0.2-1.2,0.2-2.4,0.3-3.6c0.1-2,0.2-4,0.4-6.1c0.1-0.8,0.2-1.5,0.3-2.3c0-0.2,0.1-0.4,0.1-0.6
	c0-1,0.1-2,0.3-3c0.2-1.2,0.3-2.4,0.5-3.6c0.1-0.9,0.3-1.8,0.6-2.7c0.3-1,0.5-2,0.8-3c0.2-0.7,0.5-1.5,0.8-2.2
	c0.4-0.8,0.7-1.7,1-2.5c0.5-1.4,1.3-2.6,1.9-3.9c0.2-0.5,0.4-1,0.6-1.5c0.3-0.7,0.6-1.5,0.9-2.2c0.3-0.7,0.6-1.4,0.9-2.1
	c0.4-0.9,0.7-1.7,1.1-2.6c0.5-1.2,0.9-2.5,1.2-3.8c0.4-1.5,0.6-3.1,0.9-4.7c0.1-0.4,0.2-0.7,0.2-1.1c0-0.2,0.1-0.4,0.1-0.6
	c0.1-2.4,0.3-4.7,0.1-7.1c-0.1-1.1-0.1-2.2-0.2-3.4c-0.1-1.1-0.2-2.1-0.6-3.1c-0.2-0.6-0.4-1.3-0.6-2c-0.3-0.7-0.4-1.3-0.5-2
	c-0.1-0.4-0.3-0.7-0.5-1.2c0.4,0.2,0.5,0.4,0.6,0.7c0.2,0.4,0.5,0.7,0.8,1c0.6,0.5,1.2,1.1,1.7,1.7c0.9,0.9,1.7,1.7,2.6,2.6
	c0.7,0.7,1.4,1.5,1.7,2.5c0.1,0.4,0.4,0.8,0.6,1.1c0.2,0.4,0.3,0.8,0.5,1.2c0.3,1,0.6,2,0.9,3c0.2,0.5,0.3,1,0.4,1.4
	c0.2,0.6,0.3,1.3,0.3,2c0,0.2,0,0.3,0,0.5c0.4,1,0.3,2.1,0.4,3.1c0,0.4-0.1,0.8-0.1,1.3c0,0.4,0,0.8-0.1,1.2c-0.1,0.5-0.2,1-0.3,1.5
	c-0.1,0.5-0.1,1-0.2,1.5c-0.1,0.7-0.3,1.3-0.3,2c0,0.7,0,1.3,0.1,2c0-0.2,0-0.4,0.1-0.5c0.1-0.2,0.2-0.3,0.2-0.5c0,0,0-0.1,0-0.2
	c-0.1-0.8,0.4-1.5,0.5-2.3c0.1-0.8,0.3-1.6,0.4-2.4c0.2-1,0.3-1.9,0.3-2.9c0-1.4-0.2-2.7-0.4-4.1c-0.1-0.8-0.1-1.5-0.2-2.3
	c-0.1-0.4-0.2-0.9-0.4-1.3c0-0.1-0.1-0.2-0.1-0.4c-0.1-1-0.6-2-0.8-3c0-0.2-0.1-0.3-0.2-0.5c-0.1-0.6-0.6-1-0.8-1.5
	c-0.2-0.5-0.5-1-0.8-1.5c0-0.1-0.1-0.2-0.2-0.3c-0.8-0.9-1.5-2-2.5-2.8c-0.3-0.2-0.6-0.6-0.8-0.9c-0.7-0.8-1.4-1.5-2.3-2.1
	C82,4.3,81.9,4.1,81.7,4c-0.4-0.5-0.8-1-1.2-1.5c-0.2-0.2-0.3-0.5-0.4-0.8c0.4,0,0.6,0.1,0.9,0.1c0.7,0.2,1.5,0.4,2.2,0.7
	c0.8,0.3,1.5,0.6,2.2,0.9c0.9,0.4,1.7,0.8,2.5,1.2c0.8,0.4,1.6,0.9,2.4,1.3c0,0,0.1,0,0.1,0.1c0.5,0.6,1.2,1,1.7,1.5
	c0.4,0.3,0.8,0.7,1.2,1.1c1.1,1,2.1,2.1,3,3.2c0.7,0.8,1.4,1.6,2.1,2.5c0.8,1.1,1.6,2.1,2.3,3.2c0.2,0.4,0.4,0.7,0.6,1.1
	c0.4,0.9,0.9,1.8,1.3,2.8c0.1,0.2,0.2,0.5,0.2,0.8c0.2,0.7,0.5,1.5,0.7,2.2c0.3,1.2,0.5,2.4,0.7,3.5c-0.1,0.5,0,0.9,0.1,1.3
	c0,0.8,0.1,1.7,0.1,2.5c0,0.3,0.1,0.6,0.1,1c0,1.2,0.1,2.5,0.1,3.7c0,1.1-0.3,2.1-0.5,3.2c-0.2,1.2-0.7,2.4-1.1,3.6
	c-0.3,0.8-0.6,1.6-0.8,2.4c-0.2,0.9-0.6,1.7-1,2.5c-0.2,0.3-0.3,0.6-0.4,1c-0.3,1-0.7,2-1.1,2.9c-0.4,1-0.8,2-1.1,3.1
	c-0.2,0.6-0.4,1.1-0.6,1.7c-0.7,1.8-1.3,3.6-1.8,5.4c-0.2,0.6-0.4,1.2-0.6,1.7c-0.8,2.5-1.6,4.9-2.4,7.4c-0.6,1.7-1.1,3.5-1.6,5.2
	c-0.2,0.9-0.4,1.8-0.6,2.7c-0.3,1.3-0.6,2.5-1,3.8c-0.2,0.9-0.3,1.7-0.4,2.6c-0.1,1.2-0.2,2.3-0.3,3.5c0,0.4-0.2,0.8-0.3,1.2
	c-0.6,0.1-1.2,0-1.7,0c-0.3,0-0.6-0.1-1,0c-0.3,0.1-0.5,0.1-0.8,0.1c-1.2,0-2.3,0.2-3.5,0.5c-0.3,0.1-0.5,0.2-0.7,0.3
	c-0.8,0.3-1.5,0.8-2.2,1.2c-0.2,0.1-0.3,0.3-0.4,0.4c-0.1,0.1-0.3,0.3-0.4,0.3c-0.6,0.3-1.1,0.8-1.6,1.3c-0.6,0.6-1.1,1.2-1.8,1.7
	c-0.4,0.3-0.7,0.6-1,1c-0.4,0.6-0.9,1-1.4,1.5c-0.5,0.5-1,1.1-1.4,1.7c-0.2,0.2-0.3,0.4-0.5,0.6c-0.3,0.3-0.6,0.5-0.9,0.8
	c-0.1,0.1-0.2,0.1-0.4,0.2c0-0.3,0-0.6,0-0.8c0.1-1.3-0.1-2.6-0.2-3.9c0-0.1,0-0.2-0.1-0.3c-0.2-2.7-0.5-5.4-0.5-8.1
	C68.7,86.5,68.8,84.4,68.9,82.3z M51.2,128.2c0.9-1.1,2-2,3-3.1c0.4-0.4,1-0.7,1.5-1.1c1.3-1.1,2.5-2.4,3.7-3.6
	c0.5-0.6,1.2-1,1.7-1.6c1.1-1.4,2.3-2.7,3.3-4.2c0.9-1.3,1.7-2.6,2.5-3.9c0.3-0.5,0.6-1,0.7-1.6c0.2-0.6,0.4-1.2,0.7-1.8
	c0.5-1,0.6-2.1,0.9-3.1c0-0.1,0.1-0.3,0.1-0.4c0.1-0.5,0.4-0.9,0.8-1.1c0.9-0.5,1.6-1.2,2.4-1.9c0.1-0.1,0.2-0.2,0.3-0.4
	c0.4-0.6,0.9-1.1,1.4-1.6c0.5-0.5,0.9-1.1,1.4-1.6c0.7-0.7,1.5-1.4,2.3-2.1c0.4-0.3,0.8-0.7,1.1-1c0.1-0.1,0.2-0.1,0.4-0.2
	c0,0.4-0.3,0.5-0.4,0.7c-0.1,0.2-0.3,0.4-0.4,0.6c0.3,0,0.4-0.1,0.5-0.2c0.9-0.8,2-1.1,3.1-1.6c0.3-0.1,0.7-0.1,1.1-0.1
	c0.8,0,1.6,0,2.4-0.2c0.6-0.1,1.3,0,1.9,0c1.1,0,2.1-0.1,3.1-0.3c0.3-0.1,0.6-0.1,0.9-0.1c0.5,0,0.9,0.1,1.3-0.1
	c0.1-0.1,0.3,0,0.5,0c0.9,0.2,1.9,0.1,2.8-0.2c1-0.3,1.9-0.4,2.9-0.5c1.4-0.1,2.6-0.7,3.7-1.4c0.3-0.2,0.6-0.4,0.8-0.6
	c0.3,0.2,0.3,0.4,0.2,0.5c-0.3,0.6-0.4,1.2-0.5,1.8c-0.1,0.5-0.3,0.9-0.7,1.2c-0.5,0.4-0.9,0.9-1.3,1.4c-0.1,0.1-0.3,0.3-0.5,0.4
	c-0.7,0.5-1.5,1-2.2,1.4c-0.7,0.5-1.5,0.9-2.1,1.4c-0.8,0.7-1.7,1.3-2.5,2c-0.3,0.2-0.5,0.5-0.8,0.8c0.4-0.1,0.7-0.3,1-0.5
	c0.3-0.2,0.5-0.3,0.9-0.3c0.4-0.1,0.8-0.2,1.1-0.4c0.6-0.3,1.2-0.6,1.9-0.7c0.7-0.5,1.7-0.6,2.3-1.2c0.5-0.5,1.2-0.8,1.8-1.1
	c0.5-0.3,0.9-0.7,1.3-1c0.3-0.2,0.5-0.5,0.8-0.8c0.3-0.3,0.4-0.8,0.5-1.2c0.4-1.4,0.7-2.8,0.9-4.2c0.1-0.6,0.2-1.3,0.3-1.9
	c0.1-1.1,0.4-2.1,0.4-3.2c0.1-1.8,0.3-3.6,0.7-5.3c0-0.2,0.2-0.4,0.3-0.6c0.2-0.4,0.4-0.8,0.5-1.3c0.1-0.7,0.6-1.3,1-1.8
	c0.3-0.4,0.7-0.8,1.1-1.1c0.5-0.5,1-1,1.7-1.1c0.3-0.1,0.6-0.3,0.8-0.4c1.1-0.8,2.4-1.2,3.7-1.8c0.8-0.3,1.7-0.4,2.5-0.7
	c0.2-0.1,0.5-0.1,0.8,0c0.9,0.2,1.8,0,2.7,0.1c1,0.1,1.9-0.1,2.9-0.1c0.7,0,1.4,0.1,2.2,0.1c0.7,0,1.4-0.1,2.2-0.1
	c0.5,0,1.1,0,1.6,0c0.6,0,1.2,0.1,1.8,0.1c1.1,0,2.2,0.1,3.3,0.2c0.3,0,0.6,0.1,0.9,0.2c1.3,0.2,2.6,0.3,3.9,0.5
	c0.5,0.1,1.1,0.2,1.6,0.3c0.3,0.1,0.7,0.1,1,0.1c0.7,0.1,1.5,0,2.2,0.2c0.8,0.1,1.6,0.4,2.4,0.6c0.6,0.2,1.2,0.4,1.8,0.7
	c0.5,0.2,0.9,0.5,1.4,0.7c0.2,0.1,0.5,0.3,0.7,0.3c1,0.3,2.1,0.6,3.2,0.9c1,0.3,1.9,0.6,2.9,1c0.1,0,0.2,0.1,0.3,0.1
	c0.7,0.4,1.5,0.8,2.2,1.1c0.8,0.4,1.5,0.8,2.2,1.2c0.8,0.5,1.6,0.9,2.5,1.3c0.7,0.3,1.4,0.6,2.1,1c1,0.5,1.9,1,2.9,1.5
	c0.7,0.4,1.4,0.8,2.3,0.6c0.5,0.4,1,0.7,1.5,1.1c0.2,0.1,0.3,0.3,0.5,0.4c1.3,0.7,2.3,1.8,3.5,2.7c0.5,0.4,0.9,1,1.4,1.4
	c0.2,0.5,0.7,0.8,1,1.2c0.3,0.5,0.6,1,0.9,1.5c0.2,0.4,0.5,0.8,0.7,1.2c0.2,0.3,0.4,0.7,0.5,1c0.1,0.3,0.2,0.6,0.4,0.8
	c0.1,0.1,0.1,0.2,0.2,0.3c0.7,0.9,0.8,1.9,0.6,2.9c0,0.1,0,0.3,0,0.4c-0.1,0.6-0.3,1.1-0.7,1.5c-0.5,0.5-1,1.1-1.4,1.7
	c-0.1,0-0.3,0-0.4,0c-0.6-0.3-1.1-0.1-1.7-0.2c-0.6-0.1-1.1-0.1-1.7-0.1c-1-0.1-2.1-0.2-3.1-0.3c-0.9-0.1-1.9-0.1-2.8-0.1
	c-1.5,0-2.9,0-4.4-0.1c-1.5-0.1-3.1-0.2-4.6-0.2c-0.7,0-1.3,0-2,0.1c-1,0.1-1.9,0.1-2.9,0.2c-0.7,0.1-1.4,0-2.1,0.1
	c-0.8,0-1.6-0.1-2.3,0.3c-0.1,0.1-0.3,0.1-0.5,0.1c-0.5,0-0.9,0-1.3,0.3c-0.7-0.1-1.2,0.3-1.9,0.4c-0.3,0-0.6,0.1-0.9,0.3
	c-0.2,0.1-0.4,0.2-0.6,0.2c-0.6,0-1.1,0.2-1.6,0.4c-0.4,0.1-0.8,0.4-1.3,0.7c-0.1,0.1-0.2,0.2-0.3,0.2c-1,0.1-2,0.5-2.9,0.7
	c-0.9,0.2-1.8,0.7-2.7,1c-0.1,0-0.1,0.1-0.2,0.2c0,0.1,0,0.2,0.1,0.4c0.3-0.1,0.6-0.1,0.9-0.3c0.6-0.3,1.4-0.5,2-0.7
	c0.5-0.1,1-0.3,1.4-0.5c0.7-0.2,1.3-0.4,2-0.6c0.1,0,0.2,0,0.3-0.1c0.8-0.4,1.8-0.6,2.7-0.8c0.9-0.2,1.7-0.5,2.6-0.7
	c2.1-0.4,4.2-0.7,6.4-0.7c1.3,0,2.6-0.1,3.8-0.1c2.2,0,4.4,0.1,6.6,0.2c0.6,0,1.2,0.1,1.8,0.1c0.6,0,1.2,0,1.8,0
	c1.4-0.1,2.7,0.1,4.1,0.2c1,0.1,2.1,0.1,3.1,0.2c0.5,0.1,1,0.2,1.5,0.3c0.1,0,0.2,0.1,0.3,0.2c-0.6,0.6-0.7,1.3-0.9,2
	c-0.2,0.5-0.2,1.1,0,1.7c0,0.1,0,0.1,0.1,0.1c0.6,0.5,0.9,1.2,1.7,1.4c0.8,0.2,1.6,0.5,2.3,0.8c0.8,0.3,1.6,0.7,2.3,1.2
	c0.4,0.3,0.7,0.8,1,1.2c0.2,0.3,0.3,0.6,0.4,0.8c0.3,0.1,0.6,0.3,0.8,0.4c0.3,1.1,0.1,2.1-0.3,3.1c-0.3,0.8-0.6,1.7-0.9,2.5
	c-0.2,0.5-0.3,0.9-0.5,1.3c-0.6,1.4-1.2,2.8-1.8,4.1c-0.4,0.8-0.8,1.7-1.2,2.4c-0.8,1.2-1.4,2.5-1.9,3.8c-0.5,1.2-1.2,2.3-1.8,3.4
	c-0.4,0.7-0.7,1.4-1.1,2.1c-0.1,0.3-0.3,0.5-0.5,0.7c-0.7,0.9-1.3,1.8-2,2.7c-0.7,1-1.3,1.9-2,2.9c0,0,0,0.1-0.1,0.1
	c-1,1.2-2,2.3-3.1,3.3c-0.9,0.8-1.8,1.5-2.6,2.3c-1.4,1.3-2.8,2.6-4.4,3.7c-0.6,0.4-1.2,0.8-1.8,1.2c-0.8,0.6-1.7,0.9-2.6,1.3
	c-0.7,0.3-1.4,0.6-2.1,0.8c-1.2,0.4-2.4,0.8-3.6,1.2c-0.7,0.2-1.3,0.5-1.9,0.7c-0.8,0.3-1.5,0.4-2.3,0.5c-2.3,0.3-4.6,0.4-6.9,0.4
	c-1,0-2,0-3-0.1c-0.5,0-1-0.1-1.5-0.2c-0.9-0.1-1.7-0.2-2.6-0.4c-1.1-0.3-2.2-0.6-3.3-0.8c-0.1,0-0.1-0.1-0.2-0.1
	c-1.3-0.1-2.6-0.7-3.9-1c-2-0.5-3.8-1.4-5.6-2.1c-0.8-0.4-1.6-0.8-2.4-1.2c-0.6-0.3-1.2-0.7-1.8-1.1c-0.6-0.4-1.3-0.9-2-1.2
	c-0.7-0.4-1.3-0.8-1.9-1.3c-2-1.5-4.3-2.5-6.7-3.1c-0.9-0.2-1.8-0.6-2.7-0.9c-0.4-0.1-0.8-0.3-1.2-0.3c-1.3-0.3-2.7-0.5-4.1-0.8
	c0,0-0.1,0.1-0.1,0.2c-1,0-2,0-3,0c-0.6,0-1.3,0.1-1.8,0.5c-0.1,0.1-0.3,0.1-0.5,0.1c-0.1,0-0.3,0.1-0.4,0.1
	c0.1,0.1,0.1,0.2,0.1,0.1c0.9-0.2,1.9-0.1,2.8-0.1c1.6,0,3.2,0.3,4.8,0.4c1.5,0.1,2.9,0.5,4.3,1.1c0.7,0.2,1.4,0.5,2,0.9
	c0.2,0.1,0.4,0.3,0.6,0.5c0.2,0.2,0.6,0.4,0.9,0.5c0.7,0.3,1.4,0.7,2.1,1c0,0.3-0.2,0.3-0.4,0.3c-1,0.1-2,0.4-3,0.8
	c-0.4,0.1-0.9,0.3-1.3,0.5c-0.9,0.5-1.7,1-2.6,1.5c-0.2,0.1-0.4,0.3-0.6,0.5c0.5,0,0.8-0.3,1.1-0.4c0.3-0.1,0.7-0.3,1-0.4
	c0.3-0.1,0.7-0.2,1-0.3c-0.6,0.5-1.3,0.9-2,1.2c-1,0.5-2.1,1-3.2,1.4c-1.2,0.5-2.5,0.9-3.7,1.3c-0.4,0.1-0.9,0.1-1.4,0.3
	c-1,0.3-2.1,0.3-3.1,0.6c-0.8,0.2-1.7,0.3-2.6,0.4c-1,0.1-2.1,0.3-3.1,0.4c-1.1,0.1-2.2,0.1-3.3,0.1c-1.7-0.1-3.4-0.2-5-0.2
	c-1.4-0.1-2.7-0.4-4-0.8c-0.3-0.1-0.5-0.1-0.9,0c-0.2,0.1-0.5,0-0.8,0c-0.9-0.9-1.4-2-1.9-3.1c-0.2-0.1-0.5-0.1-0.6-0.4
	c-0.2-0.2-0.4-0.4-0.6-0.6c-0.6-0.5-1-1.1-1.4-1.7c-0.4-0.6-0.9-1.1-1.4-1.7c-0.6-0.7-1.2-1.5-1.7-2.3c-0.8-1.4-1.7-2.6-2.9-3.7
	c-1.5-1.4-3-2.7-4.8-3.8c-0.9-0.6-1.9-1.2-2.8-1.8c-1.1-0.6-2.2-1-3.6-1.2c-0.1-0.1-0.3-0.3-0.3-0.5c-0.2-0.8-0.8-1.3-1.3-1.9
	c-0.3-0.4-0.6-0.7-0.9-1.1C50.5,129.3,50.8,128.7,51.2,128.2z M181.9,174.4c-0.1,0-0.2,0-0.3,0.1c-0.7,0.3-1.4,0.7-2,1.1
	c-0.6,0.5-1.3,0.8-1.9,1.3c-0.4,0.2-0.7,0.5-1.1,0.9c-0.6,0-1.3-0.1-2-0.1c-1.8-0.1-3.5-0.3-5.3-0.6c-0.9-0.1-1.7-0.3-2.5-0.7
	c-0.1-0.3-0.1-0.5,0.1-0.6c0.3-0.5,0.6-1,1.1-1.5c0.2-0.2,0.4-0.4,0.6-0.6c-0.1-0.1-0.1-0.2-0.2-0.3c-0.9,0.4-1.6,1-2.1,1.8
	c-0.1,0.2-0.4,0.4-0.6,0.7c-2.5-0.7-4.9-1.7-7.2-2.8c0.2-0.3,0.3-0.5,0.5-0.8c-0.2-0.1-0.3-0.2-0.5-0.2c-0.5,0.1-0.9,0.3-1.5,0.5
	c-0.7-0.2-1.6-0.5-2.4-0.9c-1.1-0.6-2.3-1.2-3.4-1.8c-0.3-0.1-0.5-0.3-0.7-0.5c-0.6-0.4-1.2-0.7-1.8-1c-1.3-0.7-2.6-1.6-3.8-2.5
	c-1.7-1.2-3.5-2.4-5.3-3.6c-0.5-0.3-1-0.7-1.5-1c-0.2-0.1-0.4-0.2-0.5-0.3c0,0-0.1,0.1-0.1,0.1c0.3,0.4,0.7,0.7,1.1,1
	c0.4,0.3,0.9,0.6,1.3,1c0.4,0.3,0.8,0.6,1.1,1c0.3,0.4,0.9,0.4,1.2,1.1c-0.2-0.1-0.4-0.1-0.5-0.2c-0.3-0.3-0.7-0.5-1-0.8
	c-0.7-0.6-1.4-1.1-2.1-1.6c-0.4-0.2-0.7-0.5-1-0.8c-1-0.8-2-1.6-3.1-2.3c-0.7-0.5-1.3-1.1-1.9-1.8c0.3-0.1,0.5-0.1,0.8-0.2
	c0.4,0.2,0.7,0.2,1,0.5c0,0,0.1,0.1,0.1,0.1c0.9,0.1,1.7,0.5,2.6,0.4c0.1,0,0.2,0,0.2,0c1.1,0.1,2.2,0.3,3.2,0.4c0.5,0,1.1,0,1.6,0
	c0.6,0,1.2,0,1.8,0c0,0,0.1,0,0.1,0c0.8-0.2,1.6,0.1,2.5,0.2c0.4,0.1,0.9,0.2,1.3,0.4c0.4,0.2,0.9,0.4,1.4,0.4
	c0.8,0.1,1.4,0.4,2.2,0.6c0.8,0.2,1.6,0.5,2.4,0.7c0.4,0.1,0.8,0.3,1.2,0.4c0.6,0.2,1.2,0.3,1.8,0.7c0.2,0.2,0.6,0.2,0.8,0.2
	c0.8,0.2,1.6,0.5,2.4,0.5c0.4,0,0.8,0.2,1.2,0.3c0.6,0.3,1.1,0.5,1.7,0.7c0.8,0.2,1.6,0.4,2.4,0.7c1.1,0.3,2.1,0.7,3.2,1.1
	c1,0.3,1.9,0.7,2.9,0.8c0.1,0,0.2,0,0.3,0.1c1.3,0.7,2.7,1,4.1,1.4c0.8,0.3,1.6,0.5,2.5,0.7c1.5,0.4,3,1.1,4.4,1.6
	c0.7,0.3,1.4,0.5,2.1,0.6c0.3,0,0.6,0.1,0.9,0.2c0.9,0.5,1.9,0.8,2.9,1c1.3,0.3,2.4,0.9,3.6,1.3c0.5,0.2,0.9,0.4,1.4,0.5
	c0.2,0.1,0.3,0.1,0.5,0.1c1.3,0.1,2.5,0.6,3.7,1.1c1,0.4,1.9,0.8,2.9,1.2c0.4,0.2,0.9,0.3,1.3,0.4c0.1,0,0.2,0.1,0.4,0.2
	c-0.1,0-0.1,0.1-0.1,0.1c-1-0.2-2-0.2-2.9-0.4c-1-0.2-2-0.2-2.9-0.3c-0.8,0-1.5-0.1-2.3-0.1c-1.4,0.1-2.9-0.1-4.3,0.1
	c-1,0.1-1.9,0.2-2.9,0.4c-0.7,0.1-1.3,0.2-2,0.3c-0.9,0.1-1.7,0.3-2.6,0.4c-0.7,0.1-1.4,0.2-2.1,0.2c-0.6,0-1.3,0-1.9,0.1
	c-0.1,0-0.2,0-0.4-0.1c0.1-0.1,0.2-0.2,0.2-0.3c0.7-0.6,1.4-1.1,2.1-1.7c0.5-0.3,1-0.6,1.5-1C181.9,174.7,182,174.6,181.9,174.4z
	 M132.8,158.9c0.9,0.9,1.8,1.8,2.7,2.6c0.4,0.3,0.8,0.6,1.2,0.9c1.9,1.4,3.8,2.8,5.7,4.2c0.5,0.3,1,0.6,1.5,0.8
	c0.6,0.2,1.1,0.6,1.6,0.9c0.2,0.1,0.4,0.2,0.6,0.3c0.3,0.1,0.5,0.3,0.6,0.6c0.1,0.3,0.3,0.5,0.6,0.6c0.7,0.5,1.4,1,2.2,1.4
	c0.6,0.3,1.1,0.8,1.7,1.2c0.4,0.3,0.8,0.6,1.3,0.8c0.5,0.3,1.1,0.5,1.5,0.8c0.2,0.2,0.5,0.2,0.8,0.4c0.8,0.3,1.6,0.7,2.5,1
	c0.8,0.3,1.6,0.5,2.4,0.8c0.8,0.2,1.6,0.4,2.4,0.7c0.1,0,0.2,0.1,0.2,0.1c1.2,0.8,2.5,1.2,3.8,1.6c1.2,0.3,2.3,0.5,3.5,0.7
	c1,0.1,1.9,0.3,2.9,0.4c0.6,0.1,1.1,0.1,1.7,0.1c0.4,0,0.8,0,1.3,0.2c0.5,0.2,1,0.1,1.5,0.1c0.6-0.1,1.2-0.1,1.8-0.1
	c0.2,0,0.4,0,0.6,0.1c0.4,0.3,0.9,0.2,1.4,0.2c0.5,0,1-0.1,1.5-0.2c0.3,0,0.6-0.1,0.8-0.4c0.5,0.2,0.9,0.1,1.4,0
	c0.5-0.2,1-0.1,1.5-0.2c0.7,0,1.3-0.2,2-0.2c0.2,0,0.4-0.1,0.6-0.1c0.5-0.2,1.1-0.2,1.6-0.2c1.1,0.2,2.2,0.1,3.3,0.1
	c0.6,0,1.2-0.1,1.8-0.1c1,0,2.1,0,3.1,0.1c0.6,0,1.2,0,1.8,0c0.3,0,0.7,0,0.9,0.1c0.6,0.2,1.2,0.2,1.8,0.3c0.4,0,0.8,0.1,1.2,0.1
	c0.4,0,0.7,0.1,1.1,0.1c0.5,0,1,0.1,1.5,0.3c0.3,0.1,0.6,0.2,0.9,0.3c0,0.2-0.2,0.2-0.3,0.2c-0.8,0.1-1.5,0.1-2.3,0.2
	c-1.2,0.1-2.3,0.3-3.5,0.5c-0.7,0.1-1.5,0.3-2.2,0.5c-0.3,0.1-0.5,0.2-0.8,0.3c-1.2,0.4-2.5,0.6-3.8,0.7c-0.7,0-1.3,0.1-2,0.1
	c-1.1,0-2.2,0.1-3.3,0.1c-0.6,0-1.1-0.1-1.7-0.2c-0.5-0.1-0.9-0.1-1.4-0.2c-0.1,0-0.1,0-0.2,0c-1.2,0.1-2.4-0.1-3.6-0.1
	c-0.7,0-1.3-0.1-2-0.1c-0.6,0-1.2-0.1-1.8-0.1c-0.5,0-1-0.1-1.4-0.1c-1.2-0.2-2.3-0.4-3.5-0.5c-2.7-0.3-5.3-0.6-7.9-1.3
	c-0.4-0.1-0.9-0.1-1.3-0.2c-1.5-0.4-3.1-0.8-4.6-1.2c-1.5-0.4-2.9-1-4.3-1.5c-0.9-0.3-1.8-0.7-2.7-1c-0.6-0.2-1.2-0.4-1.7-0.7
	c-1.7-0.9-3.3-1.8-5-2.7c-0.7-0.4-1.3-0.9-2-1.3c-1.1-0.7-2.2-1.3-3.3-2c-1.3-0.8-2.5-1.5-3.8-2.3c-0.5-0.3-1.1-0.6-1.7-0.7
	c-0.7-0.1-1.3-0.4-2-0.6c-1.8-0.6-3.6-1-5.5-1.3c-2.3-0.2-4.5-0.6-6.8-0.9c-1.7-0.2-3.4-0.2-5.1-0.2c-1.3,0-2.5,0.1-3.8,0.2
	c-1.3,0.1-2.6,0.4-4,0.5c-0.5,0.1-1,0.1-1.4,0.1c-1.3,0-2.7,0.1-4,0.2c-0.2,0-0.3,0-0.5,0.1c-0.6,0-1.2,0-1.8,0.1
	c-1.1,0-2.3,0.1-3.4,0.1c-0.6,0-1.2-0.1-1.8-0.1c-1.2,0-2.3-0.2-3.4-0.4c-0.8-0.2-1.7-0.3-2.5-0.4c-0.6-0.1-1.3-0.2-1.9-0.5
	c-1.1-0.4-2.2-0.8-3.3-1c-0.5-0.1-0.9-0.1-1.4-0.3c-1.1-0.5-1.9-1.2-2.7-2.1c-0.5-0.6-1.1-1.1-1.7-1.6c-0.3-0.3-0.7-0.5-1-0.8
	c-0.8-0.8-1.6-1.7-2.5-2.5c-0.1-0.1-0.2-0.2-0.3-0.4c0.5-0.1,0.8-0.2,1.1,0c0.5,0.3,1.1,0.4,1.7,0.4c2,0.2,3.9,0.3,5.9,0.4
	c1,0,2.1,0,3.1,0c0.5,0,1-0.1,1.5-0.2c1.3-0.1,2.6-0.2,3.8-0.4c0.4-0.1,0.9-0.2,1.3-0.3c1.3-0.2,2.7-0.5,4-0.7c1-0.2,2-0.6,3-0.9
	c1-0.4,2-0.8,3.1-1.1c0.2,0,0.3-0.2,0.5-0.3c0.4-0.2,0.8-0.5,1.3-0.6c0.6-0.2,1.1-0.5,1.7-0.8c1-0.6,2.1-1,3.1-1.4
	c0.6-0.3,1.3-0.4,2-0.4c0.6,0,1.2-0.1,1.8-0.1c0.1,0,0.3,0,0.4,0c0.1,0.1,0.2,0.3,0.3,0.4c0.1,0.1,0.2,0.3,0.3,0.4
	c0.8,0.8,1.7,1.6,2.7,2.3c0.6,0.4,1.1,0.9,1.7,1.2c1,0.5,1.9,1.3,3,1.6c0.4,0.1,0.8,0.3,1.1,0.4c0.3,0.1,0.5,0.2,0.8,0.4
	c0.3,0.2,0.7,0.2,1.1,0.3c0.8,0.2,1.5,0.4,2.3,0.5c0.7,0.1,1.4,0.3,2,0.8c0.4,0.4,1,0.6,1.5,0.9c0.4,0.2,0.7,0.5,1,0.8
	C132.5,158.6,132.6,158.8,132.8,158.9z M207.4,177.4c-0.3-0.1-0.6-0.2-0.8-0.2c-1.1-0.2-2.1-0.6-3.2-1c-0.6-0.2-1.3-0.5-1.9-0.8
	c-0.3-0.1-0.6-0.1-0.8-0.2c-0.2,0-0.3-0.1-0.5-0.1c-1.4-0.8-2.8-1.3-4.3-1.6c-0.9-0.2-1.7-0.5-2.5-0.7c-0.9-0.2-1.6-0.6-2.4-1
	c-0.9-0.4-1.8-0.8-2.7-1c-0.9-0.2-1.8-0.6-2.6-1c-2.3-1-4.6-1.8-6.9-2.6c-0.6-0.2-1.2-0.4-1.8-0.7c-1.2-0.6-2.5-0.9-3.7-1.3
	c-0.3-0.1-0.6,0-0.9,0.3c-0.3-0.1-0.6-0.2-0.8-0.3c-0.1-0.1-0.3-0.1-0.5-0.2c-0.7-0.2-1.3-0.4-2-0.6c-0.1,0-0.2-0.1-0.2-0.1
	c-0.2-0.3-0.6-0.4-0.9-0.4c-0.4,0-0.7-0.2-1-0.3c-0.5-0.2-1-0.4-1.5-0.5c-1.2-0.3-2.4-0.8-3.5-1.2c-0.5-0.2-1-0.4-1.4-0.5
	c-1.2-0.3-2.3-0.6-3.5-1c-0.9-0.3-1.8-0.6-2.7-0.9c-0.5-0.2-1-0.3-1.5-0.5c-0.4-0.1-0.8-0.2-1.2-0.3c-0.4-0.1-0.7-0.2-1.1-0.4
	c0-0.1,0.1-0.1,0.1-0.1c0.7-0.1,1.3-0.4,1.8-0.8c0.2-0.2,0.5-0.2,0.7-0.3c0.1,0,0.3-0.1,0.5,0c1.4,0.4,2.8,0.7,4.2,1.1
	c0.7,0.2,1.3,0.5,2,0.5c1,0.5,2.1,0.6,3.2,1c1,0.4,2.1,0.7,3.1,1c0.7,0.2,1.4,0.5,2,0.7c0.9,0.3,1.7,0.7,2.6,1
	c1.2,0.4,2.4,0.8,3.6,1.3c0.6,0.2,1.1,0.4,1.7,0.6c1.6,0.5,3.1,1.1,4.7,1.6c1.3,0.4,2.5,1,3.7,1.5c1,0.4,2,0.8,3,1
	c0.6,0.1,1.1,0.4,1.7,0.6c0.6,0.2,1.3,0.4,1.9,0.6c2.1,0.7,4.2,1.3,6.2,2.4c0.1,0.1,0.2,0.1,0.3,0.1c1.1,0.3,2.1,0.8,3.1,1.3
	c1,0.6,2.2,0.9,3.2,1.4c0.9,0.4,1.7,0.8,2.5,1.3c0.3,0.2,0.5,0.4,0.8,0.5c0.9,0.4,1.8,0.9,2.6,1.5c0.5,0.3,1.1,0.5,1.6,0.8
	c0.1,0.1,0.2,0.1,0.3,0.2c0,0.1,0,0.1,0,0.1c-0.1,0-0.2,0-0.4-0.1c-0.8-0.3-1.5-0.7-2.3-1C208.6,177.8,208,177.6,207.4,177.4z
	 M39.9,146.1c0.4-1.1,0.6-2.2,0.8-3.3c0.4-1.4,0.8-2.8,1.2-4.2c0.1-0.5,0.3-1,0.4-1.6c0.1-0.6,0.3-1.1,0.5-1.6
	c0.2-0.5,0.4-0.9,0.5-1.4c0-0.2,0.1-0.4,0.2-0.6c0.5-0.8,0.9-1.6,1.4-2.4c0.1-0.2,0.2-0.3,0.4-0.4c0.3-0.2,0.4-0.4,0.6-0.6
	c0.3-0.5,0.8-0.6,1.2-0.6c0.2,0,0.4,0.1,0.4,0.3c0.1,0.5,0.5,0.7,0.8,0.9c0.4,0.7,0.8,1.4,1.2,2.1c0.2,0.3,0.4,0.7,0.4,1
	c0,0.6,0.3,1.1,0.3,1.7c0,0.4,0.2,0.8,0.3,1.2c0.1,0.3,0.1,0.5,0.2,0.8c0.1,0.3,0.1,0.6,0.2,0.9c0,0.2,0,0.4,0,0.7
	c-0.4-0.1-0.7-0.1-1-0.3c-0.5-0.2-1.1-0.5-1.6-0.7c-0.2-0.1-0.5-0.2-0.7-0.2c-0.7-0.2-1.3-0.4-2-0.5c-0.7-0.2-1.5-0.1-2.2,0.2
	c0,0-0.1,0.1-0.2,0.3c0.3,0,0.5,0,0.7,0c0.6,0,1.1-0.1,1.6-0.1c0.3,0,0.7,0.2,1,0.3c0.2,0.1,0.3,0.2,0.5,0.3
	c0.7,0.2,1.3,0.5,1.9,0.8c0.6,0.3,1.2,0.6,1.8,0.9c0.2,0.1,0.3,0.2,0.5,0.3c0.1,0.3,0.2,0.5,0.2,0.8c0,0.5,0.2,1,0.7,1.3
	c0.1,0,0.1,0.1,0.2,0.2c0.1,0.4-0.1,0.7-0.5,0.9c-0.5,0.4-0.9,0.8-1.4,1.2c-0.1,0.1-0.1,0.1-0.2,0.2c-0.8,0.2-1.3,0.9-2.1,1
	c-0.6,0.1-1.2,0.5-1.9,0.6c-1.1,0.2-2.2,0.4-3.3,0.5c-0.5,0-0.9,0.2-1.4,0.2c-0.5,0.1-1.1,0.2-1.7,0.1
	C39.8,146.8,39.8,146.5,39.9,146.1z M56,154.6c-0.3,0.4-0.6,0.7-1,1c-0.9,0.8-1.8,1.6-2.8,2.2c-0.2,0.1-0.3,0.2-0.5,0.3
	c-0.5,0.2-1,0.5-1.5,0.6c-0.7,0.2-1.3,0.5-2,0.6c-1.3,0.2-2.7,0.3-4.1,0c0-0.3,0.3-0.3,0.4-0.4c0.9-0.6,1.6-1.3,2.1-2.1
	c0.3-0.4,0.5-0.9,0.7-1.4c0.4-1.1,0.8-2.2,1.3-3.4c0.3-0.7,0.4-1.4,0.4-2.2c-0.1-0.2-0.3-0.4-0.4-0.7c-0.4,0.1-0.6,0.4-0.5,0.7
	c0.1,0.8-0.2,1.5-0.3,2.2c0,0.2-0.1,0.4-0.2,0.6c-0.3,0.5-0.5,1.1-0.7,1.7c-0.4,1-0.7,2-1.5,2.8c-0.4,0.4-0.8,0.8-1.3,1
	c-0.6,0.3-1.3,0.6-1.8,0.8c-1.7-0.5-3.4-1-5.1-1.4c-0.6-0.8-0.8-0.9-1.7-0.4c-0.6-0.3-1.4-0.1-2.2-0.6c1.4,0,2.6-0.4,3.8-0.6
	c0.8-0.1,1.5-0.6,2.2-0.9c0.3-0.1,0.7-0.3,1.1-0.3c0.5,0,0.9-0.2,1.3-0.4c0.5-0.3,0.9-0.7,1.3-1c0.1-0.1,0.2-0.4,0.3-0.6
	c-0.2,0-0.3-0.1-0.4-0.1c-0.3,0.1-0.6,0.2-0.9,0.4c-0.4,0.2-0.8,0.5-1.2,0.8c-0.2,0.1-0.5,0.3-0.7,0.3c-0.8,0-1.5,0.4-2.3,0.6
	c-0.3,0.1-0.7,0.2-1,0.3c-0.4,0.1-0.8,0.2-1.3,0.3c-0.3,0-0.7,0.1-1,0.2c-0.6,0.2-1.3,0.2-2,0.2c-0.4,0-0.8,0-1.2,0
	c-0.1,0-0.2,0-0.3,0c0-0.1,0-0.1,0-0.1c0.3-0.1,0.6-0.3,0.9-0.4c0.8-0.2,1.5-0.8,2.1-1.3c0.6-0.4,1.1-0.9,1.8-1.3
	c0.9-0.6,1.7-1.4,2.2-2.4c0.4-0.6,0.7-1.3,1.1-1.9c0.4,0,0.8-0.1,1.2-0.1c0.6,0,1.1-0.1,1.6-0.3c0.3-0.1,0.6-0.1,0.9-0.1
	c1.4,0.1,2.7-0.3,4-0.6c0.8-0.2,1.5-0.5,2.2-0.9c0.1,0,0.2,0,0.3,0c0,0.1,0,0.3-0.1,0.4c-0.1,0.3-0.3,0.5-0.5,0.7
	c-0.8,0.9-1.7,1.8-2.7,2.5c-0.5,0.4-0.6,0.6-0.3,1.3c0.8-0.8,1.5-1.5,2.3-2.2c0.2-0.2,0.5-0.4,0.7-0.6c0.6-0.4,1.1-0.9,1.3-1.7
	c0.1-0.2,0.2-0.4,0.4-0.6c0.8-0.8,1.7-1.6,2.3-2.5c0.5,0.1,0.7,0.4,0.7,0.9c0.1,1.4,0.5,2.7,1.1,3.9c0.4,0.9,0.7,1.8,0.9,2.8
	c0.2,0.7,0.4,1.4,0.6,2.1C56.5,153.7,56.3,154.2,56,154.6z M58.6,150.5c-0.1,0.4-0.3,0.7-0.4,1c-0.1,0.1-0.2,0.3-0.2,0.4
	c-0.1,0.5-0.4,0.8-0.8,1.2c-0.2-0.8-0.4-1.5-0.5-2.2c-0.4-1.6-0.9-3.1-1.6-4.6c-0.2-0.4-0.2-0.5-0.1-1.2c0.1,0.1,0.3,0.2,0.3,0.4
	c0.4,0.4,0.7,0.9,1,1.3c0.3,0.3,0.6,0.6,0.9,0.9c0.4,0.3,0.8,0.7,1.1,1C58.9,149.2,58.8,149.9,58.6,150.5z M65.6,152.5
	c-0.3-0.1-0.6-0.2-0.9-0.3c-0.1,0-0.2,0-0.2-0.1c-0.7-0.5-1.5-0.7-2.2-1.3c-0.3-0.3-0.6-0.5-1.1-0.6c-0.4-0.1-0.6-0.5-0.8-0.8
	c-0.1-0.1-0.1-0.2-0.1-0.4c-0.4-1.1-1-2.1-2-2.8c-0.6-0.5-1-1.1-1.4-1.7c-0.4-0.7-1-1.2-1.6-1.7c-0.5-0.3-0.7-0.7-0.8-1.2
	c-0.1-0.3-0.2-0.6-0.3-0.8c-0.2-0.3-0.2-0.7-0.2-1.2c0.6,0.4,1.3,0.5,1.9,0.7c0.4,0.1,0.9,0.2,1.2-0.3c-0.3-0.1-0.6-0.2-0.9-0.3
	c-0.5-0.1-0.9-0.3-1.4-0.6c-0.4-0.2-0.7-0.5-1.1-0.8c0-1-0.2-2-0.6-2.9c0.4-0.1,0.6,0,0.7,0.3c0.3,0.7,1,1.1,1.5,1.6
	c0.6,0.5,1.2,1,1.8,1.5c0.7,0.5,1.4,1,2.1,1.5c1.5,1,2.8,2.1,4,3.4c0.9,1,1.5,2.2,2.3,3.4c-0.3,0-0.4-0.2-0.5-0.3
	c-0.2-0.1-0.3-0.2-0.5-0.3c-0.5-0.6-1.2-0.9-1.9-1.2c-0.3-0.1-0.5-0.3-0.7-0.4c-0.9-0.5-1.9-0.8-2.8-1.1c-0.1,0-0.3,0-0.6,0
	c0.2,0.2,0.3,0.3,0.4,0.4c0.9,0.2,1.8,0.6,2.6,1.1c0.9,0.6,2,1,2.7,1.9c0.6,0.3,0.9,0.9,1.4,1.3c0.4,0.3,0.6,0.8,0.6,1.3
	c0.2,0.9,0.3,1.9,0.1,2.9c0,0.1-0.1,0.1-0.1,0.2C65.9,152.6,65.8,152.6,65.6,152.5z M66.3,236c-0.3-0.3-0.6-0.6-0.9-0.9
	c-0.1-0.1-0.2-0.1-0.2-0.2c-0.4-0.8-1.2-1.3-1.8-1.9c-2-1.8-4-3.5-5.8-5.4c-0.8-0.8-1.5-1.6-2.2-2.4c-0.9-0.9-1.7-1.9-2.6-2.8
	c-0.1-0.1-0.1-0.2-0.2-0.2c0.6,0.2,1.1,0.4,1.4,0.9c0.2,0.3,0.6,0.5,0.9,0.7c0.5,0.4,1,0.6,1.4,1.2c0.1,0.2,0.4,0.2,0.5,0.3
	c0.6,0.4,1.1,0.9,1.8,1.4c0.8,0.5,1.4,1.3,2.1,1.9c0.8,0.6,1.4,1.5,2.1,2.1c0.7,0.6,1.3,1.2,1.9,1.8c0.2,0.2,0.3,0.4,0.4,0.6
	c0.4,0.6,0.9,1.1,1.2,1.8c0.1,0.2,0.2,0.3,0.3,0.4c0.4,0.3,0.4,0.7,0.4,1.1C66.6,236.3,66.5,236.1,66.3,236z M97.2,171.4
	c0.3,0.3,0.7,0.7,1,1c1.7,1.6,3.4,3.2,4.6,5.2c0.1,0.2,0.3,0.4,0.5,0.6c0.2,0.3,0.4,0.6,0.6,0.9c0.3,0.5,0.7,1,1,1.5
	c0.7,1,1.4,2.1,2,3.2c1.1,2.1,2.3,4.3,3.5,6.4c0.3,0.6,0.7,1.1,1,1.6c0.1,0.2,0.2,0.3,0.4,0.5c0.5,0.9,1,1.7,1.4,2.6
	c0.3,0.6,0.5,1.2,0.8,1.8c0.5,1,0.8,2,1.1,3.1c0.3,1,0.7,2,1,3.1c0.4,1.5,0.8,3.1,1.2,4.6c0.1,0.6,0.3,1.1,0.4,1.7
	c0.1,0.8,0.2,1.6,0.3,2.5c0.3,2.5,0.6,5,0.8,7.6c0.1,1,0.1,2,0,3c0,1.3-0.1,2.6-0.4,3.8c0,0.2-0.1,0.4,0,0.6c0.1,0.7,0.3,1.3,0.4,2
	c0.1,0.5,0,1,0,1.5c-0.1,0.8-0.3,1.7-0.4,2.5c-0.2,1-0.5,1.9-0.9,2.8c-0.6,1.2-1.1,2.4-1.9,3.4c-0.5,0.6-1,1.2-1.5,1.8
	c-0.2,0.3-0.5,0.5-0.7,0.8c-0.8,0.9-1.7,1.7-2.7,2.4c-0.7,0.5-1.3,1-1.9,1.6c-0.8,0.7-1.6,1.3-2.6,1.7c-1.3,0.6-2.6,1.2-3.9,1.8
	c-1.9,0.8-3.8,1.2-5.8,1.4c-1.2,0.1-2.3,0-3.5-0.1c-0.8-0.1-1.6-0.2-2.4-0.2c-0.2,0-0.5-0.1-0.7-0.1c-0.7,0-1.4,0-2.1-0.3
	c-0.5,0.1-1-0.1-1.5-0.1c-0.1,0-0.2,0-0.2,0c-0.7-0.4-1.4-0.5-2.2-0.5c-0.2,0-0.4-0.1-0.6-0.2c-0.1,0.1-0.1,0.2-0.2,0.3
	c-0.1-0.1-0.3-0.2-0.4-0.2c-0.1,0-0.3,0.1-0.4,0.1c-0.5-0.1-1-0.1-1.5-0.3c-0.4-0.2-0.9-0.1-1.3-0.3c-0.3-0.1-0.7-0.2-1-0.3
	c-0.3-0.1-0.6-0.3-0.9-0.2c-0.2,0-0.4,0-0.5-0.1c-0.3-0.1-0.6-0.2-0.9-0.1c-0.1,0-0.2,0-0.2,0c-0.6-0.2-1.2-0.1-1.7-0.2
	c-0.9,0-1.7,0.1-2.5,0.2c0,0-0.1,0-0.2,0c-0.1-0.2,0-0.3,0.1-0.4c0.6-0.5,1.2-1,1.8-1.5c0.7-0.6,1.6-0.9,2.4-1.5
	c0.2-0.2,0.4-0.3,0.7-0.5c1-0.8,2.1-1.7,3.1-2.5c0.7-0.6,1.3-1.4,1.9-2.1c0.4-0.6,0.8-1.2,1.3-1.7c0.6-0.8,1.1-1.6,1.5-2.5
	c0-0.1,0.1-0.2,0.1-0.3c0.5-0.4,0.7-0.9,0.9-1.4c0.1-0.3,0.2-0.7,0.2-1c-0.1,0.1-0.2,0.1-0.2,0.2c-0.4,0.9-1,1.7-1.6,2.4
	c-0.3,0.4-0.5,0.7-0.8,1.1c-0.9,1.4-2,2.7-3.1,3.8c-0.5,0.5-0.9,0.9-1.5,1.3c-1.4,1.1-2.7,2.2-4.3,3.1c-0.6,0.3-1,0.8-1.6,1.3
	c-0.2,0.1-0.3,0.2-0.5,0.3c-0.1-0.1-0.1-0.1-0.1-0.2c0.2-1.2,0-2.3-0.2-3.4c-0.1-0.8-0.3-1.7-0.5-2.5c-0.2-0.9-0.6-1.8-1-2.7
	c-0.1-0.3-0.3-0.6-0.4-0.9c-0.4-1-1-1.8-1.6-2.6c-1.1-1.3-2.2-2.6-3.4-3.7c-1.4-1.3-2.7-2.7-4.4-3.6c-0.9-0.5-1.7-1.1-2.4-1.8
	c-0.2-0.2-0.5-0.4-0.7-0.7c-1-1-2.2-1.7-3.5-2.4c-1-0.6-1.9-1.2-2.6-2.1c-0.4-0.5-0.9-1-1.3-1.5c-0.4-0.4-0.8-0.8-1.2-1.3
	c-0.7-0.7-1.3-1.3-1.9-2c-0.2-0.2-0.4-0.5-0.6-0.7c-1-1-1.8-2.2-2.6-3.3c-0.1-0.2-0.2-0.3-0.2-0.5c-0.3-0.7-0.6-1.5-1-2.2
	c-0.3-0.5-0.5-1-0.7-1.5c-0.5-1.1-0.8-2.3-1.1-3.4c-0.1-0.4-0.2-0.8-0.2-1.3c-0.1-0.5-0.1-1-0.2-1.5c-0.2-1.1-0.2-2.2-0.2-3.3
	c0-1.4,0.1-2.7,0.2-4.1c0.1-1.4,0.4-2.7,0.6-4.1c0.1-0.4,0.2-0.8,0.3-1.2c0.3-0.8,0.6-1.6,1-2.5c0.2,0,0.3-0.1,0.5-0.1
	c0.1-0.1,0.1-0.2,0.2-0.4c0.3-0.7,0.4-1.5,1-2.2c0.1-0.2,0.2-0.4,0.3-0.6c0.2-0.3,0.3-0.7,0.6-0.9c0.7-0.7,1.3-1.6,1.9-2.4
	c0.3-0.5,0.7-1,1.1-1.4c0.9-0.8,1.6-1.7,2.6-2.3c0.4-0.2,0.7-0.6,1-0.8c1-0.6,1.9-1.3,2.9-1.9c0.2-0.1,0.5-0.3,0.7-0.4
	c0.4-0.3,0.8-0.5,1.2-0.6c0.3-0.1,0.7-0.2,0.9-0.5c0-0.2,0.1-0.4,0.1-0.5c0.4-0.3,0.7-0.6,1.1-0.9c0.4-0.3,0.7-0.7,1.1-1
	c0.3-0.2,0.6-0.6,0.8-0.9c0.2-0.2,0.3-0.4,0.5-0.6c0.7-0.6,1.3-1.4,1.7-2.2c0.1-0.2,0.2-0.4,0.4-0.5c0.4-0.5,0.8-1,1.1-1.4
	c0.1-0.1,0.2-0.2,0.3-0.3c0.4-0.4,0.7-0.8,0.9-1.3c0.2-0.5,0.4-1,0.8-1.4c0.2-0.3,0.4-0.7,0.5-1c0.5-1.1,1-2.2,1.4-3.4
	c0-0.1,0.1-0.2,0.1-0.3c0.2-0.9,0.4-1.8,0.6-2.7c0.2-1.1,0.1-2.2,0-3.3c0-0.3-0.1-0.6-0.2-1c0.3,0.2,0.3,0.2,0.8,0.8
	c0.2,0.4,0.5,0.7,0.7,1.1c0.2,0.3,0.4,0.7,0.7,1.1c0,0.1-0.1,0.1-0.2,0.3c0.1,0.1,0.1,0.3,0.2,0.4c0.5,0.6,0.7,1.3,0.6,2.1
	c-0.1,1.4-0.2,2.8-0.3,4.2c0,1-0.3,1.9-0.5,2.8c-0.1,0.3-0.3,0.5-0.4,0.8c-0.1,0.2-0.2,0.4-0.3,0.6c-0.2,0.7-0.5,1.4-0.9,2
	c-0.2,0.3-0.3,0.6-0.3,1c0.2-0.4,0.5-0.7,0.7-1.1c0.5-0.9,0.9-1.8,1.4-2.7c0.5-1.1,0.9-2.3,1-3.5c0.1-0.1,0.3-0.2,0.4-0.3
	c0.1-0.4,0.2-0.8,0-1.2c-0.2-0.7-0.1-1.3,0.2-2c0.3,0.2,0.4,0.6,0.5,0.9c0.5,1.3,0.9,2.6,1.4,3.9c0.2,0.6,0.4,1.3,0.6,1.9
	c0.2,0.7,0.4,1.3,0.5,2c0.2,1.4,0.5,2.8,0.5,4.2c0,0.5,0,1,0.1,1.4c0.1,1.8,0.2,3.6,0.3,5.4c0,1.3,0,2.5,0,3.8
	c-0.1,1.6-0.3,3.2-0.4,4.9c0,0.4-0.1,0.8,0.1,1.2c0.3-0.1,0.4-0.4,0.4-0.6c0.1-0.8,0.2-1.5,0.4-2.3c0.1-0.5,0.1-1,0.2-1.5
	c0.1-0.5,0.3-1,0.2-1.6c0-0.1,0-0.3,0-0.4c0-0.4,0.1-0.8,0.1-1.3c0-1.5-0.1-3.1-0.1-4.6c0-0.1,0-0.3-0.1-0.4
	c-0.2-0.4-0.1-0.7,0.1-1.1c0,0.2,0.1,0.3,0.1,0.5c0,0.2,0,0.3,0,0.5c0,0.3,0.1,0.6,0.1,0.9c0.3,1.6,0.7,3.2,1,4.9
	c0.2,1.2,0.2,2.5-0.2,3.7c0,0.1,0,0.2,0,0.2c0,0.1,0,0.1,0,0.3c0.1-0.3,0.2-0.5,0.3-0.8c0.3-1,0.5-2,0.5-3.1c0-1.5-0.2-3-0.3-4.6
	c-0.1-0.7-0.1-1.3,0-2c0.1-1.3-0.1-2.6-0.4-3.8c-0.2-0.7-0.3-1.4-0.4-2.1c-0.1-1.4-0.5-2.7-0.8-4c-0.1-0.2-0.1-0.4-0.2-0.6
	c0,0,0,0,0.1-0.1c0.2,0.1,0.4,0.3,0.5,0.4c0.4,0.4,0.9,0.9,1.3,1.3c0.6,0.6,1.1,1.1,1.6,1.8c0.5,0.6,1.1,1.1,1.7,1.5
	c0.7,0.5,1.3,1.1,1.8,1.8c0.3,0.4,0.6,0.8,0.9,1.2c0.6,0.7,1,1.4,1.4,2.1c0.3,0.5,0.7,1,0.9,1.6c0.4,1.3,1.1,2.5,1.5,3.8
	c0.2,1,0.4,2,0.6,3.1c0.2,1.3,0.4,2.6,0.6,3.9c0.2,1.7,0.2,3.3,0,5c-0.1,1.6-0.4,3.1-0.7,4.7c-0.1,0.4-0.3,0.8-0.1,1.3
	c0,0,0,0.1,0,0.2c-0.1,0.5-0.4,0.9-0.4,1.4c0,0.5,0,1-0.1,1.4c-0.2,0.8-0.4,1.6-0.6,2.4c-0.4,1.3-0.8,2.7-1.2,4
	c-0.2,0.7-0.6,1.4-0.9,2.1c-0.6,1.1-1.2,2.3-1.9,3.3c-0.3,0.4-0.6,0.9-0.9,1.3c-0.1,0.1-0.1,0.2-0.2,0.5c0.2-0.1,0.3-0.2,0.4-0.3
	c0.5-0.7,1.1-1.3,1.6-2.1c0.5-0.8,1-1.7,1.5-2.5c0.2-0.5,0.5-1,0.8-1.5c0.3-0.7,0.7-1.3,0.8-2.1c0,0,0-0.1,0-0.1
	c0.6-1.2,0.8-2.6,1.2-3.9c0.2-0.8,0.4-1.5,0.6-2.3c0.1-0.4,0.1-0.7,0.3-1.1c0.1-0.3,0.1-0.7,0.2-1c0.1-0.6,0.4-1.2,0.4-1.9
	c0-0.3,0.1-0.5,0.1-0.8c0-0.2,0-0.4,0-0.6c0.2-0.7,0.1-1.4,0.4-2.1c0.1-0.3,0.1-0.6,0.1-0.9c0.1-0.9,0.2-1.7,0.1-2.6
	c0-0.3,0-0.5,0-0.8c0.2-1.4,0-2.8-0.2-4.1c-0.2-1-0.3-2-0.4-3c-0.1-0.4-0.1-0.8-0.2-1.2c-0.5-1.7-1-3.4-1.6-5
	c-0.6-1.8-1.5-3.4-2.6-4.9c-0.1-0.1-0.2-0.2-0.2-0.3c0,0,0-0.1,0-0.1c0.2,0,0.5,0,0.7,0.1c0.6,0.2,1.2,0.4,1.9,0.4
	c0.5,0.1,1.1,0.2,1.5,0.7c0.4,0.4,1,0.6,1.6,1c0,0,0.1,0,0.2,0c1.4,0.8,2.9,1.5,4.1,2.7C95.9,169.9,96.5,170.7,97.2,171.4z
	 M222.7,163.3c1,0.9,2,1.8,3,2.7c1,0.9,1.9,1.9,2.8,2.9c0.5,0.6,1,1.2,1.4,1.8c0.5,0.7,1.1,1.4,1.6,2.1c0.7,1,1.4,2,1.9,3.1
	c0.2,0.3,0.4,0.6,0.5,0.9c0.6,1.1,1.2,2.1,1.6,3.3c0.1,0.3,0.2,0.5,0.3,0.7c0.7,1.5,1.2,3,1.6,4.6c0.1,0.2,0.1,0.5,0,0.8
	c0,0.3,0,0.7,0,1c0,0.6-0.1,1.2-0.2,1.8c-0.1,0.4-0.2,0.8-0.2,1.3c-0.1,0.5-0.1,0.9-0.2,1.4c-0.1,0-0.2,0-0.3,0
	c-0.4-0.3-0.9-0.5-1.3-0.8c-0.7-0.6-1.5-1.1-2.3-1.6c-0.8-0.5-1.5-1.1-2.4-1.5c-0.6-0.3-1.1-0.6-1.7-0.7c-0.6-0.1-1.1-0.4-1.7-0.5
	c-0.8-0.2-1.6-0.4-2.4-0.6c-1.3-0.3-2.7-0.6-4-0.9c-0.2,0-0.3-0.1-0.4-0.2c-0.1,0-0.2,0-0.4,0c0.2,0.2,0.2,0.2,0.3,0.3
	c1.3,0.4,2.6,0.9,3.9,1.3c1.1,0.3,2.3,0.6,3.4,1c1.2,0.4,2.5,0.9,3.6,1.6c1.6,1.1,3.3,2.2,4.9,3.3c0.2,0.2,0.5,0.4,0.7,0.6
	c0,0.5-0.1,0.9-0.1,1.6c0,0.1,0.1,0.3,0.2,0.5c-0.1,0.1-0.2,0.3-0.4,0.4c-0.1,0.1-0.3,0.1-0.5,0.1c-0.5,0-1-0.1-1.6-0.1
	c-0.1,0.1-0.2,0.1-0.2,0.2c0,0-0.1,0-0.1,0c-0.1-0.2-0.3-0.2-0.5-0.2c-0.7,0.1-1.4,0.1-2.1,0.2c-1.6,0.2-3.1,0.6-4.6,1.2
	c-0.7,0.3-1.4,0.6-2.1,0.9c-0.9,0.4-1.8,0.7-2.7,1c-0.9,0.4-1.8,0.7-2.6,1.3c-0.9,0.7-2,1.2-3,1.6c-0.8,0.3-1.6,0.8-2.4,1.2
	c-1.1,0.5-2.3,1-3.4,1.5c-1,0.4-1.9,0.9-2.9,1.4c-0.9,0.4-1.8,0.7-2.7,1.1c-1.3,0.6-2.7,1-4.1,1.3c-0.9,0.2-1.8,0.3-2.8,0.5
	c-1.5,0.3-3,0.5-4.4,0.6c-0.2,0-0.3,0-0.5,0.1c-0.7,0.2-1.3,0.2-2,0.2c-0.9,0-1.7,0.1-2.6,0.1c-1,0-2.1,0-3.1,0
	c-1.2,0-2.4-0.1-3.6-0.3c-1.2-0.1-2.4-0.2-3.6-0.3c-1.4-0.1-2.7-0.3-4-0.7c-0.4-0.1-0.9-0.2-1.3-0.3c-0.9-0.2-1.7-0.4-2.6-0.6
	c-0.5-0.1-0.9-0.2-1.4-0.3c-0.1,0-0.3-0.1-0.4-0.1c-1.9-0.5-3.8-1-5.6-1.5c-1.6-0.5-3.1-1-4.6-1.7c-1.1-0.6-2.2-1.1-3.2-1.7
	c-0.7-0.4-1.4-0.8-2-1.1c-1.4-0.7-2.7-1.6-3.9-2.6c-0.4-0.4-0.9-0.7-1.3-1c-0.8-0.6-1.6-1.2-2.4-1.7c-0.4-0.3-0.8-0.5-1.2-0.8
	c-0.5-0.4-1.1-0.7-1.6-1.1c-1.5-1.1-2.9-2.3-4.4-3.5c-0.4-0.3-0.8-0.7-1.2-1.1c-0.7-0.5-1.4-1.1-2.1-1.5c-1.3-0.8-2.5-1.7-3.6-2.7
	c-0.7-0.5-1.3-1.1-2-1.6c-1.7-1.3-3.4-2.6-5.1-3.9c-0.1,0.2,0,0.3,0.1,0.3c0.7,0.6,1.4,1.1,2.1,1.7c0.5,0.4,0.9,0.8,1.2,1.2
	c0.2,0.3,0.5,0.5,0.7,0.7c0.4,0.3,0.8,0.7,1.2,1c0.1,0.1,0.1,0.2,0.2,0.2c-0.2,0.2-0.3,0-0.4-0.1c-0.9-0.7-1.8-1.3-2.8-1.8
	c-0.2-0.1-0.3-0.2-0.4-0.3c-0.6-0.4-1.1-0.9-1.8-1.3c-0.8-0.5-1.6-1.2-2.3-1.8c-0.3-0.3-0.6-0.7-0.8-1.1c-0.4-0.6-0.9-1.1-1.5-1.6
	c-0.8-0.7-1.6-1.4-2.4-2.1c-0.5-0.4-1-0.9-1.4-1.4c-0.1-0.1-0.3-0.3-0.4-0.4c-1.3-0.9-2.5-1.9-3.9-2.7c-0.9-0.5-1.8-0.9-2.8-1.1
	c-0.7-0.1-1.4-0.4-2.1-0.6c-0.3-0.1-0.7-0.1-1-0.2c-0.2,0-0.3,0-0.5-0.1c-1.1-0.2-2.2-0.4-3.2-0.6c-0.4-0.1-0.9-0.1-1.4-0.1
	c-0.1,0-0.1,0-0.2,0c-1.1-0.3-2.1-0.1-3.2-0.1c-0.7,0-1.4,0-2.1,0c-0.3,0-0.6,0-0.9,0c-0.9-0.6-1.9-1.3-3-2c0.5-0.1,1-0.2,1.4-0.1
	c0.3,0.1,0.6,0.1,0.9,0.2c1,0.4,2,0.3,3,0.4c0.8,0.1,1.7,0,2.6,0c0.5,0,1-0.1,1.5-0.1c1.7-0.1,3.5-0.2,5.2-0.3
	c1.5-0.1,3-0.1,4.5-0.1c0.1,0,0.2,0,0.3,0c0.7-0.1,1.5,0,2.2,0.1c0.7,0.1,1.4,0,2.1,0.1c1.1,0,2.2,0.1,3.4,0.2c0.1,0,0.2,0,0.3,0
	c0.6,0.2,1.3,0.2,2,0.3c0.5,0,1,0,1.5,0.2c0.3,0.1,0.6,0.1,0.9,0.1c1,0.1,2,0.3,2.9,0.4c0.3,0,0.7,0.1,1,0.2
	c1.6,0.3,3.2,0.7,4.8,1.1c0.4,0.1,0.8,0.2,1.2,0.3c0.8,0.1,1.5,0.3,2.3,0.3c0.3,0,0.6,0.1,0.9,0.3c0.4,0.3,0.8,0.5,1.2,0.7
	c1.6,1.1,3.3,2,5,2.9c0.4,0.2,0.9,0.4,1.4,0.6c0.4,0.1,0.8,0.4,1.2,0.6c1.4,0.7,2.8,1.5,4.3,2c1.2,0.4,2.3,1.1,3.5,1.7
	c0.3,0.2,0.7,0.4,1,0.5c1,0.3,2,0.9,3.1,1.1c0.4,0.1,0.7,0.3,1.1,0.4c0.8,0.3,1.7,0.5,2.5,0.7c0.8,0.2,1.5,0.7,2.4,0.7
	c0.1,0,0.2,0.1,0.4,0.1c0.3,0.1,0.5,0.2,0.8,0.2c0.5,0,0.9,0.1,1.4,0.2c0.5,0,1,0.2,1.5,0c0.1,0,0.3,0,0.5,0.1
	c1.9,0.4,3.8,0.7,5.7,0.9c0.8,0.1,1.5,0.2,2.3,0.4c2.5,0.4,5,0.6,7.6,0.7c1,0,2,0,3,0.1c0.9,0,1.8,0.1,2.6,0.2c0.3,0,0.5,0,0.8,0.1
	c0.9,0,1.8,0,2.6,0.1c0.2,0,0.4,0,0.6,0c2-0.2,3.9-0.4,5.9-0.8c1.2-0.2,2.3-0.4,3.5-0.6c0.9-0.2,1.8-0.2,2.7-0.1
	c0.4,0,0.8,0.1,1.1,0c0.9-0.2,1.9-0.1,2.8-0.2c0.2,0,0.4,0.1,0.6,0.1c1.3,0.3,2.6,0.7,3.9,0.8c0.6,0,1.1,0,1.7,0.1c0.3,0,0.6,0,1,0
	c0.2-0.1,0.5-0.2,0.9-0.3c0.4-0.6,0.2-1.1-0.2-1.6c-0.4-0.6-1-1-1.6-1.4c-1.2-0.8-2.4-1.4-3.7-2c-0.5-0.2-1-0.5-1.5-0.8
	c-0.5-0.3-1-0.5-1.5-0.8c-0.5-0.3-0.9-0.5-1.4-0.8c-0.5-0.2-0.9-0.5-1.4-0.8c-0.5-0.3-1-0.5-1.6-0.7c-1.1-0.5-2.2-0.9-3.3-1.3
	c-0.5-0.2-0.9-0.5-1.3-0.7c-0.5-0.3-1-0.5-1.6-0.6c-1.1-0.6-2.3-0.9-3.4-1.5c-0.2-0.1-0.5-0.2-0.8-0.3c-0.5-0.2-1-0.3-1.5-0.5
	c-0.7-0.2-1.3-0.4-2-0.6c-0.6-0.2-1.3-0.4-1.9-0.7c-0.3-0.1-0.7-0.2-1-0.3c-0.8-0.3-1.7-0.6-2.5-0.9c-0.8-0.3-1.6-0.6-2.4-1
	c-0.8-0.3-1.7-0.6-2.5-0.9c-0.9-0.3-1.7-0.6-2.6-0.9c-1.1-0.4-2.3-0.8-3.4-1.1c-1.3-0.4-2.6-1-3.9-1.5c-0.2-0.1-0.5-0.1-0.7-0.2
	c-0.7-0.3-1.4-0.4-2-0.8c-0.2-0.1-0.5-0.2-0.7-0.3c-1.1-0.3-2.1-0.7-3.2-1c-1.2-0.4-2.5-0.8-3.7-1.2c-0.4-0.1-0.9-0.3-1.3-0.4
	c-0.6-0.1-1.3-0.2-1.9-0.6c-0.2-0.1-0.4-0.1-0.7-0.2c0.1-0.1,0.1-0.2,0.2-0.2c1-0.5,2-0.9,3.1-1.4c0.3,0.2,0.6,0.4,1,0.3
	c0,0,0.1,0,0.1,0c0.8,0.3,1.7,0.6,2.5,1c0.9,0.4,1.7,0.8,2.5,1.2c0.7,0.3,1.5,0.4,2.3,0.6c0.4,0.1,0.9,0.2,1.3,0.4
	c0.5,0.2,1,0.4,1.5,0.4c0.9,0,1.7,0.2,2.5,0.5c1.4,0.5,2.8,0.8,4.3,1.1c0.5,0.1,1,0.3,1.5,0.4c0.7,0.2,1.4,0.4,2.2,0.5
	c1,0.1,2,0.5,2.9,0.8c0.8,0.2,1.6,0.4,2.4,0.5c1.1,0.1,2.1,0.5,3.1,0.8c1,0.3,2,0.6,3,0.7c1.1,0.1,2.2,0.3,3.3,0.3
	c0.5,0,1.1,0.1,1.6,0.2c1.3,0.4,2.7,0.4,4.1,0.2c0.1,0,0.2-0.1,0.2,0c1.2,0.1,2.4-0.3,3.7-0.3c0.6,0,1.2,0,1.8,0.1
	c0.8,0.2,1.6,0,2.5-0.1c0.7-0.1,1.4-0.3,2.1-0.5c1.2-0.3,2.4-0.6,3.6-1c0.9-0.3,1.8-0.6,2.7-1.1c0.4-0.3,0.9-0.5,1.3-0.8
	c0.2,0.1,0.5,0.2,0.7,0.3C220.8,161.9,221.8,162.5,222.7,163.3z M240.2,132.6c-1.1-0.2-3.2-0.1-4.1,0.1c-1,0.2-2.1,0.5-3.1,0.8
	c-0.7,0.2-1.5,0.3-2.2,0.7c-0.4,0.2-0.8,0.3-1.1,0.8c0.1,0.1,0.2,0.2,0.2,0.3c0.6-0.3,1.2-0.5,1.8-0.8c0.3-0.1,0.7-0.1,1-0.2
	c0.6-0.1,1.2-0.3,1.9-0.5c1.2-0.3,2.3-0.6,3.5-0.7c0.4,0,0.7,0,1.1,0.3c-0.3,0.6-0.9,1-1.3,1.5c-0.4,0.5-0.8,1.1-1.2,1.6
	c-1-0.4-1.9,0-2.9,0.2c-0.4,0.1-0.9,0.3-1.3,0.4c-0.3,0.1-0.5,0.3-0.6,0.7c0.2,0,0.3,0.1,0.5,0.1c0.5-0.1,1-0.2,1.6-0.4
	c0.7-0.2,1.4-0.3,2.2-0.3c-0.7,1.3-1.4,2.5-2,3.8c-0.5-0.1-0.9,0-1.4,0.2c-0.2,0.2-0.5,0.2-0.8,0.3c-0.2,0.1-0.5,0.2-0.6,0.6
	c0.8,0.1,1.5-0.2,2.3-0.4c0,0.2,0,0.3-0.1,0.4c-0.3,0.5-0.6,1.1-0.9,1.6c-0.4,0.7-0.8,1.3-1.3,1.9c-1.7,2.5-3.4,4.8-5.5,7
	c-0.1,0.1-0.1,0.1-0.2,0.2c-1.4,1.7-3.2,2.9-5,4.1c-1.3,0.8-2.6,1.6-4,2.2c-1.6,0.7-3.2,1.2-4.8,1.7c-0.9,0.2-1.8,0.5-2.7,0.7
	c-0.9,0.2-1.8,0.3-2.8,0.5c-1,0.1-1.9,0.3-2.9,0.4c-1.6,0.3-3.1,0.5-4.7,0.8c-0.2,0-0.4,0-0.6,0c-1.3,0-2.6,0-3.9,0
	c-0.2,0-0.5-0.1-0.7-0.1c-0.3,0-0.6,0-0.9-0.1c-0.2,0-0.4,0-0.6-0.1c-0.4-0.1-0.7-0.2-1.1-0.1c-0.2,0.1-0.4,0-0.6-0.1
	c-0.4-0.3-0.9-0.3-1.4-0.3c-1.1-0.1-2.2-0.5-3.4-0.7c-0.7-0.1-1.4-0.4-2.1-0.4c-0.6,0-1.1-0.3-1.7-0.5c-0.7-0.2-1.5-0.4-2.2-0.7
	c-0.3-0.1-0.6-0.3-0.9-0.4c-0.1,0-0.3,0.1-0.4,0.1c-0.1,0-0.1-0.1-0.2-0.1c-0.7-0.4-1.4-0.5-2.1-0.7c-1.4-0.4-2.7-0.9-4.1-1.4
	c-0.4-0.1-0.8-0.3-1.2-0.4c-0.6-0.3-1.2-0.6-1.9-0.9c-0.3-0.1-0.5-0.2-0.8-0.4c-0.3-0.1-0.5-0.2-0.8-0.4c-0.2-0.2-0.6-0.3-0.9-0.4
	c-1.2-0.5-2.4-1-3.6-1.5c-0.3-0.1-0.7-0.3-1.1-0.4c0.2-0.2,0.4-0.3,0.5-0.3c0.9-0.5,1.8-1,2.7-1.5c1.4-0.8,2.7-1.8,3.9-2.9
	c1-0.9,2.1-1.8,3-2.8c1.3-1.4,2.6-2.7,3.7-4.2c0.6-0.9,1.3-1.8,2-2.6c0.6-0.7,1.1-1.5,1.6-2.3c0.3-0.5,0.7-1,1-1.5
	c0.1,0,0.1,0,0.1,0c0.9,0.2,1.7,0.4,2.6,0.6c0.2,0,0.3,0.1,0.5,0.1c1.7,0.1,3.3,0.5,5,0.8c0.9,0.2,1.9,0.5,2.8,0.6
	c1,0.2,2,0.3,3,0.4c0.6,0.1,1.1,0.1,1.7,0.3c0.8,0.1,1.6,0.1,2.4,0.3c1.3,0.2,2.7,0.3,4.1,0.4c1.4,0.2,2.8,0.2,4.2,0.3
	c0.5,0,1,0,1.5,0c0.6,0,1.2,0,1.8,0c0.1,0,0.3-0.1,0.4-0.1c0-0.1,0-0.1,0-0.2c-0.6,0.1-1.2-0.1-1.7-0.2c-0.5-0.1-1-0.1-1.5-0.1
	c-0.4,0-0.9,0-1.3-0.1c-0.1,0-0.3,0-0.4,0.1c-0.8,0.1-1.5-0.1-2.3-0.2c-0.1,0-0.3-0.1-0.4-0.2c0-0.1,0.1-0.2,0.1-0.2
	c-0.4-0.2-0.7,0.1-1.1,0.1c-0.1-0.1-0.2-0.2-0.3-0.4c-0.2,0.1-0.3,0.1-0.6,0.2c-0.6-0.4-1.3-0.3-2-0.3c-1.3-0.1-2.7-0.2-4-0.5
	c-0.9-0.2-1.9-0.2-2.8-0.4c-0.8-0.1-1.5-0.4-2.2-0.5c-0.8-0.2-1.6-0.4-2.4-0.6c-1.5-0.3-3-0.5-4.6-0.8c-0.6-0.1-1.1-0.3-1.6-0.5
	c-0.1-0.3,0.1-0.6,0.3-0.8c0.9-1.6,1.7-3.1,2.6-4.7c0.3-0.6,0.7-1.1,1.1-1.6c0.5-0.6,0.9-1.3,1.3-2c0.2-0.4,0.4-0.7,0.7-1.1
	c0.5,0,1-0.2,1.5-0.3c1-0.3,2-0.5,3-0.6c1.2-0.2,2.3-0.3,3.5-0.3c1.3-0.1,2.5-0.1,3.8,0c1.8,0,3.6,0.1,5.4,0.2
	c0.7,0,1.4,0.1,2.1,0.1c0.3,0,0.5,0,0.8,0c0.1,0,0.2-0.1,0.3-0.2c-0.2-0.2-0.6,0-0.7-0.4c-0.4,0.1-0.7,0.1-1.1-0.1
	c-0.1,0-0.2-0.1-0.2-0.1c-0.9,0.2-1.8-0.3-2.7-0.1c-0.3,0-0.5,0-0.8,0c-0.1,0-0.1,0-0.2,0c-1-0.4-2.1-0.2-3.1-0.2c-1-0.1-2,0-3,0
	c-0.8,0-1.5,0.1-2.3,0.1c-0.8,0-1.6,0.2-2.4,0.3c-0.3,0-0.7,0-1,0.1c-0.5,0.1-1,0.2-1.5,0.3c-0.1,0-0.3,0-0.5,0.1
	c0.2-0.7,0.4-1.2,0.7-1.8c0.3-0.6,0.5-1.1,0.8-1.7c0.4-0.7,0.6-1.5,0.8-2.3c0.1-0.3,0.2-0.6,0.2-0.8c0.1-0.3,0.1-0.7,0-1
	c-0.2-0.7-0.2-1.5,0.2-2.2c0.2-0.3,0.3-0.8,0.3-1.2c0-0.2,0.1-0.5,0-0.7c-0.3-0.8-0.6-1.7-1.2-2.3c-0.3-0.3-0.7-0.6-0.8-1.1
	c0-0.1-0.2-0.2-0.3-0.3c-0.6-0.5-0.9-1.2-1.4-1.9c-0.1-0.1-0.1-0.2-0.2-0.4c-0.2-0.9-0.4-1.8-0.7-2.7c0-0.1,0-0.3,0-0.4
	c0-0.4,0-0.8,0-1.2c0-0.6-0.1-1.2,0-1.8c0.1-1,0.2-2,0.2-2.9c0-0.3-0.1-0.6-0.1-0.9c-0.1-0.3-0.2-0.5-0.3-0.8
	c0.3-0.2,0.6-0.3,0.9-0.2c0.4,0.1,0.8,0.1,1.2,0c1.3-0.1,2.5-0.4,3.8-0.6c1.5-0.3,3-0.8,4.4-1.4c1.5-0.6,3.1-1.2,4.6-1.8
	c0.3-0.1,0.6-0.3,0.9-0.4c0.2-0.1,0.4-0.2,0.5-0.1c0.5,0.1,0.9,0.2,1.4,0.4c0.4,0.1,0.8,0.2,1.2,0.3c1.4,0.3,2.9,0.4,4.3,0.9
	c0.2,0.1,0.5,0.1,0.7,0.1c1.2,0.2,2.3,0.7,3.4,1.3c0.1,0.1,0.2,0.1,0.3,0.2c1.4,0.7,2.7,1.7,4,2.7c0.4,0.3,0.8,0.6,1.2,0.9
	c1.1,0.8,2.1,1.7,3.1,2.6c0.6,0.5,1.1,1.1,1.6,1.7c1,1.2,2,2.4,3,3.7c0.2,0.2,0.3,0.4,0.4,0.7c0.4,0.9,1,1.7,1.5,2.5
	c0.5,0.9,1,1.8,1.5,2.7c0.4,0.7,0.7,1.4,1.2,2c0.6,0.9,1,2,1.5,3c0.5,1,0.9,2,1.4,3c0.1,0.1,0.1,0.3,0.2,0.6
	c-0.6-0.1-0.9-0.4-1.4-0.7c-0.3-0.2-0.6-0.3-0.9-0.4c-0.2,0-0.4-0.1-0.5-0.2c-0.6-0.4-1.3-0.7-2-0.9c-0.1-0.1-0.3-0.1-0.5-0.1
	c-0.8-0.1-1.6-0.4-2.3-0.7c-0.2,0.1-0.1,0.2,0,0.3c0.1,0.1,0.3,0.2,0.5,0.2c0.7,0.2,1.4,0.4,2.1,0.6c0.1,0,0.3,0.1,0.4,0.2
	c0.3,0.4,0.9,0.5,1.3,0.8c1.1,0.7,2.3,1.4,3.4,2.1c0.4,0.3,0.7,0.7,1,1c0.7,0.9,1.2,2,1.7,3.1c0.4,0.8,0.7,1.6,1,2.5
	c0.1,0.2,0.2,0.5,0.3,0.7c0.5,1.1,1,2.3,1.5,3.4c0,0,0,0.1,0,0.2c-0.2,0-0.3,0-0.5,0c-1-0.2-1.9-0.6-2.8-1c-1-0.4-2.1-0.9-3.1-1.3
	c-0.8-0.3-1.5-0.5-2.3-0.5c-0.3,0-0.6-0.1-0.8-0.2c-0.4-0.3-0.8-0.3-1.2-0.4c-0.6-0.1-1.2-0.3-1.8-0.4c-0.2,0-0.5-0.1-0.7-0.1
	c-1.3-0.1-2.6-0.4-3.8-0.8c-0.4-0.1-0.8-0.2-1.2-0.3c-0.8-0.2-1.6-0.4-2.3-0.5c-0.9-0.1-1.8-0.4-2.7-0.5c-0.7-0.1-1.5-0.2-2.2,0
	c-0.4,0.1-0.9,0-1.3-0.1c-0.1,0-0.3,0-0.3,0.2c0.1,0,0.2,0.1,0.3,0.1c1.9,0.2,3.8,0.5,5.7,1c0.9,0.2,1.8,0.4,2.6,0.7
	c1.2,0.3,2.4,0.5,3.7,0.8c0.8,0.2,1.6,0.3,2.4,0.5c0.2,0,0.4,0.1,0.6,0.2c-0.1,0.1-0.1,0.1-0.1,0.2c-0.5,0.2-1,0.4-1.6,0.5
	c-0.8,0.2-1.6,0.5-2.4,0.7c-0.1,0-0.1,0-0.1,0.1c-0.6,0.5-1.3,0.5-2,0.9c-0.2,0.1-0.4,0.1-0.5,0.2c-1.1,0.3-2.2,0.7-3.3,1
	c-0.1,0-0.3,0.1-0.4,0.1c-0.1,0-0.2,0-0.2,0c-1,0.4-2.1,0.3-3.2,0.6c-0.4,0.1-0.8,0.1-1.2,0.1c-0.2,0-0.4,0.1-0.6,0.3
	c0.2,0,0.4,0,0.6,0c0.5,0,0.9-0.1,1.4-0.1c0.5,0.1,0.8-0.2,1.3-0.1c0.4,0.1,0.9-0.1,1.3-0.1c0.4-0.1,0.9-0.2,1.3-0.3
	c1.2-0.3,2.3-0.6,3.4-1.1c0.2-0.1,0.5-0.1,0.7-0.2c0.5-0.2,0.9-0.4,1.4-0.6c0.6-0.2,1.3-0.4,1.9-0.5c0.5-0.1,1-0.2,1.5-0.5
	c0.5-0.2,1-0.3,1.6-0.3c1.8-0.1,3.5,0.2,5.1,1c1.1,0.5,2.2,0.9,3.4,1.3c1,0.3,2,0.5,3,0.7c0.1,0,0.3,0.1,0.6,0.1
	C240.8,132.3,240.5,132.4,240.2,132.6z"/>
<path class="fill-white" d="M215.2,181.3c-0.5-0.8-0.9-1-1.4-1c0,0.1,0,0.2,0.1,0.2C214.3,180.7,214.7,181,215.2,181.3z"/>
<path class="fill-white" d="M191.4,92.4c-0.6,0-1.1,0-1.7,0.4C190.4,92.9,190.9,92.7,191.4,92.4z"/>
<path class="fill-white" d="M203.6,87.8c-0.5-0.1-0.6,0.2-0.8,0.4C203.1,88.2,203.4,88.1,203.6,87.8z"/>
<path class="fill-white" d="M29.7,182.2C29.7,182.2,29.7,182.2,29.7,182.2c0.1-0.3,0.1-0.5,0.1-0.8c0,0,0,0-0.1,0
	C29.7,181.6,29.7,181.9,29.7,182.2z"/>
<path class="fill-white" d="M58.7,76.4c0.4,1,0.5,2,0.4,3C59,78.4,58.9,77.4,58.7,76.4z"/>
<path class="fill-white" d="M27.5,211.9c-0.2,0.2-0.4,0.3-0.4,0.4c-0.1,0.3-0.1,0.6-0.1,0.9c0,1,0,2.1,0,3.1c0,0.6-0.1,1.2,0,1.8
	c0,0.9,0.2,1.8,0.2,2.7c0.1,0.9,0.1,1.7,0.2,2.6c0.1,1,0.1,1.9,0.2,2.9c0,0.3,0.1,0.5,0.2,0.8c0,0.1,0.2,0.2,0.3,0.4
	c0.3-0.3,0.4-0.6,0.3-1c-0.1-0.5-0.1-1.1-0.2-1.6c-0.1-0.5,0-1.1,0-1.7c-0.1-1.2-0.1-2.3-0.1-3.5c0-0.3,0-0.7-0.1-1
	c-0.2-0.7-0.1-1.3-0.1-2c0-0.3,0-0.6,0-0.9c0-0.9,0-1.8-0.1-2.7C27.6,212.8,27.6,212.5,27.5,211.9z"/>
<path class="fill-white" d="M35.4,170.7c0.1-0.1,0.1-0.3,0.2-0.4c0.5-1.2,1-2.4,1.5-3.6c0.4-0.9,0.7-1.7,1.1-2.6c0.2-0.4,0.3-0.8,0.3-1.2
	c-0.4-0.2-0.4-0.3-0.5-0.2c-0.1,0.1-0.3,0.2-0.3,0.3c-0.3,0.8-0.6,1.5-0.8,2.3c-0.4,1.2-0.7,2.4-1.1,3.6
	C35.6,169.4,35.3,170,35.4,170.7z"/>
<path class="fill-white" d="M38.7,168.1C38.7,168.1,38.7,168.2,38.7,168.1c0.2-0.1,0.3-0.2,0.4-0.3c0.3-0.6,0.6-1.3,0.8-1.9
	c0.4-1.1,0.8-2.1,1.4-3.1c0.1-0.2,0.3-0.4,0.2-0.8c-0.3-0.2-0.6-0.2-0.8,0.1c-0.2,0.3-0.4,0.6-0.5,1c-0.2,0.4-0.3,0.8-0.4,1.1
	c-0.1,0.4-0.2,0.7-0.3,1.1c-0.2,0.7-0.2,1.5-0.6,2.2C38.7,167.7,38.7,167.9,38.7,168.1z"/>
<path class="fill-white" d="M29.9,226.7c-0.2,0.1-0.4,0.1-0.6,0.2c0,0.4,0,0.8,0.1,1.1c0.2,1.4,0.5,2.8,0.7,4.2c0,0.1,0.1,0.3,0.1,0.5
	c0,0.1,0.1,0.1,0.3,0.1c0-0.3,0-0.5-0.1-0.7c0-0.2-0.1-0.4-0.1-0.5c0.1-0.9,0-1.7-0.2-2.5c-0.1-0.6-0.2-1.2-0.1-1.7
	C30.1,227.1,30.1,226.9,29.9,226.7z"/>
<path class="fill-white" d="M27.2,228.8c0.1-0.2,0.1-0.3,0.1-0.4c-0.2-0.6-0.1-1.2-0.1-1.7c0-0.5,0-0.9-0.1-1.4c0-0.4-0.1-0.9-0.5-1.2
	c-0.1,0.1-0.1,0.1-0.1,0.1c0.1,1,0.1,2,0.2,3c0,0.2,0.1,0.4,0.2,0.6C26.8,228.4,26.8,228.4,27.2,228.8z"/>
<path class="fill-white" d="M211.8,179.2c-0.1,0-0.2,0-0.4-0.1c-0.8-0.3-1.5-0.7-2.3-1c-0.6-0.2-1.1-0.5-1.7-0.7c-0.3-0.1-0.6-0.2-0.8-0.2
	c-1.1-0.2-2.1-0.6-3.2-1c-0.6-0.2-1.3-0.5-1.9-0.8c-0.3-0.1-0.6-0.1-0.8-0.2c-0.2,0-0.3-0.1-0.5-0.1c-1.4-0.8-2.8-1.3-4.3-1.6
	c-0.9-0.2-1.7-0.5-2.5-0.7c-0.9-0.2-1.6-0.6-2.4-1c-0.9-0.4-1.8-0.8-2.7-1c-0.9-0.2-1.8-0.6-2.6-1c-2.3-1-4.6-1.8-6.9-2.6
	c-0.6-0.2-1.2-0.4-1.8-0.7c-1.2-0.6-2.5-0.9-3.7-1.3c-0.3-0.1-0.6,0-0.9,0.3c-0.3-0.1-0.6-0.2-0.8-0.3c-0.1-0.1-0.3-0.1-0.5-0.2
	c-0.7-0.2-1.3-0.4-2-0.6c-0.1,0-0.2-0.1-0.2-0.1c-0.2-0.3-0.6-0.4-0.9-0.4c-0.4,0-0.7-0.2-1-0.3c-0.5-0.2-1-0.4-1.5-0.5
	c-1.2-0.3-2.4-0.8-3.5-1.2c-0.5-0.2-1-0.4-1.4-0.5c-1.2-0.3-2.3-0.6-3.5-1c-0.9-0.3-1.8-0.6-2.7-0.9c-0.5-0.2-1-0.3-1.5-0.5
	c-0.4-0.1-0.8-0.2-1.2-0.3c-0.4-0.1-0.7-0.2-1.1-0.4c0-0.1,0.1-0.1,0.1-0.1c0.7-0.1,1.3-0.4,1.8-0.8c0.2-0.2,0.5-0.2,0.7-0.3
	c0.1,0,0.3-0.1,0.5,0c1.4,0.4,2.8,0.7,4.2,1.1c0.7,0.2,1.3,0.5,2,0.5c1,0.5,2.1,0.6,3.2,1c1,0.4,2.1,0.7,3.1,1
	c0.7,0.2,1.4,0.5,2,0.7c0.9,0.3,1.7,0.7,2.6,1c1.2,0.4,2.4,0.8,3.6,1.3c0.6,0.2,1.1,0.4,1.7,0.6c1.6,0.5,3.1,1.1,4.7,1.6
	c1.3,0.4,2.5,1,3.7,1.5c1,0.4,2,0.8,3,1c0.6,0.1,1.1,0.4,1.7,0.6c0.6,0.2,1.3,0.4,1.9,0.6c2.1,0.7,4.2,1.3,6.2,2.4
	c0.1,0.1,0.2,0.1,0.3,0.1c1.1,0.3,2.1,0.8,3.1,1.3c1,0.6,2.2,0.9,3.2,1.4c0.9,0.4,1.7,0.8,2.5,1.3c0.3,0.2,0.5,0.4,0.8,0.5
	c0.9,0.4,1.8,0.9,2.6,1.5c0.5,0.3,1.1,0.5,1.6,0.8c0.1,0.1,0.2,0.1,0.3,0.2C211.8,179.1,211.8,179.1,211.8,179.2z"/>
<path class="fill-white" d="M52.5,222.1c0.6,0.2,1.1,0.4,1.4,0.9c0.2,0.3,0.6,0.5,0.9,0.7c0.5,0.4,1,0.6,1.4,1.2c0.1,0.2,0.4,0.2,0.5,0.3
	c0.6,0.4,1.1,0.9,1.8,1.4c0.8,0.5,1.4,1.3,2.1,1.9c0.8,0.6,1.4,1.5,2.1,2.1c0.7,0.6,1.3,1.2,1.9,1.8c0.2,0.2,0.3,0.4,0.4,0.6
	c0.4,0.6,0.9,1.1,1.2,1.8c0.1,0.2,0.2,0.3,0.3,0.4c0.4,0.3,0.4,0.7,0.4,1.1c-0.3,0-0.4-0.2-0.5-0.3c-0.3-0.3-0.6-0.6-0.9-0.9
	c-0.1-0.1-0.2-0.1-0.2-0.2c-0.4-0.8-1.2-1.3-1.8-1.9c-2-1.8-4-3.5-5.8-5.4c-0.8-0.8-1.5-1.6-2.2-2.4c-0.9-0.9-1.7-1.9-2.6-2.8
	C52.7,222.3,52.6,222.2,52.5,222.1z"/>
<path class="fill-white" d="M218.6,77.6c-0.1,0.6-0.5,0.9-0.7,1.2c-0.9,0.9-1.8,1.8-2.9,2.5c-0.5,0.2-0.9,0.5-1.4,0.7
	c-0.4,0.1-0.7,0.3-1,0.5c-0.1,0.1-0.3,0.1-0.5,0.2c0-0.2,0-0.4,0.1-0.6c0.3-0.7,0.7-1.5,1.1-2.2c0.4-0.7,1-1.1,1.7-1.5
	c1-0.4,2.1-0.6,3.2-0.8C218.2,77.6,218.3,77.6,218.6,77.6z"/>
<path class="fill-white" d="M187.3,106.6c-1.2-0.4-2.3-0.7-3.4-1.1c-0.4-0.1-0.7-0.4-1-0.5c-0.1-0.4-0.2-0.8-0.3-1.2
	c0.1-0.4,0.3-0.8,0.5-1.3c0.3-0.3,0.6-0.6,1-0.8c0.4-0.3,0.7-0.7,1-1.1c0.1-0.1,0.2-0.2,0.3-0.3c0,0.2,0.1,0.3,0.1,0.4
	c0,1,0.1,1.9,0.3,2.8c0.1,0.3,0.2,0.6,0.3,0.9c0,0.1,0.1,0.1,0.1,0.2C186.3,105.3,186.7,105.9,187.3,106.6z"/>
<path class="fill-white" d="M57.2,153.2c-0.2-0.8-0.4-1.5-0.5-2.2c-0.4-1.6-0.9-3.1-1.6-4.6c-0.2-0.4-0.2-0.5-0.1-1.2
	c0.1,0.1,0.3,0.2,0.3,0.4c0.4,0.4,0.7,0.9,1,1.3c0.3,0.3,0.6,0.6,0.9,0.9c0.4,0.3,0.8,0.7,1.1,1c0.5,0.5,0.4,1.1,0.2,1.7
	c-0.1,0.4-0.3,0.7-0.4,1c-0.1,0.1-0.2,0.3-0.2,0.4C57.9,152.4,57.6,152.7,57.2,153.2z"/>
<path class="fill-white" d="M215.2,181.3c-0.5-0.3-0.9-0.5-1.3-0.8c0,0,0-0.1-0.1-0.2C214.3,180.2,214.7,180.5,215.2,181.3z"/>
<path class="fill-white" d="M191.4,92.4c-0.5,0.3-1,0.5-1.7,0.4C190.3,92.4,190.8,92.5,191.4,92.4z"/>
<path class="fill-white" d="M203.6,87.8c-0.2,0.3-0.5,0.4-0.8,0.4C203,88,203.1,87.7,203.6,87.8z"/>
<path class="fill-white" d="M29.7,182.2c0-0.3,0.1-0.5,0.1-0.8c0,0,0,0,0.1,0C29.8,181.6,29.8,181.9,29.7,182.2
	C29.7,182.2,29.7,182.2,29.7,182.2z"/>
<path class="fill-white" d="M165.4,125.7c-0.4,0.4-0.7,0.3-1,0.3c-0.5,0-0.9-0.1-1.4-0.2c-1.3-0.2-2.6,0-3.9,0.1c-0.7,0.1-1.4,0.2-2.1,0.3
	c0,0-0.1-0.1-0.3-0.2c-0.8,0.1-1.6,0.2-2.3,0.4c-0.9,0.1-1.8,0.3-2.7,0.4c-0.1,0-0.2,0-0.2,0c-0.9,0.4-2,0.5-2.9,0.7
	c-0.5,0.1-0.9,0.2-1.4,0.4c-0.7,0.4-1.5,0.6-2.2,0.9c-0.9,0.3-1.8,0.6-2.6,1c-0.4,0.2-0.8,0.3-1.2,0.4c-0.8,0.2-1.6,0.5-2.4,0.7
	c-0.3,0.1-0.6,0.3-0.9,0.4c-0.7,0.3-1.4,0.6-2.1,0.8c-0.8,0.3-1.7,0.7-2.5,1c-1.1,0.4-2.2,0.8-3.3,0.9c-0.6,0.1-1.2,0.2-1.8,0.4
	c-1.1,0.3-2.2,0.7-3.3,0.8c-0.6,0.3-1.2,0.4-1.8,0.5c-0.7,0.1-1.4,0.2-2.1,0.3c-0.5,0.1-0.9,0.1-1.4,0.2c-0.7,0.1-1.5,0.2-2.2,0.3
	c-0.8,0.1-1.6,0.2-2.5,0.3c-0.8,0.1-1.6,0.3-2.4,0.2c-0.1,0-0.3,0-0.4,0c-1.1,0.2-2.3,0.3-3.4,0.5c-1.5,0.3-2.9,0.3-4.4,0.3
	c-1,0-2-0.2-3-0.1c-1.5,0-2.9-0.1-4.4,0c-1.1,0.1-2.2,0.1-3.4,0c-1.9,0-3.8,0.1-5.7,0.1c-1.7,0-3.4,0-5,0.1c-0.8,0-1.7,0.1-2.5,0.2
	c-1.1,0.1-2.1,0.3-3.2,0.5c-1,0.2-2,0.5-2.9,0.8c-0.4,0.1-0.7,0.3-1.2,0.5c-0.1-0.1-0.3-0.2-0.5-0.4c0-0.1,0.1-0.2,0.1-0.3
	c0.3-0.2,0.7-0.4,1-0.6c1.2-0.5,2.4-0.7,3.7-1c0.8-0.1,1.5-0.3,2.3-0.4c0.4-0.1,0.8-0.1,1.2-0.1c0.8,0,1.6-0.1,2.5-0.1
	c0.5,0,1,0.1,1.4,0.1c0.1,0,0.3,0.1,0.4,0c0.8-0.2,1.6-0.2,2.4-0.2c0.9,0,1.8,0,2.7-0.1c0.6,0,1.2,0,1.8,0c0.4,0,0.8-0.1,1.3-0.1
	c0.7,0.1,1.4,0,2.1,0c0.5,0,1.1-0.1,1.6-0.1c1.7,0,3.5,0,5.2,0c0.6,0,1.1,0,1.7,0.1c0.4,0.1,0.7,0,1-0.1c1.4-0.1,2.8-0.2,4.1-0.3
	c0.4,0,0.8-0.1,1.2-0.2c0.1,0,0.3-0.1,0.4-0.1c1.2-0.1,2.4-0.4,3.5-0.5c0.4,0,0.9-0.1,1.3-0.1c0.7-0.1,1.4-0.3,2.1-0.3
	c0.7,0,1.2-0.2,1.9-0.3c0.6,0,1.2-0.2,1.8-0.3c1-0.2,2-0.4,3-0.6c0.9-0.1,1.7-0.6,2.6-0.6c0.5-0.3,1.1-0.3,1.6-0.5
	c0.3-0.1,0.5-0.2,0.8-0.2c1.3-0.2,2.5-0.6,3.7-0.9c0.6-0.2,1.1-0.4,1.6-0.6c0.7-0.3,1.4-0.6,2.1-0.9c0.2-0.1,0.5-0.1,0.7-0.2
	c0.3-0.1,0.6-0.1,0.8-0.3c0.3-0.3,0.7-0.4,1.1-0.5c0.5-0.1,0.9-0.3,1.4-0.5c0.9-0.4,1.8-0.6,2.7-0.9c1.2-0.4,2.3-0.8,3.4-1.3
	c0.4-0.2,0.7-0.3,1.1-0.4c0.8-0.2,1.6-0.5,2.5-0.6c0.6-0.1,1.2-0.4,1.8-0.5c0.6-0.1,1.3-0.1,1.9-0.2c0.2,0,0.3-0.1,0.5-0.1
	c0.6-0.1,1.2-0.2,1.7-0.3c0.9-0.1,1.8-0.2,2.7-0.3c0.8-0.1,1.6-0.1,2.4,0.1c0.3,0.1,0.7,0.1,1,0.1c0.6,0.1,1.2,0.3,1.9,0.4
	c0.3,0.1,0.5,0.1,0.8,0.1C165,125.5,165.2,125.6,165.4,125.7z"/>
<path class="fill-white" d="M149.2,89.1c-0.3,0.1-0.5,0.2-0.7,0.2c-1.3,0-2.7,0-4-0.1c-0.3,0-0.6,0-0.9,0c-1.2,0.1-2.4,0.3-3.6,0.2
	c-0.1,0-0.2,0-0.2,0c-1.2,0.2-2.3,0.5-3.5,0.7c-0.7,0.1-1.3,0.2-2,0.3c-0.4,0.1-0.8,0.1-1.3,0.2c-0.7,0.1-1.3,0.2-2,0.2
	c-0.6,0-1.2,0.3-1.8,0.5c-0.7,0.2-1.4,0.5-2.1,0.8c-0.2,0.1-0.3,0.1-0.5,0.2c-1.6,0.4-3.2,1.1-4.7,1.9c-0.5,0.3-1.1,0.5-1.6,0.7
	c-1.5,0.6-3,1.3-4.6,1.9c-0.2,0.1-0.5,0.2-0.7,0.4c-1.1,0.7-2.4,1.2-3.5,1.9c-1.1,0.6-2.3,1.3-3.5,1.9c-0.5,0.2-0.9,0.6-1.3,0.9
	c-1,0.6-1.9,1.1-2.9,1.7c-0.5,0.3-1.1,0.6-1.6,1c-0.9,0.6-1.7,1.2-2.6,1.8c-0.8,0.5-1.5,1.1-2.3,1.7c-0.3,0.2-0.6,0.5-1,0.7
	c-0.7,0.5-1.4,1-2.1,1.6c-0.2,0.2-0.4,0.4-0.7,0.5c-1.4,1-2.8,2.1-4.1,3.2c-1.1,0.9-2.2,1.8-3.3,2.7c-1.1,0.8-2.2,1.6-3.3,2.4
	c-1,0.7-2,1.5-3,2.2c-1,0.7-2.1,1.4-3.2,2c-0.6,0.3-1.2,0.6-1.8,1c-0.2,0.1-0.5,0.2-0.8,0.1c0.3-0.3,0.6-0.5,0.8-0.7
	c0.7-0.5,1.3-1.1,2-1.4c0.4-0.5,1.1-0.7,1.6-1.1c0.5-0.4,1-0.8,1.5-1.2c0.3-0.2,0.5-0.3,0.8-0.5c0.1-0.1,0.2-0.1,0.3-0.2
	c0.4-0.3,0.8-0.7,1.3-1c1-0.6,1.7-1.4,2.7-2c0.8-0.5,1.4-1.2,2.1-1.8c0.3-0.3,0.7-0.6,1-0.9c0.8-0.6,1.6-1.3,2.4-2
	c0.4-0.4,0.9-0.6,1.4-1c0.9-0.7,1.8-1.5,2.7-2.2c0.9-0.7,1.9-1.4,2.8-2.1c0.2-0.2,0.5-0.4,0.7-0.5c0.8-0.5,1.6-0.9,2.4-1.4
	c0.2-0.1,0.3-0.2,0.4-0.3c0.7-0.6,1.5-1.1,2.4-1.5c0.2-0.1,0.4-0.2,0.6-0.3c0.9-0.6,1.9-1.2,2.8-1.8c0.7-0.4,1.3-0.7,2-1
	c0,0,0.1,0,0.1-0.1c0.9-0.7,1.9-1.1,2.9-1.6c1-0.5,1.9-1.1,2.8-1.6c0.1,0,0.1-0.1,0.2-0.1c1-0.3,2-0.9,3-1.3c1-0.4,1.9-0.8,2.9-1.2
	c0.8-0.3,1.5-0.7,2.3-1c0.3-0.1,0.5-0.2,0.8-0.3c1.2-0.3,2.3-0.7,3.4-1.2c1-0.4,2-0.7,3.1-0.8c0.6-0.1,1.2-0.2,1.9-0.4
	c0.4-0.1,0.7-0.1,1.1-0.1c0.7-0.1,1.4-0.2,2.1-0.2c0.1,0,0.2,0,0.2,0c1.1-0.4,2.4-0.4,3.5-0.7c0.5-0.1,1-0.1,1.5-0.1
	c0.4,0,0.8-0.1,1.3-0.2c0.7-0.1,1.5-0.1,2.2,0c1,0,1.9,0,2.9-0.1c0.5,0,0.9,0,1.4,0C148.9,88.8,149,89,149.2,89.1z"/>
<path class="fill-white" d="M65.7,135.9c-0.3-0.2-0.5-0.4-0.5-0.7c0.1-0.1,0.2-0.2,0.3-0.3c0.1-0.1,0.3-0.1,0.3-0.2c0.4-0.6,1-0.7,1.5-1
	c0.4-0.2,0.7-0.5,1.1-0.7c0.6-0.4,1.3-0.7,2-1c0.5-0.2,1-0.2,1.5-0.3c1.1-0.3,2.2-0.5,3.3-0.7c0.1,0,0.2-0.1,0.3-0.1
	c1,0,1.9-0.2,2.9-0.3c1.3-0.1,2.6-0.1,3.9-0.3c0.4-0.1,0.8,0,1.2-0.1c0.6-0.1,1.1-0.2,1.6-0.3c0.9-0.3,1.7-0.7,2.6-1
	c0.5-0.2,1.1-0.3,1.6-0.4c0.7-0.1,1.3-0.5,2-0.8c0.6-0.3,1.1-0.6,1.7-0.9c1-0.5,2-1,3-1.5c0.7-0.4,1.3-0.8,1.9-1.2
	c0.3-0.2,0.6-0.5,0.9-0.8c0.5-0.6,1.2-1,1.9-1.4c0.1-0.1,0.2-0.1,0.3-0.2c0.5-0.6,1.2-0.9,1.7-1.4c0.5-0.4,0.9-0.9,1.3-1.3
	c0.9-1,2-1.8,3.1-2.6c0.3-0.2,0.8-0.4,1-0.7c0.1-0.1,0.2-0.1,0.4-0.2c0.5-0.2,0.9-0.4,1.4-0.7c0.1-0.1,0.2-0.1,0.4-0.2
	c0.2-0.1,0.4-0.1,0.7-0.1c-0.1,0.1-0.2,0.2-0.3,0.3c-0.7,0.4-1.4,0.8-2,1.3c-1.5,0.9-2.8,2.1-4,3.3c-0.6,0.5-1.2,1-1.8,1.6
	c-1.2,1-2.5,2-3.7,3.1c-0.6,0.5-1.2,1-1.9,1.4c-1.5,0.9-3,1.7-4.5,2.5c-0.8,0.4-1.6,0.7-2.5,1c-1,0.3-2,0.6-3,1.1
	c-1.1,0.4-2.2,0.7-3.3,0.8c-0.4,0-0.9,0.1-1.3,0.2c-0.6,0.2-1.3,0.1-1.9,0.3c-0.2,0.1-0.5,0-0.7,0c-0.2,0-0.3,0-0.5,0
	c-1.8,0.2-3.6,0.5-5.4,0.9c-0.3,0.1-0.6,0.2-0.9,0.2c-0.9,0.1-1.7,0.3-2.5,0.6c-0.5,0.2-1.1,0.5-1.6,0.8c-0.5,0.3-1.1,0.7-1.6,1
	c-0.2,0.1-0.4,0.3-0.6,0.5C66.5,135.5,66.2,135.8,65.7,135.9z"/>
<path class="fill-white" d="M64.7,121.5c0-0.1,0-0.3,0-0.4c0.4-0.6,0.7-1.2,1.1-1.8c0.2-0.2,0.4-0.5,0.5-0.7c0.3-0.4,0.5-0.8,0.7-1.1
	c0.1-0.2,0.3-0.4,0.5-0.5c0.5-0.5,1.1-0.9,1.5-1.5c0.1-0.2,0.3-0.3,0.5-0.4c0.3-0.2,0.6-0.3,0.8-0.5c0.4-0.6,1-0.9,1.6-1.2
	c0.3-0.2,0.6-0.4,0.9-0.6c0.3-0.2,0.7-0.4,1-0.6c0.4-0.2,0.8-0.5,1.1-0.7c0.4-0.3,0.7-0.5,1.1-0.8c0.1-0.1,0.2-0.2,0.3-0.2
	c0.6-0.2,0.9-0.7,1.4-1c1-0.7,1.9-1.5,3.1-2c0.7-0.3,1.4-0.7,2.2-1c0.1,0,0.2-0.1,0.4-0.2c0.6-0.4,1.1-0.7,1.7-1
	c0.4-0.2,0.9-0.4,1.3-0.5c0.5-0.2,1-0.3,1.5-0.6c0.4-0.3,0.9-0.2,1.4-0.1c-0.1,0.1-0.1,0.3-0.2,0.3c-0.6,0.4-1.3,0.8-2,1.1
	c-0.8,0.3-1.6,0.6-2.4,1c-0.7,0.3-1.3,0.7-2,1c-0.8,0.5-1.7,0.8-2.5,1.3c-0.9,0.6-1.8,1.1-2.6,1.8c-0.8,0.7-1.7,1.1-2.5,1.7
	c-1.1,0.6-2.2,1.3-3.2,2.1c-1.3,1-2.5,1.9-3.6,3c-0.2,0.2-0.4,0.5-0.6,0.7c-0.4,0.5-0.7,1-1.2,1.4c-0.5,0.4-0.8,1-1.2,1.6
	C65.1,121.2,65,121.4,64.7,121.5z"/>
<path class="fill-white" d="M142.8,106.5c0.2-0.2,0.5-0.4,0.8-0.3c0,0,0.1,0,0.2,0c1.2-0.6,2.6-0.7,3.9-1c0.3-0.1,0.7-0.2,1-0.1
	c0.7-0.4,1.4-0.6,2.2-0.6c1.4-0.1,2.9-0.2,4.3-0.5c0.9-0.1,1.8-0.2,2.7-0.1c0.4,0,0.9,0.1,1.3,0.1c0.1,0,0.2,0.1,0.4,0.2
	c-0.3,0-0.4,0.1-0.5,0.1c-1.3-0.1-2.6,0-3.9,0.3c-1.2,0.2-2.4,0.3-3.7,0.5c-0.9,0.1-1.7,0.3-2.6,0.4c-0.9,0.2-1.7,0.3-2.6,0.5
	c-0.8,0.2-1.5,0.4-2.2,0.6c-1.8,0.5-3.5,1.1-5.2,1.8c-0.8,0.3-1.6,0.6-2.4,0.9c-0.9,0.4-1.9,0.8-2.8,1.1c-1.1,0.4-2.2,0.8-3.3,1.3
	c-1,0.4-1.9,0.8-2.9,1.1c-0.8,0.2-1.5,0.7-2.4,0.9c-0.3,0.1-0.6,0.1-0.9-0.2c0.1-0.1,0.2-0.2,0.3-0.2c1-0.4,2-0.7,3-1.1
	c0.3-0.1,0.6-0.3,0.9-0.4c0.2-0.1,0.5-0.3,0.8-0.2c0.1,0,0.3-0.1,0.4-0.1c0.6-0.5,1.2-0.7,2-0.8c0.6-0.1,1.2-0.4,1.8-0.7
	c0.6-0.2,1.1-0.5,1.7-0.8c0.2-0.1,0.4-0.1,0.5-0.1c0.2-0.1,0.4-0.1,0.5-0.2c0.4-0.3,0.8-0.3,1.2-0.5c0.8-0.3,1.6-0.7,2.4-1
	c0.7-0.3,1.5-0.5,2.2-0.7C142.1,106.4,142.4,106.5,142.8,106.5z"/>
<path class="fill-white" d="M84.2,239.8c0.7-0.2,1-0.7,1.4-1.1c0.7-0.8,1.3-1.5,2-2.3c0.3-0.4,0.6-0.8,0.9-1.2c0.6-1.1,1.2-2.2,1.8-3.2
	c0.3-0.6,0.6-1.2,0.5-1.9c0.1,0,0.3,0,0.4-0.1c-0.1-0.5,0.1-0.9,0.2-1.4c0.1-0.3,0.2-0.7,0.3-1c0.2-0.4,0.1-1,0.5-1.3
	c0.1-0.5,0.2-1,0.3-1.5c0,0,0.1,0,0.3-0.1c0.1-0.7,0.2-1.4,0.3-2.2c0.1-0.7,0.1-1.4,0.2-2.1c0-0.5,0.1-1.1,0.2-1.6
	c0-0.3,0.1-0.7,0.1-1c0-0.3,0-0.5,0-0.8c0-0.2,0-0.5,0.2-0.7c0.3,1.1,0.4,2.2,0.2,3.2c-0.1,0.5-0.1,0.9-0.1,1.4
	c0,0.4-0.1,0.8-0.1,1.2c0,0.5-0.2,0.9,0,1.3c0,0.1,0,0.2,0,0.3c-0.2,0.9-0.2,1.8-0.3,2.7c-0.1,0.8-0.4,1.6-0.8,2.3
	c-0.2,0.2-0.3,0.5-0.5,0.7c-0.2,0.3-0.3,0.6-0.4,0.9c-0.1,0.2-0.1,0.4-0.2,0.5c-0.3,0.3-0.4,0.8-0.7,1.1c-0.1,0.1-0.1,0.1-0.1,0.2
	c-0.1,0.9-0.6,1.7-1.1,2.5c-0.2,0.3-0.3,0.6-0.6,0.8c-0.2,0.2-0.3,0.4-0.4,0.6c-0.3,0.6-0.6,1.1-1.1,1.5c-0.1,0.1-0.2,0.2-0.3,0.3
	c-0.3,0.3-0.6,0.6-0.8,0.9c-0.1,0.2-0.3,0.3-0.4,0.5c-0.2,0.2-0.3,0.4-0.5,0.6C85.1,240.4,84.8,240.4,84.2,239.8z"/>
<path class="fill-white" d="M68.2,164.7c0,0.1,0,0.1,0,0.2c-0.3,0.6-0.6,1.1-0.8,1.7c0,0.1-0.1,0.1-0.2,0.2c0-0.2,0-0.3,0-0.4
	c0.2-0.5,0.5-1,0.8-1.5C67.9,164.8,68.1,164.8,68.2,164.7L68.2,164.7z"/>
<path class="fill-white" d="M227.1,149.2c0,0.6-0.2,0.9-0.5,1.1c-0.4,0.3-0.7,0.7-1.3,0.8c-0.4,0.1-0.8,0.3-1.1,0.4
	c-0.3,0.1-0.6,0.1-0.9,0.2c-0.4,0.1-0.8,0.1-1.2,0.2c-0.2,0-0.3,0.1-0.5,0.1c-1,0-2,0-2.9,0c-0.7,0-1.5-0.1-2.2-0.2
	c-0.8-0.1-1.6-0.1-2.5-0.2c-0.7-0.1-1.5-0.2-2.2-0.3c-0.3-0.1-0.6-0.1-0.9-0.5c0.6,0.1,1.1,0.1,1.6,0.2c0.9,0.1,1.8,0.2,2.7,0.3
	c0.8,0,1.7-0.1,2.5,0c0.8,0.1,1.7-0.1,2.5,0c0.3,0,0.7,0,1-0.1c1,0,2-0.3,3-0.6c0.8-0.2,1.6-0.6,2.3-1.1
	C226.7,149.5,226.8,149.4,227.1,149.2z"/>
<path class="fill-white" d="M207.5,100.5c-0.6,0-1.3,0-1.9-0.2c-0.1-0.1-0.3-0.1-0.5-0.1c-1.1-0.1-2.2-0.1-3.3-0.1
	c-1.6-0.1-3.2-0.1-4.7,0.1c-0.7,0.1-1.4,0.1-2.1,0.1c-1,0-2,0.2-2.9,0.5c-1.3,0.3-2.7,0.7-3.8,1.6c-0.2,0.2-0.5,0.3-0.8,0.4
	c0-0.2,0-0.3,0-0.4c0.2-0.4,0.6-0.6,0.9-0.9c0.9-0.6,1.8-1,2.8-1.2c0.4-0.1,0.7-0.2,1.1-0.2c0.1,0,0.3,0,0.4,0
	c1.2-0.3,2.5-0.3,3.7-0.3c0.2,0,0.3,0,0.5,0c1.1-0.1,2.1-0.1,3.2,0c0.1,0,0.2,0.1,0.3,0c1.8-0.1,3.6,0.2,5.4,0.3
	C206.4,100.1,207,100.2,207.5,100.5L207.5,100.5z"/>
<path class="fill-white" d="M218.5,120.3c0.5-0.2,1,0,1.5,0.1c0.4,0.2,0.8,0.3,1.2,0.4c1.2,0.5,2.5,1,3.7,1.6c1.2,0.6,2.3,1.3,3.5,2
	c0.3,0.2,0.7,0.4,1.1,0.5c0.7,0.2,1.3,0.6,1.8,1.2c-0.2,0.1-0.4,0.1-0.6,0c-1.1-0.4-2.2-0.8-3.2-1.5c-0.6-0.5-1.4-0.8-2-1.2
	c-0.2-0.1-0.3-0.2-0.5-0.3c-0.6-0.4-1.2-0.6-1.9-0.9c-0.6-0.3-1.2-0.5-1.8-0.8c-0.3-0.2-0.8-0.1-1-0.5c0-0.1-0.2-0.1-0.3-0.1
	C219.4,120.6,219,120.4,218.5,120.3z"/>
<path class="fill-white" d="M213.8,156.5c0-0.1-0.1-0.3-0.1-0.4c0.9-0.1,1.8-0.3,2.7-0.1c0,0.1,0.1,0.2,0.1,0.2c0,0.1,0,0.2,0,0.2
	C216.2,156.6,214.8,156.7,213.8,156.5z"/>
<path class="fill-white" d="M230,111.2c-0.3-0.2-0.5-0.4-0.7-0.5c-0.2-0.1-0.5-0.1-0.7-0.2c-0.5-0.1-1-0.3-1.6-0.5c0.3,0,0.4-0.1,0.5,0
	c0.6,0.1,1.2,0.2,1.7,0.4C229.7,110.4,229.9,110.7,230,111.2z"/>
<path class="fill-white" d="M222.9,144.6c0.2-0.2,0.2-0.3,0.2-0.3c0.1-0.1,0.2-0.1,0.3-0.1c0.6-0.1,1.2-0.1,1.7-0.2
	c0.1,0.1,0.1,0.2,0.1,0.4C224.6,144.4,223.8,144.5,222.9,144.6z"/>
<path class="fill-white" d="M206.7,137.5c-0.2,0.2-0.2,0.2-1.2,0.1C206,137.4,206.4,137.5,206.7,137.5z"/>
<path class="fill-white" d="M207.5,100.5c0.5-0.1,1,0.1,1.6,0.2C208.4,100.9,207.9,100.8,207.5,100.5L207.5,100.5z"/>
<path class="fill-white" d="M208,137.7c-0.3,0-0.6,0.1-1-0.1C207.4,137.4,207.7,137.6,208,137.7z"/>
<path class="fill-white" d="M209.6,122.6c-0.5,0.2-0.9,0-1.3-0.1C208.7,122.3,209,122.5,209.6,122.6z"/>
<path class="fill-white" d="M198.4,197.9c0,0.1,0,0.2,0,0.3c-1.2,0.2-2.4,0.4-3.5,0.6c-0.7,0.1-1.4,0.2-2.1,0.2c-1.5,0.1-2.9,0.3-4.4,0.3
	c-1.3,0.1-2.5,0.3-3.8,0.2c-1.3-0.1-2.5,0-3.8-0.1c-1.3-0.1-2.7-0.2-3.9-0.6c-1-0.3-2-0.4-3-0.7c-2.2-0.5-4.3-0.9-6.5-1.6
	c-1.2-0.4-2.4-0.8-3.6-1.3c-0.7-0.3-1.4-0.5-2.1-0.8c-1-0.3-2-0.8-3-1.3c-0.8-0.3-1.6-0.7-2.3-1.1c-0.6-0.3-1.2-0.6-1.8-0.8
	c-0.6-0.3-1.1-0.6-1.7-0.9c-0.7-0.4-1.4-0.8-2.2-1.1c-0.9-0.4-1.8-0.9-2.7-1.3c-0.1,0-0.2-0.1-0.3-0.1c-1.5-0.9-3-1.8-4.5-2.7
	c-1.2-0.8-2.4-1.6-3.7-2.4c-0.1-0.1-0.3-0.2-0.4-0.3c-0.7-0.6-1.5-1-2.2-1.4c-0.6-0.4-1.1-0.8-1.7-1.2c-0.6-0.4-1.2-0.8-1.8-1.2
	c-0.7-0.5-1.4-1-2.2-1.5c-0.4-0.3-0.8-0.6-1.3-0.8c-0.6-0.3-1.2-0.6-1.8-1c-0.9-0.5-1.8-1-2.7-1.5c-0.6-0.3-1.2-0.5-1.8-0.8
	c-0.9-0.4-1.9-0.9-2.8-1.3c-1.9-0.9-3.9-1.6-6-2c-0.9-0.2-1.7-0.4-2.6-0.6c0-0.1-0.1-0.2-0.1-0.3c0.1-0.1,0.1-0.1,0.1-0.1
	c0.5-0.2,1.1-0.1,1.6,0c0.8,0.1,1.6,0.4,2.4,0.6c0.3,0.1,0.6,0.3,0.9,0.4c0.9,0.2,1.7,0.4,2.5,0.9c0.6,0.3,1.3,0.5,1.9,0.8
	c0.2,0.1,0.5,0.2,0.7,0.3c0.2,0.1,0.5,0.2,0.7,0.3c0.2,0.1,0.4,0.2,0.6,0.3c0.6,0.4,1.4,0.7,2.1,1c0.8,0.4,1.5,0.8,2.3,1.2
	c0.8,0.4,1.4,0.9,2.2,1.2c0.5,0.5,1.2,0.6,1.7,1.1c0.1,0.1,0.2,0.1,0.3,0.2c1,0.4,1.7,1.2,2.6,1.7c0.6,0.3,1.2,0.8,1.7,1.2
	c0.6,0.4,1.1,0.8,1.7,1.2c0.5,0.3,1,0.7,1.5,0.9c1.1,0.6,2.2,1.4,3.3,2.1c0.2,0.2,0.5,0.3,0.7,0.5c0.3,0.1,0.5,0.3,0.7,0.5
	c0.1,0.1,0.2,0.2,0.3,0.2c0.7,0.3,1.3,0.7,2,1.1c0.5,0.3,0.9,0.6,1.4,0.9c0.3,0.2,0.6,0.4,1,0.5c0.5,0.2,1,0.5,1.5,0.7
	c0.3,0.1,0.5,0.2,0.8,0.3c0.3,0.2,0.7,0.4,1,0.5c1.2,0.5,2.4,1.1,3.5,1.8c0.1,0.1,0.3,0.1,0.5,0.2c0.3,0.1,0.6,0.2,0.9,0.4
	c1,0.7,2.2,1,3.4,1.5c0.6,0.2,1.2,0.5,1.8,0.8c0.2,0.1,0.4,0.1,0.6,0.2c0.8,0.3,1.7,0.7,2.5,1c0.3,0.1,0.6,0.2,0.9,0.3
	c0.5,0.2,0.9,0.3,1.4,0.5c1,0.3,2,0.6,3.1,0.8c0.1,0,0.2,0,0.3,0.1c0.8,0.3,1.7,0.4,2.6,0.6c1.5,0.4,3,0.6,4.5,1
	c0.6,0.1,1.1,0.3,1.7,0.2c0.3,0,0.6,0.1,0.9,0.1c0.2,0,0.5,0.1,0.7,0.1c0.2,0,0.4,0,0.6,0c0.7,0.2,1.4,0.1,2.1,0
	c0.2,0,0.5,0,0.7,0.1c0.4,0.1,0.9,0,1.3,0.1c0.9,0,1.7-0.1,2.6-0.2c0.9-0.1,1.9-0.2,2.8-0.2c1.2-0.1,2.4-0.2,3.6-0.4
	c0.6-0.1,1.2,0,1.7-0.2c0.1,0,0.2,0,0.3,0C197.3,197.9,197.8,197.9,198.4,197.9z"/>
<path class="fill-white" d="M216.8,193.5c0.9-0.6,1.9-0.8,2.9-0.9c0,0,0.1-0.1,0.2-0.1c0.7-0.6,1.6-0.8,2.5-0.9c0.5-0.1,1.1-0.1,1.6-0.2
	c1-0.2,2.1-0.1,3.1,0c0.8,0.1,1.6,0.3,2.3,0.5c1.1,0.2,2,0.7,3,1.1c0.5,0.2,1.1,0.4,1.6,0.4c0.3,0,0.6,0,0.9,0.3
	c-0.9,0.2-1.6,0-2.3-0.1c-0.7-0.1-1.3-0.3-2-0.2c-0.3,0.1-0.7-0.1-1.1-0.2c-1.3-0.5-2.7-0.8-4.1-1c-0.5-0.1-1,0.1-1.5,0.1
	c-0.3,0-0.5,0.1-0.8,0.1c-1,0-2,0.3-2.9,0.7c-0.6,0.3-1.3,0.3-1.9,0.5c-0.3,0.1-0.6,0.1-0.9,0.2C217.2,193.8,217,193.8,216.8,193.5z
	"/>
<path class="fill-white" d="M203.9,195.8c0.2-0.1,0.3-0.3,0.5-0.4c0.9-0.4,1.7-0.7,2.6-1.1c0.1,0,0.2-0.1,0.2-0.1c0.6,0,1.3-0.1,1.9-0.1
	c1.1,0,2.1,0,3.2,0c0.6,0,1.3,0.1,1.9,0.1c0.3,0.3,0.1,0.4-0.2,0.6c-1.4,0-2.8,0.1-4.3,0.1c-1.2,0-2.4,0.1-3.6,0.4
	c-0.6,0.2-1.3,0.3-1.9,0.5c-0.1,0-0.2,0-0.4,0C203.9,195.9,203.9,195.8,203.9,195.8z"/>
<path class="fill-white" d="M208,52c0.2,0.2,0.4,0.3,0.5,0.5c0,0.3-0.1,0.4-0.4,0.5c-0.1,0-0.3,0.1-0.4,0.1c-1.2,0.2-2.3,0.6-3.4,1
	c-1.6,0.5-3,1.2-4.4,2c-0.5,0.3-1,0.7-1.5,1c-0.2,0.2-0.5,0.3-0.8,0.6c0-0.2,0-0.4,0-0.5c0.2-0.2,0.3-0.4,0.6-0.6
	c0.8-0.6,1.7-1.2,2.6-1.8c0,0,0.1-0.1,0.1-0.1c0.8-0.2,1.4-0.7,2.1-1.1c0.2-0.1,0.4-0.2,0.6-0.3c0.6-0.2,1.2-0.5,1.9-0.7
	C206.3,52.4,207.1,52.2,208,52z"/>
<path class="fill-white" d="M187.1,57c-0.6,0.6-1.3,0.8-1.9,1.2c-0.2-0.1-0.1-0.2,0-0.3c0.5-0.3,1.1-0.7,1.6-1
	C186.9,56.9,187,56.9,187.1,57z"/>
<path class="fill-white" d="M89.3,39.9c0,0.2,0,0.4,0,0.6c-0.3,1.3-0.6,2.6-0.9,3.9c0,0,0,0-0.1,0c0-0.3,0-0.6,0.1-0.9
	c0.3-0.8,0.4-1.6,0.5-2.4c0-0.4,0.2-0.8,0.3-1.2C89.1,39.9,89.2,39.9,89.3,39.9z"/>
<path class="fill-white" d="M27.5,211.9c0.1,0.5,0.2,0.9,0.2,1.2c0,0.9,0.1,1.8,0.1,2.7c0,0.3,0,0.6,0,0.9c0,0.7,0,1.3,0.1,2
	c0.1,0.3,0.1,0.7,0.1,1c0,1.2,0,2.3,0.1,3.5c0.1,0.6,0,1.1,0,1.7c0.1,0.5,0.1,1.1,0.2,1.6c0.1,0.4,0,0.7-0.3,1
	c-0.1-0.1-0.2-0.2-0.3-0.4c-0.1-0.2-0.1-0.5-0.2-0.8c-0.1-1-0.1-1.9-0.2-2.9c-0.1-0.9-0.1-1.8-0.2-2.6c-0.1-0.9-0.2-1.8-0.2-2.7
	c0-0.6,0-1.2,0-1.8c0-1,0-2.1,0-3.1c0-0.3,0-0.6,0.1-0.9C27.1,212.2,27.2,212.1,27.5,211.9z"/>
<path class="fill-white" d="M28.5,230.1c0.1,0.2,0.2,0.4,0.2,0.5c0.2,1.1,0.4,2.3,0.6,3.5c0.2,1,0.5,1.9,0.8,2.9c0.3,1.1,0.6,2.3,1,3.4
	c0.3,0.7,0.6,1.4,0.9,2.1c0.2,0.5,0.3,1,0.5,1.5c0,0.1,0,0.3,0,0.5c-0.1-0.1-0.2-0.1-0.2-0.2c-0.8-1.4-1.5-2.8-2-4.4
	c-0.1-0.4-0.2-0.8-0.3-1.2c-0.3-0.9-0.5-1.9-0.7-2.9c-0.1-0.2-0.1-0.5-0.2-0.7c-0.3-0.7-0.5-1.5-0.7-2.3c-0.2-0.8-0.1-1.5-0.1-2.3
	C28.3,230.4,28.4,230.3,28.5,230.1z"/>
<path class="fill-white" d="M29.7,194c-0.2-0.1-0.2-0.1-0.3-0.2c0-0.2,0-0.3,0-0.5c0.3-2.4,0.7-4.9,1-7.3c0,0,0.1-0.1,0.1-0.2
	c0.1,0.1,0.3,0.1,0.4,0.2c0.3,0.7,0.3,1.4,0.1,2.2c-0.3,1.2-0.6,2.4-0.8,3.7c-0.1,0.5-0.2,1.1-0.3,1.6
	C29.8,193.7,29.8,193.8,29.7,194z"/>
<path class="fill-white" d="M35.4,170.7c-0.1-0.7,0.1-1.2,0.3-1.8c0.4-1.2,0.7-2.4,1.1-3.6c0.2-0.8,0.5-1.6,0.8-2.3c0-0.1,0.2-0.2,0.3-0.3
	c0.1-0.1,0.1,0,0.5,0.2c0,0.4-0.1,0.8-0.3,1.2c-0.3,0.9-0.7,1.7-1.1,2.6c-0.5,1.2-1,2.4-1.5,3.6C35.6,170.4,35.5,170.5,35.4,170.7z"
	/>
<path class="fill-white" d="M35.2,171c0,0.2,0,0.4-0.1,0.5c-0.3,0.9-0.7,1.8-1,2.7c-0.6,1.6-1.1,3.3-1.4,5c-0.2,0.9-0.2,1.9-0.3,2.9
	c0,0.3-0.1,0.7-0.1,1c-0.2-0.1-0.2-0.2-0.1-0.3c0.2-0.7,0.1-1.4,0-2.1c0-0.5,0-1,0.1-1.4c0.4-1.6,0.8-3.3,1.2-4.9
	c0.2-0.8,0.6-1.6,1-2.4C34.7,171.6,34.7,171.3,35.2,171z"/>
<path class="fill-white" d="M38.7,168.1c0-0.2,0-0.4,0.1-0.6c0.4-0.7,0.4-1.5,0.6-2.2c0.1-0.3,0.2-0.7,0.3-1.1c0.1-0.4,0.2-0.8,0.4-1.1
	c0.1-0.3,0.3-0.7,0.5-1c0.2-0.3,0.5-0.3,0.8-0.1c0.1,0.4-0.1,0.6-0.2,0.8c-0.7,1-1,2-1.4,3.1c-0.2,0.6-0.5,1.3-0.8,1.9
	C39,168,38.8,168.1,38.7,168.1C38.7,168.2,38.7,168.1,38.7,168.1z"/>
<path class="fill-white" d="M29.9,226.7c0.2,0.2,0.3,0.4,0.2,0.6c-0.1,0.6,0,1.2,0.1,1.7c0.1,0.8,0.3,1.7,0.2,2.5c0,0.2,0.1,0.4,0.1,0.5
	c0,0.2,0,0.4,0.1,0.7c-0.1-0.1-0.2-0.1-0.3-0.1c-0.1-0.1-0.1-0.3-0.1-0.5c-0.2-1.4-0.5-2.8-0.7-4.2c-0.1-0.4-0.1-0.7-0.1-1.1
	C29.5,226.8,29.7,226.7,29.9,226.7z"/>
<path class="fill-white" d="M28.5,206c0.2,0,0.3,0,0.3,0.1c0,0.1,0.1,0.1,0.1,0.1c-0.1,1.1-0.2,2.2-0.4,3.3c0,0.4,0,0.9-0.1,1.4
	c-0.3-0.3-0.3-0.5-0.3-0.8c0-1,0-2.1,0.1-3.1C28.3,206.7,28.4,206.4,28.5,206z"/>
<path class="fill-white" d="M27.2,228.8c-0.4-0.4-0.4-0.4-0.3-1c-0.1-0.2-0.2-0.4-0.2-0.6c-0.1-1-0.1-2-0.2-3c0,0,0.1-0.1,0.1-0.1
	c0.4,0.3,0.4,0.8,0.5,1.2c0,0.5,0.1,0.9,0.1,1.4c0,0.6,0,1.2,0.1,1.7C27.3,228.5,27.2,228.6,27.2,228.8z"/>
<path class="fill-white" d="M38.1,174.4c-0.3-0.1-0.4-0.2-0.5-0.3c-0.4-0.4-0.3-0.9,0.2-1.1c0.2-0.1,0.4-0.1,0.7-0.2
	C38.5,173.4,38,173.8,38.1,174.4z"/>
<path class="fill-white" d="M84.4,159.5c-0.1-0.3,0-0.4,0.1-0.5c0.1-0.1,0.3-0.1,0.5-0.1c0.6,0.3,1.2,0,1.7,0.1c0.5,0.1,1.1,0,1.7,0
	c0.7,0,1.3-0.1,2,0c0.5,0,1,0,1.4,0.2c0.8,0.2,1.6,0.1,2.5,0c1.4-0.1,2.7-0.3,4.1-0.4c0.8-0.1,1.6-0.2,2.4-0.2c0.1,0,0.2,0,0.3,0
	c0.7-0.3,1.4-0.3,2.1-0.5c0.8-0.1,1.5-0.1,2.3-0.2c0.8-0.1,1.6-0.2,2.5-0.3c0.3,0,0.6-0.1,1,0c0.9,0,1.8,0,2.7,0.1
	c0.1,0,0.2,0,0.2,0c1-0.1,2.1,0,3.1,0.1c0.4,0,0.8,0.1,1.3,0.2c1.2,0.2,2.4,0.4,3.6,0.8c0.4,0.2,0.9,0.2,1.3,0.5c0,0,0,0.1,0.1,0.2
	c-0.3,0.1-0.6,0-0.9,0c-1.6-0.3-3.2-0.5-4.7-0.8c-1.6-0.2-3.2-0.3-4.8-0.3c-1,0-2,0-3,0.2c-0.9,0.1-1.8,0.1-2.6,0.2
	c-1.1,0.1-2.3,0.2-3.4,0.6c-0.3,0.1-0.6,0.1-0.9,0.2c-1,0.1-1.9,0.1-2.9,0.2c-0.8,0.1-1.7,0.2-2.5,0.3c-0.4,0.1-0.9,0.1-1.4,0.1
	c-1.2,0-2.3-0.1-3.5-0.1c-0.5,0-1,0.1-1.5,0.1c-0.1,0-0.2,0-0.3,0c-1.1-0.1-2.3-0.1-3.4-0.3C85,159.6,84.7,159.6,84.4,159.5z"/>
<path class="fill-white" d="M115.4,160.7c0.6-0.6,1.1-0.9,1.7-0.8c0.9,0.2,1.8,0,2.6,0c1,0,2,0,2.9,0.2c0.3,0.1,0.7,0.1,1,0.1
	c1.5,0.1,2.9,0.6,4.3,1.1c0.4,0.2,0.9,0.4,1.3,0.5c0.5,0.2,0.8,0.5,1.2,1c-0.4,0-0.6-0.1-0.9-0.3c-0.4-0.3-0.9-0.4-1.4-0.6
	c-0.7-0.2-1.4-0.4-2.2-0.6c-1-0.3-2-0.4-3.1-0.6c-0.8-0.2-1.7-0.2-2.5-0.2c-0.7,0-1.4-0.1-2.2-0.1c-0.6,0-1.2,0.1-1.8,0.1
	C116.2,160.7,115.8,160.7,115.4,160.7z"/>
</svg>
