<?xml version="1.0" encoding="utf-8"?>
<!-- Generator: Adobe Illustrator 22.1.0, SVG Export Plug-In . SVG Version: 6.00 Build 0)  -->
<svg version="1.1" id="windmill" xmlns="http://www.w3.org/2000/svg" xmlns:xlink="http://www.w3.org/1999/xlink" x="0px" y="0px"
	 viewBox="0 0 98 183.7" style="enable-background:new 0 0 98 183.7;" xml:space="preserve">
<style type="text/css">
	.st0{fill:#E8CA82;}
	.st1{fill:none;}
	.st2{fill:#FFFFFF;}
</style>
<path class="st0" d="M48.7,65.7c-1,0-2-0.2-3-0.5l-5.2,117.6h14.7L51.7,65.2C50.7,65.5,49.7,65.7,48.7,65.7z"/>
<g>
	<rect x="-4.4" y="3.6" class="st1" width="106.2" height="106.2"/>
	<g>
		<path class="st0" d="M2,78.3l38.6-20.5l0.3,1.2c0.5,1.6,1.4,3.1,2.8,4.1l0.8,0.6l-3.2,4L1.1,84.1L2,78.3z"/>
		<path class="st2" d="M39.9,59.3c0.5,1.9,1.6,3.5,3.1,4.6l-2.4,3L2.4,82.6l0.5-3.6L39.9,59.3 M41.2,56.4L39,57.5L2,77.2l-0.9,0.5
			l-0.1,1l-0.5,3.6l-0.5,3.5l3.2-1.3l38.3-15.6l0.5-0.2l0.3-0.4l2.4-3l1.2-1.6l-1.6-1.2c-1.2-0.9-2-2.2-2.4-3.6L41.2,56.4L41.2,56.4
			z"/>
	</g>
	<path id="Path_9_1_" class="st0" d="M48.7,49.5c4,0,7.3,3.3,7.3,7.3S52.7,64,48.7,64s-7.3-3.3-7.3-7.3l0,0
		C41.4,52.8,44.7,49.5,48.7,49.5"/>
	<g>
		<path class="st0" d="M53.7,63.2l0.8-0.9c1.1-1.2,1.9-2.7,2.1-4.4l0.1-1l5,0.7l34.5,26.7l-5.6,2.1L53.7,63.2z"/>
		<path class="st2" d="M57.6,58.1l3.7,0.5L94.2,84l-3.4,1.3L55.3,63C56.5,61.6,57.4,59.9,57.6,58.1 M55.9,55.8l-0.3,2
			c-0.2,1.4-0.8,2.8-1.8,3.8l-1.7,1.8l2.1,1.3L89.7,87l0.8,0.5l0.9-0.3l3.4-1.3l3.4-1.2l-2.9-2.2L62.6,57l-0.4-0.3l-0.5-0.1
			l-3.7-0.5L55.9,55.8L55.9,55.8z"/>
	</g>
	<g>
		<path class="st0" d="M42.7,44.9l6.1-43.3l4.5,3.9l-1.6,43.7l-1.2-0.3c-0.6-0.1-1.2-0.2-1.7-0.2l-0.2-1v1c-1.1,0-2.1,0.2-3.1,0.6
			l-0.9,0.4L42.7,44.9z"/>
		<path class="st2" d="M49.6,3.6l2.7,2.4l-1.5,42c-0.6-0.1-1.3-0.2-2-0.2c0,0-0.1,0-0.1,0c0,0-0.1,0-0.1,0c-1.2,0-2.4,0.2-3.4,0.7
			l-1.5-3.6L49.6,3.6 M48.1-0.3l-0.5,3.6l-5.8,41.2L41.7,45l0.2,0.5l1.5,3.6l0.8,1.9l1.9-0.8c0.9-0.4,1.8-0.5,2.7-0.5l0.1,0l0.1,0
			c0.5,0,1,0.1,1.5,0.2l2.4,0.5l0.1-2.4l1.5-42l0-1l-0.7-0.6l-2.7-2.4L48.1-0.3L48.1-0.3z"/>
	</g>
</g>
</svg>
