<svg version="1" xmlns="http://www.w3.org/2000/svg" width="933.333" height="933.333" viewBox="0 0 700.000000 700.000000"><path d="M530 47.2c-17.1 1.5-35.5 6.5-49.9 13.5-13.8 6.8-23.3 18.3-26.4 31.9-1.6 7.1-1.3 19.1.7 25.8 6.7 22.3 36.4 34 62.1 24.4 3.9-1.4 14.4-8.5 16.7-11.2 5-5.7 8-11.1 9.4-16.7 4.3-16.9-4-37.9-18.4-46.4-3.8-2.3-3.9-3-.9-4.9 4.8-3.2 12.8-4.5 25.7-4.1 12.8.3 13.9.4 24.8 3.1 22.1 5.5 43.8 20.4 56.4 38.8 8.8 12.7 13 26.7 12.9 42.6-.1 36.1-24.6 60.7-85.1 85.7-29.6 12.3-61.4 22.8-119.5 39.7-57.9 16.7-81.4 24.1-91.2 28.6-2.4 1.1-4.5 2-4.7 2-1.2 0-19.4 9.1-27.6 13.8-18.9 10.9-37 26.5-46.6 40.2-8.8 12.6-15.3 29.2-17.1 43.5-1 7.5-.9 27.4.1 33.9 2.2 14.6 7.4 28.6 14.7 39.3 9.5 14 30.5 28.5 50.8 35.2 16.3 5.3 40.9 7.1 59.1 4.2 23-3.6 49-16 61.6-29.3 10.9-11.5 15.5-22.6 16-38.3.4-11.1-.9-18.4-4.7-26-2.7-5.5-11.2-14.6-16.1-17.1-13.4-7-33-6.9-46.7.1-9.7 4.9-18.6 15.8-20.5 25-.4 1.6-.9 4.1-1.2 5.5-1.6 7.7 0 19.1 3.6 26.6 4.3 9 10 13.6 26.1 21.5.9.4 3.3 1.1 5.3 1.4 2 .4 3.6 1.1 3.6 1.6 0 1.6-5.8 7.4-9.2 9.1-9.5 4.7-26.2 8.4-39.4 8.7-7.8.2-11.1-.2-21.3-2.3-4.8-1.1-9.8-3-17.3-6.7-26.3-13-40-33.2-39.9-59 .1-29 21.7-51 69.2-70.3 18.5-7.5 97.1-33.6 101.2-33.6 1.6 0 21.1 9.1 27.2 12.7 17.6 10.4 33.4 27 41.8 43.8 21.2 42.7 21.3 88.7.2 126.3-7.1 12.8-19.3 26.9-34.6 40.1-9.6 8.2-35.1 23.3-49.4 29.2-1.1.4-4.8 1.9-8.1 3.3-3.4 1.4-11.4 4.1-17.8 6-23.8 7.3-42.5 10.7-71.6 13.1-6.3.5-40.3.6-47 .1-22.2-1.7-37.4-4.2-56.5-9.1-13.6-3.5-30.3-9-32-10.6-.5-.5-1.5-.9-2.3-.9-.7 0-6.7-2.7-13.3-6-49-24.4-81.9-63.7-93-111-2.8-12.3-2.8-12-3.6-19.6-1-8.8-1-39.1-.1-46.7.4-3.2 1.5-8.8 2.4-12.5.8-3.7 1.8-7.8 2-9.1.9-4.3 6.6-18.4 10.2-25.1 14.9-27.6 41.2-49.1 76.2-62.3 17.4-6.6 15.8-6.5 29.5-.9 15.1 6.2 28.8 11.1 33.3 11.8 1.9.3 4.4.8 5.6 1 3.4.7 13.9.6 18.1-.1 8.5-1.6 15.5-8.2 15.5-14.7 0-9.4-7.6-16.2-21.2-18.9-4.9-.9-22.2-1.2-29.3-.5-13.8 1.4-24 2.7-32.6 4.1-2.1.4-3.7-.7-8.8-5.8-18-18.2-30.3-41.6-34.6-65.7-2.1-11.5-2.7-32.7-1.2-41.5 1.1-6.3 1.9-11.5 1.8-11.7-.1-.2 1.2-4.3 2.9-9.2 7.7-23 21.2-39 42.2-50 8.2-4.4 19-8.2 25.8-9.2 1.9-.3 4.6-.8 6-1.1 9.5-1.9 36.2-.6 48 2.5 13.2 3.5 27.5 12.3 31.8 19.5l2 3.5-6.8 1.6c-15.3 3.4-27.5 13-33.7 26.3-4.1 9-5.1 20.3-2.7 29.9 6.8 26.1 38.1 38.4 64.4 25.3 6.5-3.2 15.2-10.7 18.5-15.9 12.5-19.9 4.9-51.8-17.9-74.6-17.7-17.7-40.6-27.3-73.6-31-11.8-1.3-41.4-.6-52.5 1.2-17.3 2.8-26.1 5-37.9 9.7-28.4 11.1-50.4 29.5-62.4 52-7.3 13.6-10.2 26.8-9.7 44.2.3 14.1 2.6 24.1 8.4 37 12.3 27 38.4 51.8 69.6 66.1 6.9 3.1 7.7 2.4-9.4 7.9-26.5 8.5-62.2 27.8-78.7 42.7-21.1 19-38.2 41.5-47.2 62-4 9.1-8.4 22.9-9.6 29.8-.3 1.9-.8 4.4-1 5.5-.2 1.2-.7 4.8-1.1 8-.4 3.3-.9 7.1-1.1 8.5-.6 3.3-.6 34.8 0 35.8.2.4.7 3.8 1.1 7.6.3 3.8.8 7.2 1 7.5.1.3.6 2.4.9 4.6 3.1 19.8 15.1 47.4 29 66.5 13.9 19.2 35.2 39.7 56.1 53.7 31.3 21 75.4 37.8 118.5 45.2 10.4 1.8 14 2.3 25 3.5 8.5 1 27.5 1.9 39.5 1.9 13.3 0 36.8-1.1 39.5-1.8.8-.2 4.2-.6 7.5-1 3.3-.3 8.5-1 11.5-1.5s7.3-1.2 9.5-1.6c7.2-1 27.8-6.4 38.5-10.1 21.3-7.2 45.2-19 62.5-30.7 5-3.3 9.2-6.3 9.5-6.6.3-.3 3.7-3 7.5-6.1 31.1-24.9 55.4-61.6 64.9-98 2.7-10.3 3-12.1 4.7-25.8 1.1-9 .7-35.2-.6-43.1-7.2-42.7-24.2-73.4-53-95.8-7.5-5.9-25.1-16.5-31-18.8-2.5-.9-4.5-2-4.5-2.4 0-.4 6-2.6 13.3-4.9 42.3-13.4 82-27.3 101.7-35.6 20-8.5 36.3-19.3 51.1-34 24.4-24.2 35.9-51.3 36.2-85 .1-14.3-.6-21.7-2.9-31.5-4.7-19.7-13.6-35.4-27.9-49.5C610.3 54.7 574 43.3 530 47.2z"/></svg>