<svg id="Layer_1" data-name="Layer 1" xmlns="http://www.w3.org/2000/svg" viewBox="0 0 640 480">
  <defs>
    <style>
      .cls-1 {
        fill: #fff;
      }

      .cls-1, .cls-2 {
        fill-rule: evenodd;
      }

      .cls-2 {
        fill: #231f20;
      }
    </style>
  </defs>
  <title>Artboard 1 copy</title>
  <g>
    <polygon class="cls-1" points="79.76 -1.24 561 -1.24 561 480 79.76 480 79.76 -1.24 79.76 -1.24"/>
    <path class="cls-2" d="M539.77,261a4.93,4.93,0,1,0-4.93,4.93,4.92,4.92,0,0,0,4.93-4.93Z"/>
    <path class="cls-1" d="M539.2,261a4.36,4.36,0,1,1-4.36-4.31A4.34,4.34,0,0,1,539.2,261Z"/>
    <path class="cls-2" d="M533,263.57h.71v-2.32h1.8c1.09,0,.81,1,.9,1.66l.1.66h.85c-.28-.47-.19-.57-.24-1.28-.09-1-.14-1-.66-1.37a1.47,1.47,0,0,0,.71-1.38c-.09-1.23-.9-1.37-1.75-1.37H533v5.4Z"/>
    <path class="cls-2" d="M422.81,255.56h53.84c79.8,0,79.8,52.56,0,52.56H422.81V255.56Z"/>
    <path class="cls-2" d="M295.1,308.64c22.84,0,41.56-12.23,41.56-27.16s-18.72-27.15-41.56-27.15-41.61,12.18-41.61,27.15,18.67,27.16,41.61,27.16Z"/>
    <path class="cls-2" d="M128.71,308.12H101V255.56h25.45s21-.57,21,13.37c0,0,.85,9.57-7.44,12.36,0,0,10.33,2.75,10.33,12.51s-9.62,14.32-21.61,14.32Z"/>
    <path class="cls-2" d="M534.46,217.32l3,1.7a90.22,90.22,0,0,1-9.83,11.27L539,245.47h-5.16l-9.21-12.42c-1,.9-2.1,1.79-3.21,2.66C512.05,243,504.79,247,498,247s-19.19-5.59-19.19-18.24,8.48-18.63,16.72-24.13c2-1.34,3.8-2.5,5.43-3.53,0,0-7.61-8.69-7.61-16.37s6.73-13.88,14.22-13.88,13,7,13,14.12c0,6.75-6.54,12.13-14,17.42,3.64,4.79,11.43,15.14,18.45,24.49,3-2.76,6.08-5.94,9.38-9.59Z"/>
    <polygon class="cls-2" points="310.73 245.47 341.02 170.12 371.44 245.47 366.75 245.47 356.94 221.2 325.24 221.2 315.52 245.47 310.73 245.47 310.73 245.47"/>
    <path class="cls-2" d="M191.22,172.58h16.54c46.63,0,47.67,72.89-1.09,72.89H191.22V172.58Z"/>
    <path class="cls-2" d="M290.74,245.47H272.4V172.58H289s17.82,0,18.58,17.73c0,0,1,11.61-8.06,16.53,0,0,14.46,2.94,14.46,18.25s-12.28,20.38-23.22,20.38Z"/>
    <path class="cls-2" d="M119.94,245.47H101.6V172.58h16.64s17.82,0,18.53,17.73c0,0,1.09,11.61-8.06,16.53,0,0,14.55,2.94,14.55,18.25s-12.37,20.38-23.32,20.38Z"/>
    <path class="cls-1" d="M535.46,258.78c.42,0,1.09.1,1,1.05-.09.71-.52.8-1,.8H533.7v-1.85Z"/>
    <path class="cls-1" d="M465.13,292.19h5.64c30.61,0,30.61-20.28,0-20.28h-5.64v20.28Z"/>
    <path class="cls-2" d="M337.56,255.56h28.29l25.07,27.91c1.37,1.47,2.79,1.09,1.85-1.13a40.68,40.68,0,0,1-1.66-7V255.56h27.77v52.56H391l-25.3-26.83c-1.38-1.51-2.8-1.13-1.85,1.14a35.13,35.13,0,0,1,1.37,7v18.68H337.56V255.56Z"/>
    <path class="cls-1" d="M295.1,271.1c7.82,0,14.17,4.65,14.17,10.38s-6.35,10.38-14.17,10.38-14.22-4.69-14.22-10.38,6.4-10.38,14.22-10.38Z"/>
    <polygon class="cls-2" points="153.64 255.56 222.97 255.56 231.17 270.44 238.99 255.56 267.85 255.56 243.39 285.75 243.39 308.12 218.61 308.12 218.61 284.99 195.67 257.6 195.67 269.82 176.38 269.82 176.38 274.99 194.11 274.99 194.11 288.5 176.38 288.5 176.38 293.85 196.62 293.85 196.62 308.12 153.64 308.12 153.64 255.56 153.64 255.56"/>
    <path class="cls-1" d="M120.18,276.13h5c5.3,0,5.3-8,0-8h-5v8Z"/>
    <path class="cls-1" d="M120.18,287.07h5.69c7.44,0,7.44,8.68,0,8.68h-5.69v-8.68Z"/>
    <path class="cls-1" d="M522.09,229.61l-18.55-25c-6.71,4.65-8.66,5.86-12,8.37-3.5,2.75-8.43,6.82-8.43,14.59s6.16,14.79,14.21,14.79c5.93,0,14.15-3.51,24.74-12.73Z"/>
    <path class="cls-1" d="M504.15,199.13a40.75,40.75,0,0,0,7.9-6c3.41-3.6,4-5.88,4-8.15s-1.47-9.48-9-9.48-9.24,6.68-9.24,10c0,3,1.91,7.47,6.32,13.56Z"/>
    <polygon class="cls-2" points="407.88 203.29 452.33 203.29 452.33 172.58 456.55 172.58 456.55 245.47 452.33 245.47 452.33 207.84 407.88 207.84 407.88 245.47 403.67 245.47 403.67 172.58 407.88 172.58 407.88 203.29 407.88 203.29"/>
    <polygon class="cls-2" points="357.08 172.58 399.07 172.58 399.07 176.71 380.16 176.71 380.16 245.47 375.94 245.47 375.94 176.71 357.08 176.71 357.08 172.58 357.08 172.58"/>
    <polygon class="cls-1" points="355.23 216.99 341.02 181.68 326.89 216.99 355.23 216.99 355.23 216.99"/>
    <path class="cls-1" d="M196.1,177.13h11c41.75,0,41.14,63.65,0,63.65h-11V177.13Z"/>
    <polygon class="cls-2" points="148.9 172.58 183.63 172.58 183.63 177.13 153.35 177.13 153.35 203.62 182.78 203.62 182.78 207.84 153.35 207.84 153.35 240.97 183.63 240.97 183.63 245.47 148.9 245.47 148.9 172.58 148.9 172.58"/>
    <path class="cls-1" d="M276.47,177H288.7c19.24,0,19.29,28.67,0,28.67H276.47V177Z"/>
    <path class="cls-1" d="M105.68,177h12.23c19.24,0,19.28,28.67,0,28.67H105.68V177Z"/>
    <path class="cls-1" d="M276.57,210.4h16.25c22.84,0,22.23,30.52-.62,30.52H276.57V210.4Z"/>
    <path class="cls-1" d="M105.82,210.4H122c22.89,0,22.27,30.52-.62,30.52H105.82V210.4Z"/>
  </g>
</svg>
