<svg id="Layer_1" data-name="Layer 1" xmlns="http://www.w3.org/2000/svg" viewBox="0 0 640 480">
  <defs>
    <style>
      .cls-1 {
        fill: #21201f;
      }

      .cls-2 {
        fill: #f1b4b1;
      }

      .cls-3 {
        fill: #c5164a;
      }

      .cls-4 {
        fill: #01b4c0;
      }

      .cls-5 {
        fill: #c5e4ea;
      }

      .cls-6 {
        fill: #336081;
      }

      .cls-7 {
        fill: #003c57;
      }

      .cls-8 {
        fill: #dcddde;
      }

      .cls-9 {
        fill: #aac6cc;
      }

      .cls-10 {
        fill: #179caa;
      }
    </style>
  </defs>
  <title>Artboard 1</title>
  <g>
    <path class="cls-1" d="M313.93,262.43v6.15a2.32,2.32,0,0,1-2.43,2.3l-46.83-.06a2.28,2.28,0,0,1-2.3-2.36v-7a2.22,2.22,0,0,1,.68-1.55l33.46-37.32h-33.7a2.26,2.26,0,0,1-2.31-2.3l.07-6.34a2.26,2.26,0,0,1,2.36-2.3l46.77.06A2.28,2.28,0,0,1,312,214v6.66a2.79,2.79,0,0,1-.62,1.8L278,260.06h33.58a2.37,2.37,0,0,1,2.37,2.37"/>
    <path class="cls-1" d="M370,271.63a30.48,30.48,0,1,1,30.72-30.22A30.5,30.5,0,0,1,370,271.63m.37-49.5a19,19,0,1,0,18.84,19.15,19,19,0,0,0-18.84-19.15"/>
    <path class="cls-1" d="M469.71,261.43v7.9a1.78,1.78,0,0,1-2,1.55H435a1.54,1.54,0,0,1-1.56-1.55v-56.1c0-.87,1.12-1.55,2-1.55h8a1.54,1.54,0,0,1,1.56,1.55v46.65h22.82a1.77,1.77,0,0,1,1.93,1.55"/>
    <path class="cls-1" d="M554.16,270.88h-8.52a1.73,1.73,0,0,1-1.55-1L539,258H511.25l-5.35,12a1.65,1.65,0,0,1-1.55,1H495.7a1.73,1.73,0,0,1-1.55-2.43l25.43-55.72a1.68,1.68,0,0,1,1.43-1.06h8.9a1.6,1.6,0,0,1,1.43,1.12l24.38,55.66a1.7,1.7,0,0,1-1.56,2.36m-20-23.94-8.83-20.15-9.15,20.15Z"/>
  </g>
  <path class="cls-2" d="M159.7,217.28a13.74,13.74,0,0,1,1.12-1.06h0A13.74,13.74,0,0,0,159.7,217.28Z"/>
  <path class="cls-2" d="M161.87,217.21a12.34,12.34,0,0,0-.93-.87A12.34,12.34,0,0,1,161.87,217.21Z"/>
  <path class="cls-3" d="M160.94,216.28l-.12-.12h0Z"/>
  <path class="cls-4" d="M160.82,249.74a11.22,11.22,0,0,0-.75-.87.34.34,0,0,1-.12-.19,7,7,0,0,0-.56-.68c-.07-.06-.13-.19-.19-.25-.19-.25-.31-.44-.5-.69-.06-.06-.12-.18-.19-.24-.18-.32-.43-.56-.62-.87v-.07c-.18-.31-.43-.62-.62-.93-.06-.06-.12-.19-.19-.25-.12-.25-.24-.43-.37-.68a3.21,3.21,0,0,0-.19-.31c-.12-.19-.24-.44-.37-.63a.63.63,0,0,1-.12-.31,6.51,6.51,0,0,1-.44-.93c-.12-.31-.31-.62-.43-.93-.07-.13-.07-.19-.13-.31s-.18-.44-.25-.69-.06-.25-.12-.37-.13-.44-.19-.68-.06-.25-.12-.32c-.06-.24-.13-.55-.19-.8a.23.23,0,0,0-.06-.19c-.06-.31-.13-.62-.19-1,0-.12-.06-.18-.06-.31s-.06-.43-.12-.68-.07-.25-.07-.37-.06-.44-.06-.63a.82.82,0,0,0-.06-.37,2.61,2.61,0,0,0-.06-.68v-2.24a1.12,1.12,0,0,1,.06-.44c0-.18.06-.37.06-.56s.06-.31.06-.43.07-.37.07-.56.06-.25.06-.44.12-.62.18-.87a1.18,1.18,0,0,1,.13-.43c.06-.19.06-.38.12-.5s.07-.31.13-.5.06-.31.12-.43a1.54,1.54,0,0,0,.13-.5,1.16,1.16,0,0,0,.12-.44c.06-.18.13-.31.19-.49l.18-.38.38-.93.18-.37c.07-.19.19-.31.25-.5l.19-.37c.06-.19.19-.31.25-.5s.12-.19.18-.31a3.62,3.62,0,0,1,.32-.5.48.48,0,0,0,.12-.25l.75-1.12c.06-.06.06-.12.12-.18s.25-.31.37-.5.13-.19.19-.25.25-.31.37-.5.13-.18.25-.25.31-.31.44-.49l.18-.19c.38-.37.75-.75,1.12-1.06a25.1,25.1,0,0,0-5.78-3.85c-.56-.25-1.06-.44-1.62-.69a23.36,23.36,0,0,0-8.14-1.49h-.07a22.11,22.11,0,0,0-13.3,4.48,22.78,22.78,0,0,0-4.92,5.16,23.89,23.89,0,0,1,1.68,3c2.43,5.17,3.24,11.57,3.24,18.1v.06c-.07,15.43-4.86,31.28-4.92,31.53.19-.06,2-.87,4.92-2.3a120.26,120.26,0,0,0,21.51-13.43,48.79,48.79,0,0,0,7.47-6.84Z"/>
  <path class="cls-5" d="M192.91,222.81a22,22,0,0,1,1.67-3,22.17,22.17,0,0,0-26.43-8.15c-.56.19-1.05.43-1.61.68a21.85,21.85,0,0,0-5.79,3.86h0l.13.12c.31.31.62.56.93.87l.25.25c.12.13.25.31.37.44s.19.18.25.31.25.31.37.43.19.19.25.32a3.48,3.48,0,0,1,.38.49c.06.06.12.19.18.25a7.16,7.16,0,0,1,.62.93c.07.13.13.19.19.32s.19.31.31.49l.19.38c.06.18.19.31.25.49l.18.38c.07.18.19.31.25.49l.19.38c.12.25.25.56.37.81s.13.31.19.43.12.31.19.5.12.31.18.43a1.54,1.54,0,0,1,.13.5,1.52,1.52,0,0,1,.12.5c.06.12.06.31.13.43s.06.38.12.56a.93.93,0,0,0,.12.38c.07.31.13.62.19.87s.06.25.06.37.07.37.07.56.06.31.06.44.06.37.06.56v2.61a2.39,2.39,0,0,1-.06.68.78.78,0,0,1-.06.37c0,.19-.07.44-.07.63a.8.8,0,0,1-.06.37c-.06.25-.06.44-.12.68s-.07.19-.07.31c-.06.32-.12.63-.18,1,0,.06,0,.12-.06.12-.07.25-.13.56-.19.81a2.88,2.88,0,0,1-.13.31c-.06.25-.12.44-.18.69s-.06.25-.13.37-.18.44-.25.68-.06.19-.12.32a6.43,6.43,0,0,1-.43.93c-.13.31-.32.62-.44.93a3.21,3.21,0,0,1-.19.31c-.12.19-.25.44-.37.62s-.12.19-.19.32-.25.43-.37.68c-.06.06-.12.19-.19.25a7.16,7.16,0,0,1-.62.93l-.06.06a7.79,7.79,0,0,1-.62.87c-.06.07-.13.19-.19.25a5,5,0,0,0-.5.69c-.06.06-.12.18-.18.25-.19.24-.38.49-.62.74l-.13.13a11.21,11.21,0,0,1-.81.93h0a64.68,64.68,0,0,0,7.34,7,118.34,118.34,0,0,0,21.52,13.44c2.86,1.43,4.79,2.24,4.91,2.3C194.52,272.19,184.76,240.22,192.91,222.81Z"/>
  <path class="cls-6" d="M122.07,241c0-6.53.81-13,3.24-18.16a22,22,0,0,1,1.67-3,22.17,22.17,0,0,0-28-7.47A22.32,22.32,0,0,0,87.93,241.9c6.09,13.12,25.12,23.82,34.2,28.3,2.86,1.43,4.73,2.24,4.92,2.3-.07-.19-4.85-16-4.92-31.41V241Z"/>
  <path class="cls-7" d="M132,240.91c0-6.53-.81-12.94-3.23-18.1a23.2,23.2,0,0,0-1.68-3,23.2,23.2,0,0,0-1.68,3c-2.43,5.16-3.24,11.63-3.24,18.16V241c.07,15.43,4.85,31.22,4.92,31.41h0c.06-.19,4.85-16.05,4.91-31.53Z"/>
  <path class="cls-8" d="M222.63,212.3a22.79,22.79,0,0,0-9.76-2.18h-.06a22.14,22.14,0,0,0-13.31,4.48,22.78,22.78,0,0,0-4.92,5.16,21.71,21.71,0,0,1,1.68,3c2.37,5.16,3.24,11.57,3.24,18V241c-.06,15.43-4.85,31.16-4.92,31.35.19-.07,2.06-.88,4.92-2.31,9.08-4.47,28-15.17,34.2-28.29C238.86,230.83,233.89,217.59,222.63,212.3Z"/>
  <path class="cls-9" d="M199.56,240.85c0-6.47-.81-12.88-3.23-18a23.2,23.2,0,0,0-1.68-3,22.06,22.06,0,0,0-1.68,3c-8.09,17.41,1.61,49.38,1.68,49.63h0c.06-.19,4.85-16,4.91-31.35v-.24Z"/>
  <path class="cls-10" d="M159.7,217.28l-.19.18a4.59,4.59,0,0,0-.44.5c-.06.06-.12.19-.24.25s-.25.31-.38.5-.12.18-.18.25-.25.31-.38.49-.06.13-.12.19l-.75,1.12a.48.48,0,0,0-.12.25c-.13.18-.19.31-.31.49s-.13.19-.19.32a1.89,1.89,0,0,0-.25.49l-.18.38c-.07.18-.19.31-.25.49l-.19.38-.37.93-.19.37c-.06.19-.12.31-.19.5a1.21,1.21,0,0,0-.12.44,1.49,1.49,0,0,0-.13.49c-.06.13-.06.31-.12.44s-.06.31-.12.5-.07.31-.13.49-.06.31-.12.44c-.07.31-.13.62-.19.87s-.06.25-.06.44-.06.37-.06.55-.07.32-.07.44-.06.37-.06.56a1.14,1.14,0,0,1-.06.44v2.23a2.69,2.69,0,0,0,.06.69.8.8,0,0,0,.06.37c0,.19.07.44.07.62a.84.84,0,0,0,.06.38,2.7,2.7,0,0,0,.12.68c0,.12.06.19.06.31.07.31.13.62.19,1a.22.22,0,0,0,.06.18c.07.25.13.56.19.81a.46.46,0,0,0,.12.31c.07.25.13.44.19.69s.06.25.13.37.18.43.24.68.07.19.13.31a6.08,6.08,0,0,0,.43.94c.13.31.32.62.44.93a.67.67,0,0,1,.12.31,4.81,4.81,0,0,0,.38.62c.06.13.12.19.18.31s.25.44.38.69c.06.06.12.18.18.25a8.47,8.47,0,0,0,.63.93v.06a6.68,6.68,0,0,0,.62.87c.06.06.12.19.18.25.19.25.31.44.5.69.06.06.13.18.19.24a5.78,5.78,0,0,0,.56.69c.06.06.12.12.12.18a9.81,9.81,0,0,0,.75.88h0a9.88,9.88,0,0,1,.81-.94l.12-.12c.19-.25.44-.5.62-.75.06-.06.13-.18.19-.25a4.92,4.92,0,0,0,.5-.68c.06-.06.12-.19.18-.25.19-.31.44-.56.63-.87A.06.06,0,0,1,164,246c.18-.31.43-.62.62-.94.06-.06.12-.18.19-.24s.24-.44.37-.69.12-.18.19-.31.24-.43.37-.62a3.21,3.21,0,0,1,.19-.31,6.43,6.43,0,0,0,.43-.93c.12-.32.31-.63.44-.94.06-.12.06-.18.12-.31s.19-.43.25-.68.06-.25.12-.38.13-.43.19-.68.06-.19.12-.31.13-.56.19-.81c0-.06,0-.12.06-.12.07-.31.13-.63.19-1,0-.12.06-.19.06-.31s.06-.43.13-.68.06-.25.06-.38.06-.43.06-.62a.8.8,0,0,1,.06-.37,2.13,2.13,0,0,1,.07-.69v-2.61c0-.18-.07-.37-.07-.56s-.06-.31-.06-.43-.06-.38-.06-.56-.06-.25-.06-.38c-.07-.31-.13-.62-.19-.87a.89.89,0,0,0-.12-.37c-.07-.19-.07-.37-.13-.56s-.06-.31-.12-.43-.07-.32-.13-.5a1.52,1.52,0,0,1-.12-.5c-.06-.12-.13-.31-.19-.43s-.12-.32-.19-.5-.12-.31-.18-.44-.25-.56-.38-.81l-.18-.37c-.06-.19-.19-.31-.25-.5l-.19-.37c-.06-.19-.18-.31-.25-.5l-.18-.37c-.13-.19-.19-.31-.31-.5a3.21,3.21,0,0,1-.19-.31c-.19-.31-.44-.62-.62-.93-.06-.06-.13-.19-.19-.25s-.25-.31-.37-.5-.19-.18-.25-.31-.25-.31-.37-.43-.19-.19-.25-.32-.25-.31-.38-.43l-.24-.25a12.42,12.42,0,0,0-.94-.87l-.12-.12A2.45,2.45,0,0,0,159.7,217.28Z"/>
</svg>
